<?xml version="1.0" encoding="utf-8" standalone="no"?>
<!DOCTYPE svg PUBLIC "-//W3C//DTD SVG 1.1//EN"
  "http://www.w3.org/Graphics/SVG/1.1/DTD/svg11.dtd">
<svg xmlns:xlink="http://www.w3.org/1999/xlink" width="322.985625pt" height="331.674375pt" viewBox="0 0 322.985625 331.674375" xmlns="http://www.w3.org/2000/svg" version="1.1">
 <metadata>
  <rdf:RDF xmlns:dc="http://purl.org/dc/elements/1.1/" xmlns:cc="http://creativecommons.org/ns#" xmlns:rdf="http://www.w3.org/1999/02/22-rdf-syntax-ns#">
   <cc:Work>
    <dc:type rdf:resource="http://purl.org/dc/dcmitype/StillImage"/>
    <dc:date>2023-08-31T09:25:02.548908</dc:date>
    <dc:format>image/svg+xml</dc:format>
    <dc:creator>
     <cc:Agent>
      <dc:title>Matplotlib v3.5.1, https://matplotlib.org/</dc:title>
     </cc:Agent>
    </dc:creator>
   </cc:Work>
  </rdf:RDF>
 </metadata>
 <defs>
  <style type="text/css">*{stroke-linejoin: round; stroke-linecap: butt}</style>
 </defs>
 <g id="figure_1">
  <g id="patch_1">
   <path d="M 0 331.674375 
L 322.985625 331.674375 
L 322.985625 0 
L 0 0 
L 0 331.674375 
z
" style="fill: none"/>
  </g>
  <g id="axes_1">
   <g id="patch_2">
    <path d="M 36.785625 294.118125 
L 315.785625 294.118125 
L 315.785625 22.318125 
L 36.785625 22.318125 
L 36.785625 294.118125 
z
" style="fill: none"/>
   </g>
   <g id="matplotlib.axis_1">
    <g id="xtick_1">
     <g id="line2d_1">
      <path d="M 45.168718 294.118125 
L 45.168718 22.318125 
" clip-path="url(#p84ac9ad704)" style="fill: none; stroke: #ffffff; stroke-width: 0.8; stroke-linecap: round"/>
     </g>
     <g id="text_1">
      <!-- 0.05 -->
      <g style="fill: #262626" transform="translate(34.035906 308.716563)scale(0.1 -0.1)">
       <defs>
        <path id="DejaVuSans-30" d="M 2034 4250 
Q 1547 4250 1301 3770 
Q 1056 3291 1056 2328 
Q 1056 1369 1301 889 
Q 1547 409 2034 409 
Q 2525 409 2770 889 
Q 3016 1369 3016 2328 
Q 3016 3291 2770 3770 
Q 2525 4250 2034 4250 
z
M 2034 4750 
Q 2819 4750 3233 4129 
Q 3647 3509 3647 2328 
Q 3647 1150 3233 529 
Q 2819 -91 2034 -91 
Q 1250 -91 836 529 
Q 422 1150 422 2328 
Q 422 3509 836 4129 
Q 1250 4750 2034 4750 
z
" transform="scale(0.015625)"/>
        <path id="DejaVuSans-2e" d="M 684 794 
L 1344 794 
L 1344 0 
L 684 0 
L 684 794 
z
" transform="scale(0.015625)"/>
        <path id="DejaVuSans-35" d="M 691 4666 
L 3169 4666 
L 3169 4134 
L 1269 4134 
L 1269 2991 
Q 1406 3038 1543 3061 
Q 1681 3084 1819 3084 
Q 2600 3084 3056 2656 
Q 3513 2228 3513 1497 
Q 3513 744 3044 326 
Q 2575 -91 1722 -91 
Q 1428 -91 1123 -41 
Q 819 9 494 109 
L 494 744 
Q 775 591 1075 516 
Q 1375 441 1709 441 
Q 2250 441 2565 725 
Q 2881 1009 2881 1497 
Q 2881 1984 2565 2268 
Q 2250 2553 1709 2553 
Q 1456 2553 1204 2497 
Q 953 2441 691 2322 
L 691 4666 
z
" transform="scale(0.015625)"/>
       </defs>
       <use xlink:href="#DejaVuSans-30"/>
       <use xlink:href="#DejaVuSans-2e" x="63.623047"/>
       <use xlink:href="#DejaVuSans-30" x="95.410156"/>
       <use xlink:href="#DejaVuSans-35" x="159.033203"/>
      </g>
     </g>
    </g>
    <g id="xtick_2">
     <g id="line2d_2">
      <path d="M 100.862449 294.118125 
L 100.862449 22.318125 
" clip-path="url(#p84ac9ad704)" style="fill: none; stroke: #ffffff; stroke-width: 0.8; stroke-linecap: round"/>
     </g>
     <g id="text_2">
      <!-- 0.10 -->
      <g style="fill: #262626" transform="translate(89.729636 308.716563)scale(0.1 -0.1)">
       <defs>
        <path id="DejaVuSans-31" d="M 794 531 
L 1825 531 
L 1825 4091 
L 703 3866 
L 703 4441 
L 1819 4666 
L 2450 4666 
L 2450 531 
L 3481 531 
L 3481 0 
L 794 0 
L 794 531 
z
" transform="scale(0.015625)"/>
       </defs>
       <use xlink:href="#DejaVuSans-30"/>
       <use xlink:href="#DejaVuSans-2e" x="63.623047"/>
       <use xlink:href="#DejaVuSans-31" x="95.410156"/>
       <use xlink:href="#DejaVuSans-30" x="159.033203"/>
      </g>
     </g>
    </g>
    <g id="xtick_3">
     <g id="line2d_3">
      <path d="M 156.556179 294.118125 
L 156.556179 22.318125 
" clip-path="url(#p84ac9ad704)" style="fill: none; stroke: #ffffff; stroke-width: 0.8; stroke-linecap: round"/>
     </g>
     <g id="text_3">
      <!-- 0.15 -->
      <g style="fill: #262626" transform="translate(145.423367 308.716563)scale(0.1 -0.1)">
       <use xlink:href="#DejaVuSans-30"/>
       <use xlink:href="#DejaVuSans-2e" x="63.623047"/>
       <use xlink:href="#DejaVuSans-31" x="95.410156"/>
       <use xlink:href="#DejaVuSans-35" x="159.033203"/>
      </g>
     </g>
    </g>
    <g id="xtick_4">
     <g id="line2d_4">
      <path d="M 212.24991 294.118125 
L 212.24991 22.318125 
" clip-path="url(#p84ac9ad704)" style="fill: none; stroke: #ffffff; stroke-width: 0.8; stroke-linecap: round"/>
     </g>
     <g id="text_4">
      <!-- 0.20 -->
      <g style="fill: #262626" transform="translate(201.117097 308.716563)scale(0.1 -0.1)">
       <defs>
        <path id="DejaVuSans-32" d="M 1228 531 
L 3431 531 
L 3431 0 
L 469 0 
L 469 531 
Q 828 903 1448 1529 
Q 2069 2156 2228 2338 
Q 2531 2678 2651 2914 
Q 2772 3150 2772 3378 
Q 2772 3750 2511 3984 
Q 2250 4219 1831 4219 
Q 1534 4219 1204 4116 
Q 875 4013 500 3803 
L 500 4441 
Q 881 4594 1212 4672 
Q 1544 4750 1819 4750 
Q 2544 4750 2975 4387 
Q 3406 4025 3406 3419 
Q 3406 3131 3298 2873 
Q 3191 2616 2906 2266 
Q 2828 2175 2409 1742 
Q 1991 1309 1228 531 
z
" transform="scale(0.015625)"/>
       </defs>
       <use xlink:href="#DejaVuSans-30"/>
       <use xlink:href="#DejaVuSans-2e" x="63.623047"/>
       <use xlink:href="#DejaVuSans-32" x="95.410156"/>
       <use xlink:href="#DejaVuSans-30" x="159.033203"/>
      </g>
     </g>
    </g>
    <g id="xtick_5">
     <g id="line2d_5">
      <path d="M 267.94364 294.118125 
L 267.94364 22.318125 
" clip-path="url(#p84ac9ad704)" style="fill: none; stroke: #ffffff; stroke-width: 0.8; stroke-linecap: round"/>
     </g>
     <g id="text_5">
      <!-- 0.25 -->
      <g style="fill: #262626" transform="translate(256.810828 308.716563)scale(0.1 -0.1)">
       <use xlink:href="#DejaVuSans-30"/>
       <use xlink:href="#DejaVuSans-2e" x="63.623047"/>
       <use xlink:href="#DejaVuSans-32" x="95.410156"/>
       <use xlink:href="#DejaVuSans-35" x="159.033203"/>
      </g>
     </g>
    </g>
    <g id="text_6">
     <!-- mCGN-hmC -->
     <g style="fill: #262626" transform="translate(146.974688 322.394687)scale(0.1 -0.1)">
      <defs>
       <path id="DejaVuSans-6d" d="M 3328 2828 
Q 3544 3216 3844 3400 
Q 4144 3584 4550 3584 
Q 5097 3584 5394 3201 
Q 5691 2819 5691 2113 
L 5691 0 
L 5113 0 
L 5113 2094 
Q 5113 2597 4934 2840 
Q 4756 3084 4391 3084 
Q 3944 3084 3684 2787 
Q 3425 2491 3425 1978 
L 3425 0 
L 2847 0 
L 2847 2094 
Q 2847 2600 2669 2842 
Q 2491 3084 2119 3084 
Q 1678 3084 1418 2786 
Q 1159 2488 1159 1978 
L 1159 0 
L 581 0 
L 581 3500 
L 1159 3500 
L 1159 2956 
Q 1356 3278 1631 3431 
Q 1906 3584 2284 3584 
Q 2666 3584 2933 3390 
Q 3200 3197 3328 2828 
z
" transform="scale(0.015625)"/>
       <path id="DejaVuSans-43" d="M 4122 4306 
L 4122 3641 
Q 3803 3938 3442 4084 
Q 3081 4231 2675 4231 
Q 1875 4231 1450 3742 
Q 1025 3253 1025 2328 
Q 1025 1406 1450 917 
Q 1875 428 2675 428 
Q 3081 428 3442 575 
Q 3803 722 4122 1019 
L 4122 359 
Q 3791 134 3420 21 
Q 3050 -91 2638 -91 
Q 1578 -91 968 557 
Q 359 1206 359 2328 
Q 359 3453 968 4101 
Q 1578 4750 2638 4750 
Q 3056 4750 3426 4639 
Q 3797 4528 4122 4306 
z
" transform="scale(0.015625)"/>
       <path id="DejaVuSans-47" d="M 3809 666 
L 3809 1919 
L 2778 1919 
L 2778 2438 
L 4434 2438 
L 4434 434 
Q 4069 175 3628 42 
Q 3188 -91 2688 -91 
Q 1594 -91 976 548 
Q 359 1188 359 2328 
Q 359 3472 976 4111 
Q 1594 4750 2688 4750 
Q 3144 4750 3555 4637 
Q 3966 4525 4313 4306 
L 4313 3634 
Q 3963 3931 3569 4081 
Q 3175 4231 2741 4231 
Q 1884 4231 1454 3753 
Q 1025 3275 1025 2328 
Q 1025 1384 1454 906 
Q 1884 428 2741 428 
Q 3075 428 3337 486 
Q 3600 544 3809 666 
z
" transform="scale(0.015625)"/>
       <path id="DejaVuSans-4e" d="M 628 4666 
L 1478 4666 
L 3547 763 
L 3547 4666 
L 4159 4666 
L 4159 0 
L 3309 0 
L 1241 3903 
L 1241 0 
L 628 0 
L 628 4666 
z
" transform="scale(0.015625)"/>
       <path id="DejaVuSans-2d" d="M 313 2009 
L 1997 2009 
L 1997 1497 
L 313 1497 
L 313 2009 
z
" transform="scale(0.015625)"/>
       <path id="DejaVuSans-68" d="M 3513 2113 
L 3513 0 
L 2938 0 
L 2938 2094 
Q 2938 2591 2744 2837 
Q 2550 3084 2163 3084 
Q 1697 3084 1428 2787 
Q 1159 2491 1159 1978 
L 1159 0 
L 581 0 
L 581 4863 
L 1159 4863 
L 1159 2956 
Q 1366 3272 1645 3428 
Q 1925 3584 2291 3584 
Q 2894 3584 3203 3211 
Q 3513 2838 3513 2113 
z
" transform="scale(0.015625)"/>
      </defs>
      <use xlink:href="#DejaVuSans-6d"/>
      <use xlink:href="#DejaVuSans-43" x="97.412109"/>
      <use xlink:href="#DejaVuSans-47" x="167.236328"/>
      <use xlink:href="#DejaVuSans-4e" x="244.726562"/>
      <use xlink:href="#DejaVuSans-2d" x="319.53125"/>
      <use xlink:href="#DejaVuSans-68" x="355.615234"/>
      <use xlink:href="#DejaVuSans-6d" x="418.994141"/>
      <use xlink:href="#DejaVuSans-43" x="516.40625"/>
     </g>
    </g>
   </g>
   <g id="matplotlib.axis_2">
    <g id="ytick_1">
     <g id="line2d_6">
      <path d="M 36.785625 253.767403 
L 315.785625 253.767403 
" clip-path="url(#p84ac9ad704)" style="fill: none; stroke: #ffffff; stroke-width: 0.8; stroke-linecap: round"/>
     </g>
     <g id="text_7">
      <!-- 2 -->
      <g style="fill: #262626" transform="translate(20.878125 259.086309)scale(0.14 -0.14)">
       <use xlink:href="#DejaVuSans-32"/>
      </g>
     </g>
    </g>
    <g id="ytick_2">
     <g id="line2d_7">
      <path d="M 36.785625 212.048938 
L 315.785625 212.048938 
" clip-path="url(#p84ac9ad704)" style="fill: none; stroke: #ffffff; stroke-width: 0.8; stroke-linecap: round"/>
     </g>
     <g id="text_8">
      <!-- 3 -->
      <g style="fill: #262626" transform="translate(20.878125 217.367844)scale(0.14 -0.14)">
       <defs>
        <path id="DejaVuSans-33" d="M 2597 2516 
Q 3050 2419 3304 2112 
Q 3559 1806 3559 1356 
Q 3559 666 3084 287 
Q 2609 -91 1734 -91 
Q 1441 -91 1130 -33 
Q 819 25 488 141 
L 488 750 
Q 750 597 1062 519 
Q 1375 441 1716 441 
Q 2309 441 2620 675 
Q 2931 909 2931 1356 
Q 2931 1769 2642 2001 
Q 2353 2234 1838 2234 
L 1294 2234 
L 1294 2753 
L 1863 2753 
Q 2328 2753 2575 2939 
Q 2822 3125 2822 3475 
Q 2822 3834 2567 4026 
Q 2313 4219 1838 4219 
Q 1578 4219 1281 4162 
Q 984 4106 628 3988 
L 628 4550 
Q 988 4650 1302 4700 
Q 1616 4750 1894 4750 
Q 2613 4750 3031 4423 
Q 3450 4097 3450 3541 
Q 3450 3153 3228 2886 
Q 3006 2619 2597 2516 
z
" transform="scale(0.015625)"/>
       </defs>
       <use xlink:href="#DejaVuSans-33"/>
      </g>
     </g>
    </g>
    <g id="ytick_3">
     <g id="line2d_8">
      <path d="M 36.785625 170.330473 
L 315.785625 170.330473 
" clip-path="url(#p84ac9ad704)" style="fill: none; stroke: #ffffff; stroke-width: 0.8; stroke-linecap: round"/>
     </g>
     <g id="text_9">
      <!-- 4 -->
      <g style="fill: #262626" transform="translate(20.878125 175.649379)scale(0.14 -0.14)">
       <defs>
        <path id="DejaVuSans-34" d="M 2419 4116 
L 825 1625 
L 2419 1625 
L 2419 4116 
z
M 2253 4666 
L 3047 4666 
L 3047 1625 
L 3713 1625 
L 3713 1100 
L 3047 1100 
L 3047 0 
L 2419 0 
L 2419 1100 
L 313 1100 
L 313 1709 
L 2253 4666 
z
" transform="scale(0.015625)"/>
       </defs>
       <use xlink:href="#DejaVuSans-34"/>
      </g>
     </g>
    </g>
    <g id="ytick_4">
     <g id="line2d_9">
      <path d="M 36.785625 128.612008 
L 315.785625 128.612008 
" clip-path="url(#p84ac9ad704)" style="fill: none; stroke: #ffffff; stroke-width: 0.8; stroke-linecap: round"/>
     </g>
     <g id="text_10">
      <!-- 5 -->
      <g style="fill: #262626" transform="translate(20.878125 133.930915)scale(0.14 -0.14)">
       <use xlink:href="#DejaVuSans-35"/>
      </g>
     </g>
    </g>
    <g id="ytick_5">
     <g id="line2d_10">
      <path d="M 36.785625 86.893543 
L 315.785625 86.893543 
" clip-path="url(#p84ac9ad704)" style="fill: none; stroke: #ffffff; stroke-width: 0.8; stroke-linecap: round"/>
     </g>
     <g id="text_11">
      <!-- 6 -->
      <g style="fill: #262626" transform="translate(20.878125 92.21245)scale(0.14 -0.14)">
       <defs>
        <path id="DejaVuSans-36" d="M 2113 2584 
Q 1688 2584 1439 2293 
Q 1191 2003 1191 1497 
Q 1191 994 1439 701 
Q 1688 409 2113 409 
Q 2538 409 2786 701 
Q 3034 994 3034 1497 
Q 3034 2003 2786 2293 
Q 2538 2584 2113 2584 
z
M 3366 4563 
L 3366 3988 
Q 3128 4100 2886 4159 
Q 2644 4219 2406 4219 
Q 1781 4219 1451 3797 
Q 1122 3375 1075 2522 
Q 1259 2794 1537 2939 
Q 1816 3084 2150 3084 
Q 2853 3084 3261 2657 
Q 3669 2231 3669 1497 
Q 3669 778 3244 343 
Q 2819 -91 2113 -91 
Q 1303 -91 875 529 
Q 447 1150 447 2328 
Q 447 3434 972 4092 
Q 1497 4750 2381 4750 
Q 2619 4750 2861 4703 
Q 3103 4656 3366 4563 
z
" transform="scale(0.015625)"/>
       </defs>
       <use xlink:href="#DejaVuSans-36"/>
      </g>
     </g>
    </g>
    <g id="ytick_6">
     <g id="line2d_11">
      <path d="M 36.785625 45.175079 
L 315.785625 45.175079 
" clip-path="url(#p84ac9ad704)" style="fill: none; stroke: #ffffff; stroke-width: 0.8; stroke-linecap: round"/>
     </g>
     <g id="text_12">
      <!-- 7 -->
      <g style="fill: #262626" transform="translate(20.878125 50.493985)scale(0.14 -0.14)">
       <defs>
        <path id="DejaVuSans-37" d="M 525 4666 
L 3525 4666 
L 3525 4397 
L 1831 0 
L 1172 0 
L 2766 4134 
L 525 4134 
L 525 4666 
z
" transform="scale(0.015625)"/>
       </defs>
       <use xlink:href="#DejaVuSans-37"/>
      </g>
     </g>
    </g>
    <g id="text_13">
     <!-- RNA -->
     <g style="fill: #262626" transform="translate(14.798438 168.853281)rotate(-90)scale(0.1 -0.1)">
      <defs>
       <path id="DejaVuSans-52" d="M 2841 2188 
Q 3044 2119 3236 1894 
Q 3428 1669 3622 1275 
L 4263 0 
L 3584 0 
L 2988 1197 
Q 2756 1666 2539 1819 
Q 2322 1972 1947 1972 
L 1259 1972 
L 1259 0 
L 628 0 
L 628 4666 
L 2053 4666 
Q 2853 4666 3247 4331 
Q 3641 3997 3641 3322 
Q 3641 2881 3436 2590 
Q 3231 2300 2841 2188 
z
M 1259 4147 
L 1259 2491 
L 2053 2491 
Q 2509 2491 2742 2702 
Q 2975 2913 2975 3322 
Q 2975 3731 2742 3939 
Q 2509 4147 2053 4147 
L 1259 4147 
z
" transform="scale(0.015625)"/>
       <path id="DejaVuSans-41" d="M 2188 4044 
L 1331 1722 
L 3047 1722 
L 2188 4044 
z
M 1831 4666 
L 2547 4666 
L 4325 0 
L 3669 0 
L 3244 1197 
L 1141 1197 
L 716 0 
L 50 0 
L 1831 4666 
z
" transform="scale(0.015625)"/>
      </defs>
      <use xlink:href="#DejaVuSans-52"/>
      <use xlink:href="#DejaVuSans-4e" x="69.482422"/>
      <use xlink:href="#DejaVuSans-41" x="144.287109"/>
     </g>
    </g>
   </g>
   <g id="PathCollection_1">
    <defs>
     <path id="m76c5eafc3a" d="M 0 5 
C 1.326016 5 2.597899 4.473168 3.535534 3.535534 
C 4.473168 2.597899 5 1.326016 5 0 
C 5 -1.326016 4.473168 -2.597899 3.535534 -3.535534 
C 2.597899 -4.473168 1.326016 -5 0 -5 
C -1.326016 -5 -2.597899 -4.473168 -3.535534 -3.535534 
C -4.473168 -2.597899 -5 -1.326016 -5 0 
C -5 1.326016 -4.473168 2.597899 -3.535534 3.535534 
C -2.597899 4.473168 -1.326016 5 0 5 
z
" style="stroke: #ffffff; stroke-width: 0.8"/>
    </defs>
    <g clip-path="url(#p84ac9ad704)">
     <use xlink:href="#m76c5eafc3a" x="214.277559" y="179.639885" style="fill: #4169e1; stroke: #ffffff; stroke-width: 0.8"/>
     <use xlink:href="#m76c5eafc3a" x="179.41878" y="198.128745" style="fill: #4169e1; stroke: #ffffff; stroke-width: 0.8"/>
     <use xlink:href="#m76c5eafc3a" x="174.715268" y="189.21136" style="fill: #4169e1; stroke: #ffffff; stroke-width: 0.8"/>
     <use xlink:href="#m76c5eafc3a" x="183.268367" y="168.258815" style="fill: #4169e1; stroke: #ffffff; stroke-width: 0.8"/>
     <use xlink:href="#m76c5eafc3a" x="176.432306" y="195.139655" style="fill: #4169e1; stroke: #ffffff; stroke-width: 0.8"/>
     <use xlink:href="#m76c5eafc3a" x="197.378746" y="211.702611" style="fill: #4169e1; stroke: #ffffff; stroke-width: 0.8"/>
     <use xlink:href="#m76c5eafc3a" x="182.931873" y="98.571004" style="fill: #4169e1; stroke: #ffffff; stroke-width: 0.8"/>
     <use xlink:href="#m76c5eafc3a" x="134.310758" y="176.604749" style="fill: #4169e1; stroke: #ffffff; stroke-width: 0.8"/>
     <use xlink:href="#m76c5eafc3a" x="137.514375" y="210.296962" style="fill: #4169e1; stroke: #ffffff; stroke-width: 0.8"/>
     <use xlink:href="#m76c5eafc3a" x="99.28569" y="211.750363" style="fill: #4169e1; stroke: #ffffff; stroke-width: 0.8"/>
     <use xlink:href="#m76c5eafc3a" x="107.91827" y="190.763437" style="fill: #4169e1; stroke: #ffffff; stroke-width: 0.8"/>
     <use xlink:href="#m76c5eafc3a" x="49.467443" y="259.05157" style="fill: #4169e1; stroke: #ffffff; stroke-width: 0.8"/>
     <use xlink:href="#m76c5eafc3a" x="89.468545" y="242.140785" style="fill: #4169e1; stroke: #ffffff; stroke-width: 0.8"/>
     <use xlink:href="#m76c5eafc3a" x="150.242187" y="172.438611" style="fill: #4169e1; stroke: #ffffff; stroke-width: 0.8"/>
     <use xlink:href="#m76c5eafc3a" x="186.448389" y="89.705604" style="fill: #4169e1; stroke: #ffffff; stroke-width: 0.8"/>
     <use xlink:href="#m76c5eafc3a" x="155.595379" y="148.60569" style="fill: #4169e1; stroke: #ffffff; stroke-width: 0.8"/>
     <use xlink:href="#m76c5eafc3a" x="158.345378" y="199.757603" style="fill: #4169e1; stroke: #ffffff; stroke-width: 0.8"/>
     <use xlink:href="#m76c5eafc3a" x="202.609648" y="127.102164" style="fill: #4169e1; stroke: #ffffff; stroke-width: 0.8"/>
     <use xlink:href="#m76c5eafc3a" x="172.569441" y="90.262131" style="fill: #4169e1; stroke: #ffffff; stroke-width: 0.8"/>
     <use xlink:href="#m76c5eafc3a" x="168.490724" y="103.492811" style="fill: #4169e1; stroke: #ffffff; stroke-width: 0.8"/>
     <use xlink:href="#m76c5eafc3a" x="209.617762" y="144.109875" style="fill: #4169e1; stroke: #ffffff; stroke-width: 0.8"/>
     <use xlink:href="#m76c5eafc3a" x="109.752739" y="158.175567" style="fill: #4169e1; stroke: #ffffff; stroke-width: 0.8"/>
     <use xlink:href="#m76c5eafc3a" x="210.121943" y="89.777496" style="fill: #4169e1; stroke: #ffffff; stroke-width: 0.8"/>
    </g>
   </g>
   <g id="PolyCollection_1">
    <defs>
     <path id="m5c1e2be48b" d="M 49.467443 -131.887038 
L 49.467443 -63.669803 
L 51.132192 -65.36277 
L 52.79694 -67.180835 
L 54.461689 -68.704942 
L 56.126438 -70.446232 
L 57.791186 -71.957094 
L 59.455935 -73.467956 
L 61.120684 -75.070217 
L 62.785432 -76.696445 
L 64.450181 -78.328418 
L 66.11493 -79.957186 
L 67.779678 -81.370065 
L 69.444427 -83.068253 
L 71.109176 -84.677116 
L 72.773924 -86.080625 
L 74.438673 -87.494847 
L 76.103421 -89.339745 
L 77.76817 -91.184643 
L 79.432919 -92.961766 
L 81.097667 -94.422345 
L 82.762416 -95.749106 
L 84.427165 -97.075867 
L 86.091913 -98.892316 
L 87.756662 -100.368171 
L 89.421411 -101.66693 
L 91.086159 -103.029157 
L 92.750908 -104.413765 
L 94.415657 -105.833393 
L 96.080405 -107.116242 
L 97.745154 -108.401253 
L 99.409902 -109.656228 
L 101.074651 -110.964788 
L 102.7394 -112.262491 
L 104.404148 -113.525972 
L 106.068897 -114.646333 
L 107.733646 -115.571597 
L 109.398394 -116.814773 
L 111.063143 -118.075273 
L 112.727892 -119.3292 
L 114.39264 -120.456821 
L 116.057389 -121.752013 
L 117.722138 -123.138052 
L 119.386886 -124.296683 
L 121.051635 -125.372945 
L 122.716383 -126.639693 
L 124.381132 -127.756326 
L 126.045881 -128.740218 
L 127.710629 -130.063219 
L 129.375378 -131.122298 
L 131.040127 -131.908286 
L 132.704875 -132.854874 
L 134.369624 -133.621329 
L 136.034373 -134.969119 
L 137.699121 -136.292771 
L 139.36387 -137.327176 
L 141.028619 -138.190209 
L 142.693367 -138.907852 
L 144.358116 -139.632144 
L 146.022865 -140.737616 
L 147.687613 -141.655447 
L 149.352362 -142.561755 
L 151.01711 -143.572921 
L 152.681859 -144.90912 
L 154.346608 -145.787172 
L 156.011356 -146.744067 
L 157.676105 -147.614815 
L 159.340854 -148.622469 
L 161.005602 -149.301036 
L 162.670351 -149.894258 
L 164.3351 -150.774079 
L 165.999848 -151.388617 
L 167.664597 -152.159887 
L 169.329346 -152.896922 
L 170.994094 -153.806773 
L 172.658843 -154.447863 
L 174.323591 -155.24672 
L 175.98834 -156.050287 
L 177.653089 -156.84609 
L 179.317837 -157.648196 
L 180.982586 -158.452419 
L 182.647335 -159.256641 
L 184.312083 -160.060863 
L 185.976832 -160.861242 
L 187.641581 -161.501863 
L 189.306329 -162.138086 
L 190.971078 -162.75148 
L 192.635827 -163.370998 
L 194.300575 -163.707868 
L 195.965324 -164.33989 
L 197.630072 -165.280637 
L 199.294821 -166.060139 
L 200.95957 -166.883298 
L 202.624318 -167.570314 
L 204.289067 -167.897525 
L 205.953816 -168.531163 
L 207.618564 -169.402552 
L 209.283313 -170.297734 
L 210.948062 -171.171353 
L 212.61281 -171.694575 
L 214.277559 -172.217797 
L 214.277559 -231.208795 
L 214.277559 -231.208795 
L 212.61281 -229.486024 
L 210.948062 -227.968389 
L 209.283313 -226.525528 
L 207.618564 -225.078565 
L 205.953816 -223.275479 
L 204.289067 -221.777062 
L 202.624318 -220.276628 
L 200.95957 -218.771564 
L 199.294821 -217.137868 
L 197.630072 -215.775337 
L 195.965324 -214.208017 
L 194.300575 -212.465938 
L 192.635827 -210.78535 
L 190.971078 -209.310109 
L 189.306329 -207.834867 
L 187.641581 -206.359625 
L 185.976832 -204.884383 
L 184.312083 -203.364075 
L 182.647335 -201.909794 
L 180.982586 -200.382075 
L 179.317837 -198.826168 
L 177.653089 -197.269836 
L 175.98834 -195.718005 
L 174.323591 -194.165684 
L 172.658843 -192.711652 
L 170.994094 -191.380013 
L 169.329346 -190.051496 
L 167.664597 -188.573909 
L 165.999848 -187.125957 
L 164.3351 -185.773294 
L 162.670351 -184.225412 
L 161.005602 -182.802897 
L 159.340854 -181.331244 
L 157.676105 -180.136473 
L 156.011356 -178.542101 
L 154.346608 -177.215059 
L 152.681859 -175.938481 
L 151.01711 -174.449648 
L 149.352362 -172.882568 
L 147.687613 -171.352998 
L 146.022865 -170.504411 
L 144.358116 -169.3313 
L 142.693367 -168.316676 
L 141.028619 -167.431556 
L 139.36387 -166.041069 
L 137.699121 -164.834824 
L 136.034373 -163.895371 
L 134.369624 -163.068126 
L 132.704875 -162.464012 
L 131.040127 -161.632456 
L 129.375378 -160.802617 
L 127.710629 -159.932001 
L 126.045881 -158.946291 
L 124.381132 -157.964196 
L 122.716383 -156.848229 
L 121.051635 -155.924111 
L 119.386886 -155.140606 
L 117.722138 -154.620945 
L 116.057389 -153.844064 
L 114.39264 -152.793641 
L 112.727892 -152.219152 
L 111.063143 -151.468203 
L 109.398394 -150.781963 
L 107.733646 -150.686954 
L 106.068897 -149.974582 
L 104.404148 -149.25505 
L 102.7394 -148.594202 
L 101.074651 -148.273319 
L 99.409902 -147.947698 
L 97.745154 -147.622077 
L 96.080405 -147.296457 
L 94.415657 -146.658251 
L 92.750908 -146.00437 
L 91.086159 -145.35049 
L 89.421411 -144.689139 
L 87.756662 -144.219185 
L 86.091913 -143.765133 
L 84.427165 -143.31108 
L 82.762416 -142.857028 
L 81.097667 -142.341523 
L 79.432919 -141.963683 
L 77.76817 -141.514157 
L 76.103421 -140.699159 
L 74.438673 -139.906016 
L 72.773924 -139.572263 
L 71.109176 -139.23851 
L 69.444427 -138.904757 
L 67.779678 -138.571003 
L 66.11493 -138.234614 
L 64.450181 -137.672581 
L 62.785432 -137.096599 
L 61.120684 -136.494437 
L 59.455935 -135.882391 
L 57.791186 -135.253905 
L 56.126438 -134.649236 
L 54.461689 -133.888822 
L 52.79694 -133.077393 
L 51.132192 -132.378122 
L 49.467443 -131.887038 
z
" style="stroke: #ffffff; stroke-opacity: 0.15"/>
    </defs>
    <g clip-path="url(#p84ac9ad704)">
     <use xlink:href="#m5c1e2be48b" x="0" y="331.674375" style="fill: #4169e1; fill-opacity: 0.15; stroke: #ffffff; stroke-opacity: 0.15"/>
    </g>
   </g>
   <g id="PathCollection_2">
    <defs>
     <path id="m93fe750010" d="M 0 5 
C 1.326016 5 2.597899 4.473168 3.535534 3.535534 
C 4.473168 2.597899 5 1.326016 5 0 
C 5 -1.326016 4.473168 -2.597899 3.535534 -3.535534 
C 2.597899 -4.473168 1.326016 -5 0 -5 
C -1.326016 -5 -2.597899 -4.473168 -3.535534 -3.535534 
C -4.473168 -2.597899 -5 -1.326016 -5 0 
C -5 1.326016 -4.473168 2.597899 -3.535534 3.535534 
C -2.597899 4.473168 -1.326016 5 0 5 
z
" style="stroke: #ffffff; stroke-width: 0.8"/>
    </defs>
    <g clip-path="url(#p84ac9ad704)">
     <use xlink:href="#m93fe750010" x="260.668579" y="180.792302" style="fill: #b22222; stroke: #ffffff; stroke-width: 0.8"/>
     <use xlink:href="#m93fe750010" x="276.429572" y="187.183131" style="fill: #b22222; stroke: #ffffff; stroke-width: 0.8"/>
     <use xlink:href="#m93fe750010" x="275.988351" y="190.156406" style="fill: #b22222; stroke: #ffffff; stroke-width: 0.8"/>
     <use xlink:href="#m93fe750010" x="303.103807" y="197.521504" style="fill: #b22222; stroke: #ffffff; stroke-width: 0.8"/>
     <use xlink:href="#m93fe750010" x="273.975687" y="34.67267" style="fill: #b22222; stroke: #ffffff; stroke-width: 0.8"/>
     <use xlink:href="#m93fe750010" x="214.816012" y="151.280458" style="fill: #b22222; stroke: #ffffff; stroke-width: 0.8"/>
     <use xlink:href="#m93fe750010" x="234.415638" y="190.840169" style="fill: #b22222; stroke: #ffffff; stroke-width: 0.8"/>
     <use xlink:href="#m93fe750010" x="167.892818" y="198.005141" style="fill: #b22222; stroke: #ffffff; stroke-width: 0.8"/>
     <use xlink:href="#m93fe750010" x="185.114535" y="185.879839" style="fill: #b22222; stroke: #ffffff; stroke-width: 0.8"/>
     <use xlink:href="#m93fe750010" x="69.97144" y="258.893542" style="fill: #b22222; stroke: #ffffff; stroke-width: 0.8"/>
     <use xlink:href="#m93fe750010" x="131.312798" y="223.253866" style="fill: #b22222; stroke: #ffffff; stroke-width: 0.8"/>
     <use xlink:href="#m93fe750010" x="263.167273" y="189.429392" style="fill: #b22222; stroke: #ffffff; stroke-width: 0.8"/>
     <use xlink:href="#m93fe750010" x="286.760253" y="68.088037" style="fill: #b22222; stroke: #ffffff; stroke-width: 0.8"/>
     <use xlink:href="#m93fe750010" x="259.347393" y="151.695555" style="fill: #b22222; stroke: #ffffff; stroke-width: 0.8"/>
     <use xlink:href="#m93fe750010" x="279.566884" y="155.46574" style="fill: #b22222; stroke: #ffffff; stroke-width: 0.8"/>
     <use xlink:href="#m93fe750010" x="289.784789" y="107.348313" style="fill: #b22222; stroke: #ffffff; stroke-width: 0.8"/>
     <use xlink:href="#m93fe750010" x="283.709568" y="48.719524" style="fill: #b22222; stroke: #ffffff; stroke-width: 0.8"/>
     <use xlink:href="#m93fe750010" x="269.00678" y="101.455635" style="fill: #b22222; stroke: #ffffff; stroke-width: 0.8"/>
     <use xlink:href="#m93fe750010" x="270.990527" y="105.839304" style="fill: #b22222; stroke: #ffffff; stroke-width: 0.8"/>
     <use xlink:href="#m93fe750010" x="166.940397" y="136.469087" style="fill: #b22222; stroke: #ffffff; stroke-width: 0.8"/>
     <use xlink:href="#m93fe750010" x="277.883749" y="89.080336" style="fill: #b22222; stroke: #ffffff; stroke-width: 0.8"/>
    </g>
   </g>
   <g id="PolyCollection_2">
    <defs>
     <path id="m37ebeb6374" d="M 69.97144 -144.486419 
L 69.97144 -49.910795 
L 72.326312 -51.895615 
L 74.681185 -53.819789 
L 77.036057 -55.768912 
L 79.39093 -57.718035 
L 81.745802 -59.636473 
L 84.100674 -61.286767 
L 86.455547 -63.072735 
L 88.810419 -65.005229 
L 91.165292 -66.937722 
L 93.520164 -68.871765 
L 95.875036 -70.811003 
L 98.229909 -72.750635 
L 100.584781 -74.694817 
L 102.939654 -76.639964 
L 105.294526 -78.585111 
L 107.649398 -80.530258 
L 110.004271 -82.475406 
L 112.359143 -84.376119 
L 114.714016 -86.135393 
L 117.068888 -87.938542 
L 119.42376 -89.746562 
L 121.778633 -91.682735 
L 124.133505 -93.72801 
L 126.488377 -95.467669 
L 128.84325 -97.133239 
L 131.198122 -98.79881 
L 133.552995 -100.688312 
L 135.907867 -102.613644 
L 138.262739 -104.538975 
L 140.617612 -106.464307 
L 142.972484 -108.266663 
L 145.327357 -109.613624 
L 147.682229 -111.422719 
L 150.037101 -113.210327 
L 152.391974 -114.885986 
L 154.746846 -116.311096 
L 157.101719 -117.768585 
L 159.456591 -119.681275 
L 161.811463 -121.288053 
L 164.166336 -122.74385 
L 166.521208 -124.257857 
L 168.876081 -125.630947 
L 171.230953 -127.123058 
L 173.585825 -128.521548 
L 175.940698 -129.965855 
L 178.29557 -131.779526 
L 180.650442 -133.271265 
L 183.005315 -134.728258 
L 185.360187 -136.201902 
L 187.71506 -137.403376 
L 190.069932 -138.636486 
L 192.424804 -139.974809 
L 194.779677 -141.211965 
L 197.134549 -142.372107 
L 199.489422 -143.501877 
L 201.844294 -144.872728 
L 204.199166 -145.987683 
L 206.554039 -147.259982 
L 208.908911 -148.484891 
L 211.263784 -149.754572 
L 213.618656 -150.941882 
L 215.973528 -151.9832 
L 218.328401 -153.091629 
L 220.683273 -154.200713 
L 223.038146 -155.574065 
L 225.393018 -156.72706 
L 227.74789 -157.666266 
L 230.102763 -158.653984 
L 232.457635 -159.792671 
L 234.812507 -160.841943 
L 237.16738 -161.98116 
L 239.522252 -163.116774 
L 241.877125 -164.301937 
L 244.231997 -165.337874 
L 246.586869 -166.316962 
L 248.941742 -167.042224 
L 251.296614 -167.934258 
L 253.651487 -168.856387 
L 256.006359 -169.935086 
L 258.361231 -170.55261 
L 260.716104 -171.458398 
L 263.070976 -172.634332 
L 265.425849 -173.34963 
L 267.780721 -174.049374 
L 270.135593 -174.969549 
L 272.490466 -175.502556 
L 274.845338 -175.980047 
L 277.200211 -176.75149 
L 279.555083 -177.720953 
L 281.909955 -178.432449 
L 284.264828 -179.118785 
L 286.6197 -179.808328 
L 288.974572 -180.502248 
L 291.329445 -181.389884 
L 293.684317 -181.887326 
L 296.03919 -182.815099 
L 298.394062 -183.54695 
L 300.748934 -184.071533 
L 303.103807 -184.650328 
L 303.103807 -249.80263 
L 303.103807 -249.80263 
L 300.748934 -248.230714 
L 298.394062 -246.658798 
L 296.03919 -244.801986 
L 293.684317 -242.921613 
L 291.329445 -241.037737 
L 288.974572 -239.153861 
L 286.6197 -237.354186 
L 284.264828 -235.402817 
L 281.909955 -233.512918 
L 279.555083 -231.631024 
L 277.200211 -229.749129 
L 274.845338 -227.963902 
L 272.490466 -226.023356 
L 270.135593 -224.401397 
L 267.780721 -222.525046 
L 265.425849 -220.77 
L 263.070976 -218.894491 
L 260.716104 -217.013336 
L 258.361231 -215.13218 
L 256.006359 -213.72635 
L 253.651487 -211.663359 
L 251.296614 -209.588838 
L 248.941742 -208.044663 
L 246.586869 -206.145603 
L 244.231997 -204.467646 
L 241.877125 -202.651789 
L 239.522252 -200.672653 
L 237.16738 -198.981985 
L 234.812507 -197.299476 
L 232.457635 -195.641141 
L 230.102763 -194.22207 
L 227.74789 -192.631852 
L 225.393018 -191.860995 
L 223.038146 -190.684464 
L 220.683273 -189.280763 
L 218.328401 -187.9628 
L 215.973528 -186.879612 
L 213.618656 -185.639776 
L 211.263784 -184.589889 
L 208.908911 -183.170436 
L 206.554039 -181.741056 
L 204.199166 -180.301546 
L 201.844294 -179.698246 
L 199.489422 -178.603697 
L 197.134549 -177.361149 
L 194.779677 -176.424698 
L 192.424804 -175.81551 
L 190.069932 -174.72353 
L 187.71506 -173.963486 
L 185.360187 -172.872492 
L 183.005315 -172.072705 
L 180.650442 -171.42093 
L 178.29557 -170.763632 
L 175.940698 -170.100961 
L 173.585825 -169.438291 
L 171.230953 -168.903147 
L 168.876081 -168.141548 
L 166.521208 -167.453486 
L 164.166336 -166.786622 
L 161.811463 -166.138436 
L 159.456591 -165.20675 
L 157.101719 -164.676098 
L 154.746846 -164.154155 
L 152.391974 -163.499214 
L 150.037101 -162.844273 
L 147.682229 -162.189332 
L 145.327357 -161.534391 
L 142.972484 -160.879449 
L 140.617612 -160.474651 
L 138.262739 -160.163302 
L 135.907867 -159.851953 
L 133.552995 -159.532985 
L 131.198122 -158.931849 
L 128.84325 -158.49105 
L 126.488377 -158.114301 
L 124.133505 -157.515362 
L 121.778633 -156.73159 
L 119.42376 -155.907706 
L 117.068888 -154.861919 
L 114.714016 -154.374564 
L 112.359143 -153.599866 
L 110.004271 -152.861665 
L 107.649398 -152.369613 
L 105.294526 -151.871673 
L 102.939654 -151.55212 
L 100.584781 -150.886644 
L 98.229909 -150.400028 
L 95.875036 -149.913413 
L 93.520164 -149.426797 
L 91.165292 -148.940182 
L 88.810419 -148.449978 
L 86.455547 -147.954533 
L 84.100674 -147.459088 
L 81.745802 -146.963643 
L 79.39093 -146.468198 
L 77.036057 -145.972754 
L 74.681185 -145.477309 
L 72.326312 -144.981864 
L 69.97144 -144.486419 
z
" style="stroke: #ffffff; stroke-opacity: 0.15"/>
    </defs>
    <g clip-path="url(#p84ac9ad704)">
     <use xlink:href="#m37ebeb6374" x="0" y="331.674375" style="fill: #b22222; fill-opacity: 0.15; stroke: #ffffff; stroke-opacity: 0.15"/>
    </g>
   </g>
   <g id="line2d_12">
    <path d="M 49.467443 242.239767 
L 51.132192 241.102188 
L 52.79694 239.96461 
L 54.461689 238.827032 
L 56.126438 237.689454 
L 57.791186 236.551876 
L 59.455935 235.414298 
L 61.120684 234.27672 
L 62.785432 233.139142 
L 64.450181 232.001564 
L 66.11493 230.863986 
L 67.779678 229.726408 
L 69.444427 228.58883 
L 71.109176 227.451252 
L 72.773924 226.313674 
L 74.438673 225.176096 
L 76.103421 224.038518 
L 77.76817 222.90094 
L 79.432919 221.763362 
L 81.097667 220.625784 
L 82.762416 219.488206 
L 84.427165 218.350628 
L 86.091913 217.213049 
L 87.756662 216.075471 
L 89.421411 214.937893 
L 91.086159 213.800315 
L 92.750908 212.662737 
L 94.415657 211.525159 
L 96.080405 210.387581 
L 97.745154 209.250003 
L 99.409902 208.112425 
L 101.074651 206.974847 
L 102.7394 205.837269 
L 104.404148 204.699691 
L 106.068897 203.562113 
L 107.733646 202.424535 
L 109.398394 201.286957 
L 111.063143 200.149379 
L 112.727892 199.011801 
L 114.39264 197.874223 
L 116.057389 196.736645 
L 117.722138 195.599067 
L 119.386886 194.461488 
L 121.051635 193.32391 
L 122.716383 192.186332 
L 124.381132 191.048754 
L 126.045881 189.911176 
L 127.710629 188.773598 
L 129.375378 187.63602 
L 131.040127 186.498442 
L 132.704875 185.360864 
L 134.369624 184.223286 
L 136.034373 183.085708 
L 137.699121 181.94813 
L 139.36387 180.810552 
L 141.028619 179.672974 
L 142.693367 178.535396 
L 144.358116 177.397818 
L 146.022865 176.26024 
L 147.687613 175.122662 
L 149.352362 173.985084 
L 151.01711 172.847506 
L 152.681859 171.709928 
L 154.346608 170.572349 
L 156.011356 169.434771 
L 157.676105 168.297193 
L 159.340854 167.159615 
L 161.005602 166.022037 
L 162.670351 164.884459 
L 164.3351 163.746881 
L 165.999848 162.609303 
L 167.664597 161.471725 
L 169.329346 160.334147 
L 170.994094 159.196569 
L 172.658843 158.058991 
L 174.323591 156.921413 
L 175.98834 155.783835 
L 177.653089 154.646257 
L 179.317837 153.508679 
L 180.982586 152.371101 
L 182.647335 151.233523 
L 184.312083 150.095945 
L 185.976832 148.958367 
L 187.641581 147.820788 
L 189.306329 146.68321 
L 190.971078 145.545632 
L 192.635827 144.408054 
L 194.300575 143.270476 
L 195.965324 142.132898 
L 197.630072 140.99532 
L 199.294821 139.857742 
L 200.95957 138.720164 
L 202.624318 137.582586 
L 204.289067 136.445008 
L 205.953816 135.30743 
L 207.618564 134.169852 
L 209.283313 133.032274 
L 210.948062 131.894696 
L 212.61281 130.757118 
L 214.277559 129.61954 
" clip-path="url(#p84ac9ad704)" style="fill: none; stroke: #4169e1; stroke-width: 2.25; stroke-linecap: round"/>
   </g>
   <g id="line2d_13">
    <path d="M 69.97144 246.993067 
L 72.326312 245.651409 
L 74.681185 244.309752 
L 77.036057 242.968095 
L 79.39093 241.626437 
L 81.745802 240.28478 
L 84.100674 238.943122 
L 86.455547 237.601465 
L 88.810419 236.259808 
L 91.165292 234.91815 
L 93.520164 233.576493 
L 95.875036 232.234835 
L 98.229909 230.893178 
L 100.584781 229.551521 
L 102.939654 228.209863 
L 105.294526 226.868206 
L 107.649398 225.526549 
L 110.004271 224.184891 
L 112.359143 222.843234 
L 114.714016 221.501576 
L 117.068888 220.159919 
L 119.42376 218.818262 
L 121.778633 217.476604 
L 124.133505 216.134947 
L 126.488377 214.793289 
L 128.84325 213.451632 
L 131.198122 212.109975 
L 133.552995 210.768317 
L 135.907867 209.42666 
L 138.262739 208.085003 
L 140.617612 206.743345 
L 142.972484 205.401688 
L 145.327357 204.06003 
L 147.682229 202.718373 
L 150.037101 201.376716 
L 152.391974 200.035058 
L 154.746846 198.693401 
L 157.101719 197.351743 
L 159.456591 196.010086 
L 161.811463 194.668429 
L 164.166336 193.326771 
L 166.521208 191.985114 
L 168.876081 190.643457 
L 171.230953 189.301799 
L 173.585825 187.960142 
L 175.940698 186.618484 
L 178.29557 185.276827 
L 180.650442 183.93517 
L 183.005315 182.593512 
L 185.360187 181.251855 
L 187.71506 179.910197 
L 190.069932 178.56854 
L 192.424804 177.226883 
L 194.779677 175.885225 
L 197.134549 174.543568 
L 199.489422 173.20191 
L 201.844294 171.860253 
L 204.199166 170.518596 
L 206.554039 169.176938 
L 208.908911 167.835281 
L 211.263784 166.493624 
L 213.618656 165.151966 
L 215.973528 163.810309 
L 218.328401 162.468651 
L 220.683273 161.126994 
L 223.038146 159.785337 
L 225.393018 158.443679 
L 227.74789 157.102022 
L 230.102763 155.760364 
L 232.457635 154.418707 
L 234.812507 153.07705 
L 237.16738 151.735392 
L 239.522252 150.393735 
L 241.877125 149.052078 
L 244.231997 147.71042 
L 246.586869 146.368763 
L 248.941742 145.027105 
L 251.296614 143.685448 
L 253.651487 142.343791 
L 256.006359 141.002133 
L 258.361231 139.660476 
L 260.716104 138.318818 
L 263.070976 136.977161 
L 265.425849 135.635504 
L 267.780721 134.293846 
L 270.135593 132.952189 
L 272.490466 131.610531 
L 274.845338 130.268874 
L 277.200211 128.927217 
L 279.555083 127.585559 
L 281.909955 126.243902 
L 284.264828 124.902245 
L 286.6197 123.560587 
L 288.974572 122.21893 
L 291.329445 120.877272 
L 293.684317 119.535615 
L 296.03919 118.193958 
L 298.394062 116.8523 
L 300.748934 115.510643 
L 303.103807 114.168985 
" clip-path="url(#p84ac9ad704)" style="fill: none; stroke: #b22222; stroke-width: 2.25; stroke-linecap: round"/>
   </g>
   <g id="patch_3">
    <path d="M 36.785625 294.118125 
L 36.785625 22.318125 
" style="fill: none; stroke: #ffffff; stroke-width: 0.8; stroke-linejoin: miter; stroke-linecap: square"/>
   </g>
   <g id="patch_4">
    <path d="M 315.785625 294.118125 
L 315.785625 22.318125 
" style="fill: none; stroke: #ffffff; stroke-width: 0.8; stroke-linejoin: miter; stroke-linecap: square"/>
   </g>
   <g id="patch_5">
    <path d="M 36.785625 294.118125 
L 315.785625 294.118125 
" style="fill: none; stroke: #ffffff; stroke-width: 0.8; stroke-linejoin: miter; stroke-linecap: square"/>
   </g>
   <g id="patch_6">
    <path d="M 36.785625 22.318125 
L 315.785625 22.318125 
" style="fill: none; stroke: #ffffff; stroke-width: 0.8; stroke-linejoin: miter; stroke-linecap: square"/>
   </g>
   <g id="text_14">
    <!-- Total hmCG vs RNA expression -->
    <g style="fill: #262626" transform="translate(84.359063 16.318125)scale(0.12 -0.12)">
     <defs>
      <path id="DejaVuSans-54" d="M -19 4666 
L 3928 4666 
L 3928 4134 
L 2272 4134 
L 2272 0 
L 1638 0 
L 1638 4134 
L -19 4134 
L -19 4666 
z
" transform="scale(0.015625)"/>
      <path id="DejaVuSans-6f" d="M 1959 3097 
Q 1497 3097 1228 2736 
Q 959 2375 959 1747 
Q 959 1119 1226 758 
Q 1494 397 1959 397 
Q 2419 397 2687 759 
Q 2956 1122 2956 1747 
Q 2956 2369 2687 2733 
Q 2419 3097 1959 3097 
z
M 1959 3584 
Q 2709 3584 3137 3096 
Q 3566 2609 3566 1747 
Q 3566 888 3137 398 
Q 2709 -91 1959 -91 
Q 1206 -91 779 398 
Q 353 888 353 1747 
Q 353 2609 779 3096 
Q 1206 3584 1959 3584 
z
" transform="scale(0.015625)"/>
      <path id="DejaVuSans-74" d="M 1172 4494 
L 1172 3500 
L 2356 3500 
L 2356 3053 
L 1172 3053 
L 1172 1153 
Q 1172 725 1289 603 
Q 1406 481 1766 481 
L 2356 481 
L 2356 0 
L 1766 0 
Q 1100 0 847 248 
Q 594 497 594 1153 
L 594 3053 
L 172 3053 
L 172 3500 
L 594 3500 
L 594 4494 
L 1172 4494 
z
" transform="scale(0.015625)"/>
      <path id="DejaVuSans-61" d="M 2194 1759 
Q 1497 1759 1228 1600 
Q 959 1441 959 1056 
Q 959 750 1161 570 
Q 1363 391 1709 391 
Q 2188 391 2477 730 
Q 2766 1069 2766 1631 
L 2766 1759 
L 2194 1759 
z
M 3341 1997 
L 3341 0 
L 2766 0 
L 2766 531 
Q 2569 213 2275 61 
Q 1981 -91 1556 -91 
Q 1019 -91 701 211 
Q 384 513 384 1019 
Q 384 1609 779 1909 
Q 1175 2209 1959 2209 
L 2766 2209 
L 2766 2266 
Q 2766 2663 2505 2880 
Q 2244 3097 1772 3097 
Q 1472 3097 1187 3025 
Q 903 2953 641 2809 
L 641 3341 
Q 956 3463 1253 3523 
Q 1550 3584 1831 3584 
Q 2591 3584 2966 3190 
Q 3341 2797 3341 1997 
z
" transform="scale(0.015625)"/>
      <path id="DejaVuSans-6c" d="M 603 4863 
L 1178 4863 
L 1178 0 
L 603 0 
L 603 4863 
z
" transform="scale(0.015625)"/>
      <path id="DejaVuSans-20" transform="scale(0.015625)"/>
      <path id="DejaVuSans-76" d="M 191 3500 
L 800 3500 
L 1894 563 
L 2988 3500 
L 3597 3500 
L 2284 0 
L 1503 0 
L 191 3500 
z
" transform="scale(0.015625)"/>
      <path id="DejaVuSans-73" d="M 2834 3397 
L 2834 2853 
Q 2591 2978 2328 3040 
Q 2066 3103 1784 3103 
Q 1356 3103 1142 2972 
Q 928 2841 928 2578 
Q 928 2378 1081 2264 
Q 1234 2150 1697 2047 
L 1894 2003 
Q 2506 1872 2764 1633 
Q 3022 1394 3022 966 
Q 3022 478 2636 193 
Q 2250 -91 1575 -91 
Q 1294 -91 989 -36 
Q 684 19 347 128 
L 347 722 
Q 666 556 975 473 
Q 1284 391 1588 391 
Q 1994 391 2212 530 
Q 2431 669 2431 922 
Q 2431 1156 2273 1281 
Q 2116 1406 1581 1522 
L 1381 1569 
Q 847 1681 609 1914 
Q 372 2147 372 2553 
Q 372 3047 722 3315 
Q 1072 3584 1716 3584 
Q 2034 3584 2315 3537 
Q 2597 3491 2834 3397 
z
" transform="scale(0.015625)"/>
      <path id="DejaVuSans-65" d="M 3597 1894 
L 3597 1613 
L 953 1613 
Q 991 1019 1311 708 
Q 1631 397 2203 397 
Q 2534 397 2845 478 
Q 3156 559 3463 722 
L 3463 178 
Q 3153 47 2828 -22 
Q 2503 -91 2169 -91 
Q 1331 -91 842 396 
Q 353 884 353 1716 
Q 353 2575 817 3079 
Q 1281 3584 2069 3584 
Q 2775 3584 3186 3129 
Q 3597 2675 3597 1894 
z
M 3022 2063 
Q 3016 2534 2758 2815 
Q 2500 3097 2075 3097 
Q 1594 3097 1305 2825 
Q 1016 2553 972 2059 
L 3022 2063 
z
" transform="scale(0.015625)"/>
      <path id="DejaVuSans-78" d="M 3513 3500 
L 2247 1797 
L 3578 0 
L 2900 0 
L 1881 1375 
L 863 0 
L 184 0 
L 1544 1831 
L 300 3500 
L 978 3500 
L 1906 2253 
L 2834 3500 
L 3513 3500 
z
" transform="scale(0.015625)"/>
      <path id="DejaVuSans-70" d="M 1159 525 
L 1159 -1331 
L 581 -1331 
L 581 3500 
L 1159 3500 
L 1159 2969 
Q 1341 3281 1617 3432 
Q 1894 3584 2278 3584 
Q 2916 3584 3314 3078 
Q 3713 2572 3713 1747 
Q 3713 922 3314 415 
Q 2916 -91 2278 -91 
Q 1894 -91 1617 61 
Q 1341 213 1159 525 
z
M 3116 1747 
Q 3116 2381 2855 2742 
Q 2594 3103 2138 3103 
Q 1681 3103 1420 2742 
Q 1159 2381 1159 1747 
Q 1159 1113 1420 752 
Q 1681 391 2138 391 
Q 2594 391 2855 752 
Q 3116 1113 3116 1747 
z
" transform="scale(0.015625)"/>
      <path id="DejaVuSans-72" d="M 2631 2963 
Q 2534 3019 2420 3045 
Q 2306 3072 2169 3072 
Q 1681 3072 1420 2755 
Q 1159 2438 1159 1844 
L 1159 0 
L 581 0 
L 581 3500 
L 1159 3500 
L 1159 2956 
Q 1341 3275 1631 3429 
Q 1922 3584 2338 3584 
Q 2397 3584 2469 3576 
Q 2541 3569 2628 3553 
L 2631 2963 
z
" transform="scale(0.015625)"/>
      <path id="DejaVuSans-69" d="M 603 3500 
L 1178 3500 
L 1178 0 
L 603 0 
L 603 3500 
z
M 603 4863 
L 1178 4863 
L 1178 4134 
L 603 4134 
L 603 4863 
z
" transform="scale(0.015625)"/>
      <path id="DejaVuSans-6e" d="M 3513 2113 
L 3513 0 
L 2938 0 
L 2938 2094 
Q 2938 2591 2744 2837 
Q 2550 3084 2163 3084 
Q 1697 3084 1428 2787 
Q 1159 2491 1159 1978 
L 1159 0 
L 581 0 
L 581 3500 
L 1159 3500 
L 1159 2956 
Q 1366 3272 1645 3428 
Q 1925 3584 2291 3584 
Q 2894 3584 3203 3211 
Q 3513 2838 3513 2113 
z
" transform="scale(0.015625)"/>
     </defs>
     <use xlink:href="#DejaVuSans-54"/>
     <use xlink:href="#DejaVuSans-6f" x="44.083984"/>
     <use xlink:href="#DejaVuSans-74" x="105.265625"/>
     <use xlink:href="#DejaVuSans-61" x="144.474609"/>
     <use xlink:href="#DejaVuSans-6c" x="205.753906"/>
     <use xlink:href="#DejaVuSans-20" x="233.537109"/>
     <use xlink:href="#DejaVuSans-68" x="265.324219"/>
     <use xlink:href="#DejaVuSans-6d" x="328.703125"/>
     <use xlink:href="#DejaVuSans-43" x="426.115234"/>
     <use xlink:href="#DejaVuSans-47" x="495.939453"/>
     <use xlink:href="#DejaVuSans-20" x="573.429688"/>
     <use xlink:href="#DejaVuSans-76" x="605.216797"/>
     <use xlink:href="#DejaVuSans-73" x="664.396484"/>
     <use xlink:href="#DejaVuSans-20" x="716.496094"/>
     <use xlink:href="#DejaVuSans-52" x="748.283203"/>
     <use xlink:href="#DejaVuSans-4e" x="817.765625"/>
     <use xlink:href="#DejaVuSans-41" x="892.570312"/>
     <use xlink:href="#DejaVuSans-20" x="960.978516"/>
     <use xlink:href="#DejaVuSans-65" x="992.765625"/>
     <use xlink:href="#DejaVuSans-78" x="1052.539062"/>
     <use xlink:href="#DejaVuSans-70" x="1111.71875"/>
     <use xlink:href="#DejaVuSans-72" x="1175.195312"/>
     <use xlink:href="#DejaVuSans-65" x="1214.058594"/>
     <use xlink:href="#DejaVuSans-73" x="1275.582031"/>
     <use xlink:href="#DejaVuSans-73" x="1327.681641"/>
     <use xlink:href="#DejaVuSans-69" x="1379.78125"/>
     <use xlink:href="#DejaVuSans-6f" x="1407.564453"/>
     <use xlink:href="#DejaVuSans-6e" x="1468.746094"/>
    </g>
   </g>
   <g id="legend_1">
    <g id="patch_7">
     <path d="M 43.785625 59.674375 
L 104.07625 59.674375 
Q 106.07625 59.674375 106.07625 57.674375 
L 106.07625 29.318125 
Q 106.07625 27.318125 104.07625 27.318125 
L 43.785625 27.318125 
Q 41.785625 27.318125 41.785625 29.318125 
L 41.785625 57.674375 
Q 41.785625 59.674375 43.785625 59.674375 
z
" style="fill: #eaeaf2; opacity: 0.8; stroke: #cccccc; stroke-linejoin: miter"/>
    </g>
    <g id="PathCollection_3">
     <g>
      <use xlink:href="#m76c5eafc3a" x="55.785625" y="36.291562" style="fill: #4169e1; stroke: #ffffff; stroke-width: 0.8"/>
     </g>
    </g>
    <g id="text_15">
     <!-- GABA -->
     <g style="fill: #262626" transform="translate(73.785625 38.916562)scale(0.1 -0.1)">
      <defs>
       <path id="DejaVuSans-42" d="M 1259 2228 
L 1259 519 
L 2272 519 
Q 2781 519 3026 730 
Q 3272 941 3272 1375 
Q 3272 1813 3026 2020 
Q 2781 2228 2272 2228 
L 1259 2228 
z
M 1259 4147 
L 1259 2741 
L 2194 2741 
Q 2656 2741 2882 2914 
Q 3109 3088 3109 3444 
Q 3109 3797 2882 3972 
Q 2656 4147 2194 4147 
L 1259 4147 
z
M 628 4666 
L 2241 4666 
Q 2963 4666 3353 4366 
Q 3744 4066 3744 3513 
Q 3744 3084 3544 2831 
Q 3344 2578 2956 2516 
Q 3422 2416 3680 2098 
Q 3938 1781 3938 1306 
Q 3938 681 3513 340 
Q 3088 0 2303 0 
L 628 0 
L 628 4666 
z
" transform="scale(0.015625)"/>
      </defs>
      <use xlink:href="#DejaVuSans-47"/>
      <use xlink:href="#DejaVuSans-41" x="77.490234"/>
      <use xlink:href="#DejaVuSans-42" x="145.898438"/>
      <use xlink:href="#DejaVuSans-41" x="214.501953"/>
     </g>
    </g>
    <g id="PathCollection_4">
     <g>
      <use xlink:href="#m93fe750010" x="55.785625" y="50.969688" style="fill: #b22222; stroke: #ffffff; stroke-width: 0.8"/>
     </g>
    </g>
    <g id="text_16">
     <!-- Glu -->
     <g style="fill: #262626" transform="translate(73.785625 53.594688)scale(0.1 -0.1)">
      <defs>
       <path id="DejaVuSans-75" d="M 544 1381 
L 544 3500 
L 1119 3500 
L 1119 1403 
Q 1119 906 1312 657 
Q 1506 409 1894 409 
Q 2359 409 2629 706 
Q 2900 1003 2900 1516 
L 2900 3500 
L 3475 3500 
L 3475 0 
L 2900 0 
L 2900 538 
Q 2691 219 2414 64 
Q 2138 -91 1772 -91 
Q 1169 -91 856 284 
Q 544 659 544 1381 
z
M 1991 3584 
L 1991 3584 
z
" transform="scale(0.015625)"/>
      </defs>
      <use xlink:href="#DejaVuSans-47"/>
      <use xlink:href="#DejaVuSans-6c" x="77.490234"/>
      <use xlink:href="#DejaVuSans-75" x="105.273438"/>
     </g>
    </g>
   </g>
  </g>
 </g>
 <defs>
  <clipPath id="p84ac9ad704">
   <rect x="36.785625" y="22.318125" width="279" height="271.8"/>
  </clipPath>
 </defs>
</svg>
