<?xml version="1.0" encoding="utf-8" standalone="no"?>
<!DOCTYPE svg PUBLIC "-//W3C//DTD SVG 1.1//EN"
  "http://www.w3.org/Graphics/SVG/1.1/DTD/svg11.dtd">
<svg xmlns:xlink="http://www.w3.org/1999/xlink" width="346.207187pt" height="331.674375pt" viewBox="0 0 346.207187 331.674375" xmlns="http://www.w3.org/2000/svg" version="1.1">
 <metadata>
  <rdf:RDF xmlns:dc="http://purl.org/dc/elements/1.1/" xmlns:cc="http://creativecommons.org/ns#" xmlns:rdf="http://www.w3.org/1999/02/22-rdf-syntax-ns#">
   <cc:Work>
    <dc:type rdf:resource="http://purl.org/dc/dcmitype/StillImage"/>
    <dc:date>2023-09-13T15:16:18.671818</dc:date>
    <dc:format>image/svg+xml</dc:format>
    <dc:creator>
     <cc:Agent>
      <dc:title>Matplotlib v3.5.1, https://matplotlib.org/</dc:title>
     </cc:Agent>
    </dc:creator>
   </cc:Work>
  </rdf:RDF>
 </metadata>
 <defs>
  <style type="text/css">*{stroke-linejoin: round; stroke-linecap: butt}</style>
 </defs>
 <g id="figure_1">
  <g id="patch_1">
   <path d="M 0 331.674375 
L 346.207187 331.674375 
L 346.207187 0 
L 0 0 
z
" style="fill: #ffffff"/>
  </g>
  <g id="axes_1">
   <g id="patch_2">
    <path d="M 45.693125 294.118125 
L 324.693125 294.118125 
L 324.693125 22.318125 
L 45.693125 22.318125 
z
" style="fill: #eaeaf2"/>
   </g>
   <g id="matplotlib.axis_1">
    <g id="xtick_1">
     <g id="line2d_1">
      <path d="M 45.693125 294.118125 
L 45.693125 22.318125 
" clip-path="url(#pc15983d475)" style="fill: none; stroke: #ffffff; stroke-width: 0.8; stroke-linecap: round"/>
     </g>
     <g id="text_1">
      <!-- −0.002 -->
      <g style="fill: #262626" transform="translate(27.189219 308.716563)scale(0.1 -0.1)">
       <defs>
        <path id="DejaVuSans-2212" d="M 678 2272 
L 4684 2272 
L 4684 1741 
L 678 1741 
L 678 2272 
z
" transform="scale(0.015625)"/>
        <path id="DejaVuSans-30" d="M 2034 4250 
Q 1547 4250 1301 3770 
Q 1056 3291 1056 2328 
Q 1056 1369 1301 889 
Q 1547 409 2034 409 
Q 2525 409 2770 889 
Q 3016 1369 3016 2328 
Q 3016 3291 2770 3770 
Q 2525 4250 2034 4250 
z
M 2034 4750 
Q 2819 4750 3233 4129 
Q 3647 3509 3647 2328 
Q 3647 1150 3233 529 
Q 2819 -91 2034 -91 
Q 1250 -91 836 529 
Q 422 1150 422 2328 
Q 422 3509 836 4129 
Q 1250 4750 2034 4750 
z
" transform="scale(0.015625)"/>
        <path id="DejaVuSans-2e" d="M 684 794 
L 1344 794 
L 1344 0 
L 684 0 
L 684 794 
z
" transform="scale(0.015625)"/>
        <path id="DejaVuSans-32" d="M 1228 531 
L 3431 531 
L 3431 0 
L 469 0 
L 469 531 
Q 828 903 1448 1529 
Q 2069 2156 2228 2338 
Q 2531 2678 2651 2914 
Q 2772 3150 2772 3378 
Q 2772 3750 2511 3984 
Q 2250 4219 1831 4219 
Q 1534 4219 1204 4116 
Q 875 4013 500 3803 
L 500 4441 
Q 881 4594 1212 4672 
Q 1544 4750 1819 4750 
Q 2544 4750 2975 4387 
Q 3406 4025 3406 3419 
Q 3406 3131 3298 2873 
Q 3191 2616 2906 2266 
Q 2828 2175 2409 1742 
Q 1991 1309 1228 531 
z
" transform="scale(0.015625)"/>
       </defs>
       <use xlink:href="#DejaVuSans-2212"/>
       <use xlink:href="#DejaVuSans-30" x="83.789062"/>
       <use xlink:href="#DejaVuSans-2e" x="147.412109"/>
       <use xlink:href="#DejaVuSans-30" x="179.199219"/>
       <use xlink:href="#DejaVuSans-30" x="242.822266"/>
       <use xlink:href="#DejaVuSans-32" x="306.445312"/>
      </g>
     </g>
    </g>
    <g id="xtick_2">
     <g id="line2d_2">
      <path d="M 101.493125 294.118125 
L 101.493125 22.318125 
" clip-path="url(#pc15983d475)" style="fill: none; stroke: #ffffff; stroke-width: 0.8; stroke-linecap: round"/>
     </g>
     <g id="text_2">
      <!-- −0.001 -->
      <g style="fill: #262626" transform="translate(82.989219 308.716563)scale(0.1 -0.1)">
       <defs>
        <path id="DejaVuSans-31" d="M 794 531 
L 1825 531 
L 1825 4091 
L 703 3866 
L 703 4441 
L 1819 4666 
L 2450 4666 
L 2450 531 
L 3481 531 
L 3481 0 
L 794 0 
L 794 531 
z
" transform="scale(0.015625)"/>
       </defs>
       <use xlink:href="#DejaVuSans-2212"/>
       <use xlink:href="#DejaVuSans-30" x="83.789062"/>
       <use xlink:href="#DejaVuSans-2e" x="147.412109"/>
       <use xlink:href="#DejaVuSans-30" x="179.199219"/>
       <use xlink:href="#DejaVuSans-30" x="242.822266"/>
       <use xlink:href="#DejaVuSans-31" x="306.445312"/>
      </g>
     </g>
    </g>
    <g id="xtick_3">
     <g id="line2d_3">
      <path d="M 157.293125 294.118125 
L 157.293125 22.318125 
" clip-path="url(#pc15983d475)" style="fill: none; stroke: #ffffff; stroke-width: 0.8; stroke-linecap: round"/>
     </g>
     <g id="text_3">
      <!-- 0.000 -->
      <g style="fill: #262626" transform="translate(142.979062 308.716563)scale(0.1 -0.1)">
       <use xlink:href="#DejaVuSans-30"/>
       <use xlink:href="#DejaVuSans-2e" x="63.623047"/>
       <use xlink:href="#DejaVuSans-30" x="95.410156"/>
       <use xlink:href="#DejaVuSans-30" x="159.033203"/>
       <use xlink:href="#DejaVuSans-30" x="222.65625"/>
      </g>
     </g>
    </g>
    <g id="xtick_4">
     <g id="line2d_4">
      <path d="M 213.093125 294.118125 
L 213.093125 22.318125 
" clip-path="url(#pc15983d475)" style="fill: none; stroke: #ffffff; stroke-width: 0.8; stroke-linecap: round"/>
     </g>
     <g id="text_4">
      <!-- 0.001 -->
      <g style="fill: #262626" transform="translate(198.779063 308.716563)scale(0.1 -0.1)">
       <use xlink:href="#DejaVuSans-30"/>
       <use xlink:href="#DejaVuSans-2e" x="63.623047"/>
       <use xlink:href="#DejaVuSans-30" x="95.410156"/>
       <use xlink:href="#DejaVuSans-30" x="159.033203"/>
       <use xlink:href="#DejaVuSans-31" x="222.65625"/>
      </g>
     </g>
    </g>
    <g id="xtick_5">
     <g id="line2d_5">
      <path d="M 268.893125 294.118125 
L 268.893125 22.318125 
" clip-path="url(#pc15983d475)" style="fill: none; stroke: #ffffff; stroke-width: 0.8; stroke-linecap: round"/>
     </g>
     <g id="text_5">
      <!-- 0.002 -->
      <g style="fill: #262626" transform="translate(254.579062 308.716563)scale(0.1 -0.1)">
       <use xlink:href="#DejaVuSans-30"/>
       <use xlink:href="#DejaVuSans-2e" x="63.623047"/>
       <use xlink:href="#DejaVuSans-30" x="95.410156"/>
       <use xlink:href="#DejaVuSans-30" x="159.033203"/>
       <use xlink:href="#DejaVuSans-32" x="222.65625"/>
      </g>
     </g>
    </g>
    <g id="xtick_6">
     <g id="line2d_6">
      <path d="M 324.693125 294.118125 
L 324.693125 22.318125 
" clip-path="url(#pc15983d475)" style="fill: none; stroke: #ffffff; stroke-width: 0.8; stroke-linecap: round"/>
     </g>
     <g id="text_6">
      <!-- 0.003 -->
      <g style="fill: #262626" transform="translate(310.379063 308.716563)scale(0.1 -0.1)">
       <defs>
        <path id="DejaVuSans-33" d="M 2597 2516 
Q 3050 2419 3304 2112 
Q 3559 1806 3559 1356 
Q 3559 666 3084 287 
Q 2609 -91 1734 -91 
Q 1441 -91 1130 -33 
Q 819 25 488 141 
L 488 750 
Q 750 597 1062 519 
Q 1375 441 1716 441 
Q 2309 441 2620 675 
Q 2931 909 2931 1356 
Q 2931 1769 2642 2001 
Q 2353 2234 1838 2234 
L 1294 2234 
L 1294 2753 
L 1863 2753 
Q 2328 2753 2575 2939 
Q 2822 3125 2822 3475 
Q 2822 3834 2567 4026 
Q 2313 4219 1838 4219 
Q 1578 4219 1281 4162 
Q 984 4106 628 3988 
L 628 4550 
Q 988 4650 1302 4700 
Q 1616 4750 1894 4750 
Q 2613 4750 3031 4423 
Q 3450 4097 3450 3541 
Q 3450 3153 3228 2886 
Q 3006 2619 2597 2516 
z
" transform="scale(0.015625)"/>
       </defs>
       <use xlink:href="#DejaVuSans-30"/>
       <use xlink:href="#DejaVuSans-2e" x="63.623047"/>
       <use xlink:href="#DejaVuSans-30" x="95.410156"/>
       <use xlink:href="#DejaVuSans-30" x="159.033203"/>
       <use xlink:href="#DejaVuSans-33" x="222.65625"/>
      </g>
     </g>
    </g>
    <g id="text_7">
     <!-- mCHN-hmC -->
     <g style="fill: #262626" transform="translate(155.99625 322.394687)scale(0.1 -0.1)">
      <defs>
       <path id="DejaVuSans-6d" d="M 3328 2828 
Q 3544 3216 3844 3400 
Q 4144 3584 4550 3584 
Q 5097 3584 5394 3201 
Q 5691 2819 5691 2113 
L 5691 0 
L 5113 0 
L 5113 2094 
Q 5113 2597 4934 2840 
Q 4756 3084 4391 3084 
Q 3944 3084 3684 2787 
Q 3425 2491 3425 1978 
L 3425 0 
L 2847 0 
L 2847 2094 
Q 2847 2600 2669 2842 
Q 2491 3084 2119 3084 
Q 1678 3084 1418 2786 
Q 1159 2488 1159 1978 
L 1159 0 
L 581 0 
L 581 3500 
L 1159 3500 
L 1159 2956 
Q 1356 3278 1631 3431 
Q 1906 3584 2284 3584 
Q 2666 3584 2933 3390 
Q 3200 3197 3328 2828 
z
" transform="scale(0.015625)"/>
       <path id="DejaVuSans-43" d="M 4122 4306 
L 4122 3641 
Q 3803 3938 3442 4084 
Q 3081 4231 2675 4231 
Q 1875 4231 1450 3742 
Q 1025 3253 1025 2328 
Q 1025 1406 1450 917 
Q 1875 428 2675 428 
Q 3081 428 3442 575 
Q 3803 722 4122 1019 
L 4122 359 
Q 3791 134 3420 21 
Q 3050 -91 2638 -91 
Q 1578 -91 968 557 
Q 359 1206 359 2328 
Q 359 3453 968 4101 
Q 1578 4750 2638 4750 
Q 3056 4750 3426 4639 
Q 3797 4528 4122 4306 
z
" transform="scale(0.015625)"/>
       <path id="DejaVuSans-48" d="M 628 4666 
L 1259 4666 
L 1259 2753 
L 3553 2753 
L 3553 4666 
L 4184 4666 
L 4184 0 
L 3553 0 
L 3553 2222 
L 1259 2222 
L 1259 0 
L 628 0 
L 628 4666 
z
" transform="scale(0.015625)"/>
       <path id="DejaVuSans-4e" d="M 628 4666 
L 1478 4666 
L 3547 763 
L 3547 4666 
L 4159 4666 
L 4159 0 
L 3309 0 
L 1241 3903 
L 1241 0 
L 628 0 
L 628 4666 
z
" transform="scale(0.015625)"/>
       <path id="DejaVuSans-2d" d="M 313 2009 
L 1997 2009 
L 1997 1497 
L 313 1497 
L 313 2009 
z
" transform="scale(0.015625)"/>
       <path id="DejaVuSans-68" d="M 3513 2113 
L 3513 0 
L 2938 0 
L 2938 2094 
Q 2938 2591 2744 2837 
Q 2550 3084 2163 3084 
Q 1697 3084 1428 2787 
Q 1159 2491 1159 1978 
L 1159 0 
L 581 0 
L 581 4863 
L 1159 4863 
L 1159 2956 
Q 1366 3272 1645 3428 
Q 1925 3584 2291 3584 
Q 2894 3584 3203 3211 
Q 3513 2838 3513 2113 
z
" transform="scale(0.015625)"/>
      </defs>
      <use xlink:href="#DejaVuSans-6d"/>
      <use xlink:href="#DejaVuSans-43" x="97.412109"/>
      <use xlink:href="#DejaVuSans-48" x="167.236328"/>
      <use xlink:href="#DejaVuSans-4e" x="242.431641"/>
      <use xlink:href="#DejaVuSans-2d" x="317.236328"/>
      <use xlink:href="#DejaVuSans-68" x="353.320312"/>
      <use xlink:href="#DejaVuSans-6d" x="416.699219"/>
      <use xlink:href="#DejaVuSans-43" x="514.111328"/>
     </g>
    </g>
   </g>
   <g id="matplotlib.axis_2">
    <g id="ytick_1">
     <g id="line2d_7">
      <path d="M 45.693125 278.171305 
L 324.693125 278.171305 
" clip-path="url(#pc15983d475)" style="fill: none; stroke: #ffffff; stroke-width: 0.8; stroke-linecap: round"/>
     </g>
     <g id="text_8">
      <!-- 2 -->
      <g style="fill: #262626" transform="translate(29.785625 283.490212)scale(0.14 -0.14)">
       <use xlink:href="#DejaVuSans-32"/>
      </g>
     </g>
    </g>
    <g id="ytick_2">
     <g id="line2d_8">
      <path d="M 45.693125 221.449347 
L 324.693125 221.449347 
" clip-path="url(#pc15983d475)" style="fill: none; stroke: #ffffff; stroke-width: 0.8; stroke-linecap: round"/>
     </g>
     <g id="text_9">
      <!-- 4 -->
      <g style="fill: #262626" transform="translate(29.785625 226.768254)scale(0.14 -0.14)">
       <defs>
        <path id="DejaVuSans-34" d="M 2419 4116 
L 825 1625 
L 2419 1625 
L 2419 4116 
z
M 2253 4666 
L 3047 4666 
L 3047 1625 
L 3713 1625 
L 3713 1100 
L 3047 1100 
L 3047 0 
L 2419 0 
L 2419 1100 
L 313 1100 
L 313 1709 
L 2253 4666 
z
" transform="scale(0.015625)"/>
       </defs>
       <use xlink:href="#DejaVuSans-34"/>
      </g>
     </g>
    </g>
    <g id="ytick_3">
     <g id="line2d_9">
      <path d="M 45.693125 164.727389 
L 324.693125 164.727389 
" clip-path="url(#pc15983d475)" style="fill: none; stroke: #ffffff; stroke-width: 0.8; stroke-linecap: round"/>
     </g>
     <g id="text_10">
      <!-- 6 -->
      <g style="fill: #262626" transform="translate(29.785625 170.046296)scale(0.14 -0.14)">
       <defs>
        <path id="DejaVuSans-36" d="M 2113 2584 
Q 1688 2584 1439 2293 
Q 1191 2003 1191 1497 
Q 1191 994 1439 701 
Q 1688 409 2113 409 
Q 2538 409 2786 701 
Q 3034 994 3034 1497 
Q 3034 2003 2786 2293 
Q 2538 2584 2113 2584 
z
M 3366 4563 
L 3366 3988 
Q 3128 4100 2886 4159 
Q 2644 4219 2406 4219 
Q 1781 4219 1451 3797 
Q 1122 3375 1075 2522 
Q 1259 2794 1537 2939 
Q 1816 3084 2150 3084 
Q 2853 3084 3261 2657 
Q 3669 2231 3669 1497 
Q 3669 778 3244 343 
Q 2819 -91 2113 -91 
Q 1303 -91 875 529 
Q 447 1150 447 2328 
Q 447 3434 972 4092 
Q 1497 4750 2381 4750 
Q 2619 4750 2861 4703 
Q 3103 4656 3366 4563 
z
" transform="scale(0.015625)"/>
       </defs>
       <use xlink:href="#DejaVuSans-36"/>
      </g>
     </g>
    </g>
    <g id="ytick_4">
     <g id="line2d_10">
      <path d="M 45.693125 108.005431 
L 324.693125 108.005431 
" clip-path="url(#pc15983d475)" style="fill: none; stroke: #ffffff; stroke-width: 0.8; stroke-linecap: round"/>
     </g>
     <g id="text_11">
      <!-- 8 -->
      <g style="fill: #262626" transform="translate(29.785625 113.324337)scale(0.14 -0.14)">
       <defs>
        <path id="DejaVuSans-38" d="M 2034 2216 
Q 1584 2216 1326 1975 
Q 1069 1734 1069 1313 
Q 1069 891 1326 650 
Q 1584 409 2034 409 
Q 2484 409 2743 651 
Q 3003 894 3003 1313 
Q 3003 1734 2745 1975 
Q 2488 2216 2034 2216 
z
M 1403 2484 
Q 997 2584 770 2862 
Q 544 3141 544 3541 
Q 544 4100 942 4425 
Q 1341 4750 2034 4750 
Q 2731 4750 3128 4425 
Q 3525 4100 3525 3541 
Q 3525 3141 3298 2862 
Q 3072 2584 2669 2484 
Q 3125 2378 3379 2068 
Q 3634 1759 3634 1313 
Q 3634 634 3220 271 
Q 2806 -91 2034 -91 
Q 1263 -91 848 271 
Q 434 634 434 1313 
Q 434 1759 690 2068 
Q 947 2378 1403 2484 
z
M 1172 3481 
Q 1172 3119 1398 2916 
Q 1625 2713 2034 2713 
Q 2441 2713 2670 2916 
Q 2900 3119 2900 3481 
Q 2900 3844 2670 4047 
Q 2441 4250 2034 4250 
Q 1625 4250 1398 4047 
Q 1172 3844 1172 3481 
z
" transform="scale(0.015625)"/>
       </defs>
       <use xlink:href="#DejaVuSans-38"/>
      </g>
     </g>
    </g>
    <g id="ytick_5">
     <g id="line2d_11">
      <path d="M 45.693125 51.283473 
L 324.693125 51.283473 
" clip-path="url(#pc15983d475)" style="fill: none; stroke: #ffffff; stroke-width: 0.8; stroke-linecap: round"/>
     </g>
     <g id="text_12">
      <!-- 10 -->
      <g style="fill: #262626" transform="translate(20.878125 56.602379)scale(0.14 -0.14)">
       <use xlink:href="#DejaVuSans-31"/>
       <use xlink:href="#DejaVuSans-30" x="63.623047"/>
      </g>
     </g>
    </g>
    <g id="text_13">
     <!-- RNA -->
     <g style="fill: #262626" transform="translate(14.798438 168.853281)rotate(-90)scale(0.1 -0.1)">
      <defs>
       <path id="DejaVuSans-52" d="M 2841 2188 
Q 3044 2119 3236 1894 
Q 3428 1669 3622 1275 
L 4263 0 
L 3584 0 
L 2988 1197 
Q 2756 1666 2539 1819 
Q 2322 1972 1947 1972 
L 1259 1972 
L 1259 0 
L 628 0 
L 628 4666 
L 2053 4666 
Q 2853 4666 3247 4331 
Q 3641 3997 3641 3322 
Q 3641 2881 3436 2590 
Q 3231 2300 2841 2188 
z
M 1259 4147 
L 1259 2491 
L 2053 2491 
Q 2509 2491 2742 2702 
Q 2975 2913 2975 3322 
Q 2975 3731 2742 3939 
Q 2509 4147 2053 4147 
L 1259 4147 
z
" transform="scale(0.015625)"/>
       <path id="DejaVuSans-41" d="M 2188 4044 
L 1331 1722 
L 3047 1722 
L 2188 4044 
z
M 1831 4666 
L 2547 4666 
L 4325 0 
L 3669 0 
L 3244 1197 
L 1141 1197 
L 716 0 
L 50 0 
L 1831 4666 
z
" transform="scale(0.015625)"/>
      </defs>
      <use xlink:href="#DejaVuSans-52"/>
      <use xlink:href="#DejaVuSans-4e" x="69.482422"/>
      <use xlink:href="#DejaVuSans-41" x="144.287109"/>
     </g>
    </g>
   </g>
   <g id="PathCollection_1">
    <defs>
     <path id="C0_0_61dc0fd429" d="M 0 5 
C 1.326016 5 2.597899 4.473168 3.535534 3.535534 
C 4.473168 2.597899 5 1.326016 5 -0 
C 5 -1.326016 4.473168 -2.597899 3.535534 -3.535534 
C 2.597899 -4.473168 1.326016 -5 0 -5 
C -1.326016 -5 -2.597899 -4.473168 -3.535534 -3.535534 
C -4.473168 -2.597899 -5 -1.326016 -5 0 
C -5 1.326016 -4.473168 2.597899 -3.535534 3.535534 
C -2.597899 4.473168 -1.326016 5 0 5 
z
"/>
    </defs>
    <g clip-path="url(#pc15983d475)">
     <use xlink:href="#C0_0_61dc0fd429" x="89.147307" y="227.778057" style="fill: #8d72ff; stroke: #ffffff; stroke-width: 0.8"/>
    </g>
    <g clip-path="url(#pc15983d475)">
     <use xlink:href="#C0_0_61dc0fd429" x="608.443573" y="240.347123" style="fill: #7689ff; stroke: #ffffff; stroke-width: 0.8"/>
    </g>
    <g clip-path="url(#pc15983d475)">
     <use xlink:href="#C0_0_61dc0fd429" x="78.187969" y="234.284921" style="fill: #837cff; stroke: #ffffff; stroke-width: 0.8"/>
    </g>
    <g clip-path="url(#pc15983d475)">
     <use xlink:href="#C0_0_61dc0fd429" x="192.280416" y="238.315085" style="fill: #33ccff; stroke: #ffffff; stroke-width: 0.8"/>
    </g>
    <g clip-path="url(#pc15983d475)">
     <use xlink:href="#C0_0_61dc0fd429" x="111.549342" y="225.714715" style="fill: #12edff; stroke: #ffffff; stroke-width: 0.8"/>
    </g>
    <g clip-path="url(#pc15983d475)">
     <use xlink:href="#C0_0_61dc0fd429" x="96.103339" y="248.619301" style="fill: #1be4ff; stroke: #ffffff; stroke-width: 0.8"/>
    </g>
    <g clip-path="url(#pc15983d475)">
     <use xlink:href="#C0_0_61dc0fd429" x="159.110482" y="249.60735" style="fill: #08f7ff; stroke: #ffffff; stroke-width: 0.8"/>
    </g>
    <g clip-path="url(#pc15983d475)">
     <use xlink:href="#C0_0_61dc0fd429" x="106.069294" y="235.340052" style="fill: #09f6ff; stroke: #ffffff; stroke-width: 0.8"/>
    </g>
    <g clip-path="url(#pc15983d475)">
     <use xlink:href="#C0_0_61dc0fd429" x="135.560362" y="281.76358" style="fill: #00ffff; stroke: #ffffff; stroke-width: 0.8"/>
    </g>
    <g clip-path="url(#pc15983d475)">
     <use xlink:href="#C0_0_61dc0fd429" x="110.774921" y="270.267317" style="fill: #00ffff; stroke: #ffffff; stroke-width: 0.8"/>
    </g>
    <g clip-path="url(#pc15983d475)">
     <use xlink:href="#C0_0_61dc0fd429" x="111.377141" y="222.882498" style="fill: #38c7ff; stroke: #ffffff; stroke-width: 0.8"/>
    </g>
    <g clip-path="url(#pc15983d475)">
     <use xlink:href="#C0_0_61dc0fd429" x="93.972359" y="166.63908" style="fill: #8a75ff; stroke: #ffffff; stroke-width: 0.8"/>
    </g>
    <g clip-path="url(#pc15983d475)">
     <use xlink:href="#C0_0_61dc0fd429" x="191.051352" y="206.680441" style="fill: #2bd4ff; stroke: #ffffff; stroke-width: 0.8"/>
    </g>
    <g clip-path="url(#pc15983d475)">
     <use xlink:href="#C0_0_61dc0fd429" x="110.581063" y="241.454451" style="fill: #3ac5ff; stroke: #ffffff; stroke-width: 0.8"/>
    </g>
    <g clip-path="url(#pc15983d475)">
     <use xlink:href="#C0_0_61dc0fd429" x="195.759272" y="192.061949" style="fill: #e619ff; stroke: #ffffff; stroke-width: 0.8"/>
    </g>
    <g clip-path="url(#pc15983d475)">
     <use xlink:href="#C0_0_61dc0fd429" x="133.489685" y="167.017417" style="fill: #659aff; stroke: #ffffff; stroke-width: 0.8"/>
    </g>
    <g clip-path="url(#pc15983d475)">
     <use xlink:href="#C0_0_61dc0fd429" x="114.93232" y="176.011876" style="fill: #2fd0ff; stroke: #ffffff; stroke-width: 0.8"/>
    </g>
    <g clip-path="url(#pc15983d475)">
     <use xlink:href="#C0_0_61dc0fd429" x="127.864281" y="203.624103" style="fill: #ee11ff; stroke: #ffffff; stroke-width: 0.8"/>
    </g>
    <g clip-path="url(#pc15983d475)">
     <use xlink:href="#C0_0_61dc0fd429" x="104.919544" y="213.186219" style="fill: #08f7ff; stroke: #ffffff; stroke-width: 0.8"/>
    </g>
    <g clip-path="url(#pc15983d475)">
     <use xlink:href="#C0_0_61dc0fd429" x="164.011848" y="166.687953" style="fill: #ff00ff; stroke: #ffffff; stroke-width: 0.8"/>
    </g>
   </g>
   <g id="PathCollection_2"/>
   <g id="PathCollection_3"/>
   <g id="PathCollection_4"/>
   <g id="PathCollection_5"/>
   <g id="PathCollection_6"/>
   <g id="PolyCollection_1">
    <path d="M 78.187969 202.168837 
L 78.187969 241.318888 
L 83.544086 240.306099 
L 88.900204 238.442338 
L 94.256321 237.197248 
L 99.612438 236.276878 
L 104.968555 235.382967 
L 110.324673 234.394474 
L 115.68079 234.058372 
L 121.036907 233.771886 
L 126.393024 233.177274 
L 131.749141 233.168417 
L 137.105259 233.141139 
L 142.461376 233.212046 
L 147.817493 233.002018 
L 153.17361 233.069038 
L 158.529727 233.043232 
L 163.885845 233.209488 
L 169.241962 233.276428 
L 174.598079 233.345604 
L 179.954196 233.31235 
L 185.310314 233.273581 
L 190.666431 233.39239 
L 196.022548 233.599243 
L 201.378665 233.699227 
L 206.734782 234.070157 
L 212.0909 234.143867 
L 217.447017 234.421147 
L 222.803134 234.75515 
L 228.159251 235.035245 
L 233.515368 235.267728 
L 238.871486 235.717731 
L 244.227603 236.180838 
L 249.58372 236.459402 
L 254.939837 236.932609 
L 260.295955 237.400402 
L 265.652072 237.901655 
L 271.008189 238.335369 
L 276.364306 238.912745 
L 281.720423 239.599995 
L 287.076541 240.12055 
L 292.432658 240.297538 
L 297.788775 240.503939 
L 303.144892 240.937653 
L 308.501009 241.360502 
L 313.857127 241.77762 
L 319.213244 241.973631 
L 324.569361 242.643397 
L 329.925478 243.08465 
L 335.281595 243.516087 
L 340.637713 243.944482 
L 345.99383 244.372877 
L 351.349947 244.815758 
L 356.706064 245.473854 
L 362.062182 245.82265 
L 367.418299 246.171445 
L 372.774416 246.558383 
L 378.130533 246.999696 
L 383.48665 247.441009 
L 388.842768 247.877078 
L 394.198885 248.310792 
L 399.555002 248.879175 
L 404.911119 249.452119 
L 410.267236 250.025064 
L 415.623354 250.598008 
L 420.979471 251.170953 
L 426.335588 251.743898 
L 431.691705 252.316842 
L 437.047823 252.889787 
L 442.40394 253.462732 
L 447.760057 254.035676 
L 453.116174 254.608621 
L 458.472291 255.181565 
L 463.828409 255.75451 
L 469.184526 256.327455 
L 474.540643 256.900399 
L 479.89676 257.473344 
L 485.252877 258.046289 
L 490.608995 258.619233 
L 495.965112 259.192178 
L 501.321229 259.765122 
L 506.677346 260.338067 
L 512.033464 260.911012 
L 517.389581 261.483956 
L 522.745698 262.056901 
L 528.101815 262.629845 
L 533.457932 263.20279 
L 538.81405 263.775735 
L 544.170167 264.348679 
L 549.526284 264.921624 
L 554.882401 265.494569 
L 560.238518 266.067513 
L 565.594636 266.640458 
L 570.950753 267.213402 
L 576.30687 267.786347 
L 581.662987 268.359292 
L 587.019104 268.932236 
L 592.375222 269.505181 
L 597.731339 270.078125 
L 603.087456 270.65107 
L 608.443573 271.224015 
L 608.443573 34.67267 
L 608.443573 34.67267 
L 603.087456 36.740125 
L 597.731339 38.80758 
L 592.375222 40.875035 
L 587.019104 42.94249 
L 581.662987 45.009945 
L 576.30687 47.0774 
L 570.950753 49.144855 
L 565.594636 51.21231 
L 560.238518 53.279765 
L 554.882401 55.34722 
L 549.526284 57.414675 
L 544.170167 59.48213 
L 538.81405 61.549585 
L 533.457932 63.61704 
L 528.101815 65.684495 
L 522.745698 67.75195 
L 517.389581 69.819405 
L 512.033464 71.88686 
L 506.677346 73.954315 
L 501.321229 76.02177 
L 495.965112 78.089225 
L 490.608995 80.159267 
L 485.252877 82.113241 
L 479.89676 84.067214 
L 474.540643 86.021187 
L 469.184526 87.975161 
L 463.828409 89.929134 
L 458.472291 91.883108 
L 453.116174 93.837081 
L 447.760057 95.791054 
L 442.40394 97.745028 
L 437.047823 99.699001 
L 431.691705 101.652975 
L 426.335588 103.606948 
L 420.979471 105.560922 
L 415.623354 107.514895 
L 410.267236 109.657468 
L 404.911119 111.636656 
L 399.555002 113.499049 
L 394.198885 115.361443 
L 388.842768 117.241434 
L 383.48665 119.183827 
L 378.130533 121.12622 
L 372.774416 123.068613 
L 367.418299 125.011006 
L 362.062182 126.95961 
L 356.706064 128.957252 
L 351.349947 131.136466 
L 345.99383 133.31568 
L 340.637713 135.494894 
L 335.281595 137.486555 
L 329.925478 139.402111 
L 324.569361 141.323265 
L 319.213244 143.403394 
L 313.857127 145.993519 
L 308.501009 148.381333 
L 303.144892 150.120554 
L 297.788775 151.859775 
L 292.432658 153.598996 
L 287.076541 155.338217 
L 281.720423 157.077438 
L 276.364306 158.816658 
L 271.008189 160.555879 
L 265.652072 162.396952 
L 260.295955 164.307262 
L 254.939837 166.219886 
L 249.58372 168.13819 
L 244.227603 170.181197 
L 238.871486 172.447715 
L 233.515368 174.724423 
L 228.159251 177.008146 
L 222.803134 179.280275 
L 217.447017 181.542489 
L 212.0909 183.819623 
L 206.734782 185.99256 
L 201.378665 187.894995 
L 196.022548 190.321387 
L 190.666431 192.430516 
L 185.310314 194.03409 
L 179.954196 196.080388 
L 174.598079 197.877941 
L 169.241962 199.666844 
L 163.885845 200.834393 
L 158.529727 202.135923 
L 153.17361 203.187396 
L 147.817493 204.008388 
L 142.461376 204.810019 
L 137.105259 205.321271 
L 131.749141 205.759741 
L 126.393024 205.522595 
L 121.036907 205.217817 
L 115.68079 204.925915 
L 110.324673 204.553527 
L 104.968555 204.213916 
L 99.612438 203.792333 
L 94.256321 203.540859 
L 88.900204 203.033572 
L 83.544086 202.549879 
L 78.187969 202.168837 
z
" clip-path="url(#pc15983d475)" style="fill: #4169e1; fill-opacity: 0.15; stroke: #ffffff; stroke-opacity: 0.15"/>
   </g>
   <g id="PathCollection_7">
    <defs>
     <path id="C1_0_7cb98ebf59" d="M 0 5 
C 1.326016 5 2.597899 4.473168 3.535534 3.535534 
C 4.473168 2.597899 5 1.326016 5 -0 
C 5 -1.326016 4.473168 -2.597899 3.535534 -3.535534 
C 2.597899 -4.473168 1.326016 -5 0 -5 
C -1.326016 -5 -2.597899 -4.473168 -3.535534 -3.535534 
C -4.473168 -2.597899 -5 -1.326016 -5 0 
C -5 1.326016 -4.473168 2.597899 -3.535534 3.535534 
C -2.597899 4.473168 -1.326016 5 0 5 
z
"/>
    </defs>
    <g clip-path="url(#pc15983d475)">
     <use xlink:href="#C1_0_7cb98ebf59" x="196.04291" y="228.561491" style="fill: #837cff; stroke: #ffffff; stroke-width: 0.8"/>
    </g>
    <g clip-path="url(#pc15983d475)">
     <use xlink:href="#C1_0_7cb98ebf59" x="250.208591" y="234.927381" style="fill: #33ccff; stroke: #ffffff; stroke-width: 0.8"/>
    </g>
    <g clip-path="url(#pc15983d475)">
     <use xlink:href="#C1_0_7cb98ebf59" x="142.5925" y="208.498797" style="fill: #12edff; stroke: #ffffff; stroke-width: 0.8"/>
    </g>
    <g clip-path="url(#pc15983d475)">
     <use xlink:href="#C1_0_7cb98ebf59" x="164.008185" y="235.392216" style="fill: #1be4ff; stroke: #ffffff; stroke-width: 0.8"/>
    </g>
    <g clip-path="url(#pc15983d475)">
     <use xlink:href="#C1_0_7cb98ebf59" x="116.704882" y="240.263095" style="fill: #08f7ff; stroke: #ffffff; stroke-width: 0.8"/>
    </g>
    <g clip-path="url(#pc15983d475)">
     <use xlink:href="#C1_0_7cb98ebf59" x="127.379527" y="232.020092" style="fill: #09f6ff; stroke: #ffffff; stroke-width: 0.8"/>
    </g>
    <g clip-path="url(#pc15983d475)">
     <use xlink:href="#C1_0_7cb98ebf59" x="134.834348" y="281.656149" style="fill: #00ffff; stroke: #ffffff; stroke-width: 0.8"/>
    </g>
    <g clip-path="url(#pc15983d475)">
     <use xlink:href="#C1_0_7cb98ebf59" x="118.452879" y="257.427642" style="fill: #00ffff; stroke: #ffffff; stroke-width: 0.8"/>
    </g>
    <g clip-path="url(#pc15983d475)">
     <use xlink:href="#C1_0_7cb98ebf59" x="285.330531" y="234.433143" style="fill: #38c7ff; stroke: #ffffff; stroke-width: 0.8"/>
    </g>
    <g clip-path="url(#pc15983d475)">
     <use xlink:href="#C1_0_7cb98ebf59" x="191.478803" y="151.94306" style="fill: #8a75ff; stroke: #ffffff; stroke-width: 0.8"/>
    </g>
    <g clip-path="url(#pc15983d475)">
     <use xlink:href="#C1_0_7cb98ebf59" x="228.164996" y="208.780987" style="fill: #2bd4ff; stroke: #ffffff; stroke-width: 0.8"/>
    </g>
    <g clip-path="url(#pc15983d475)">
     <use xlink:href="#C1_0_7cb98ebf59" x="189.597283" y="211.344029" style="fill: #3ac5ff; stroke: #ffffff; stroke-width: 0.8"/>
    </g>
    <g clip-path="url(#pc15983d475)">
     <use xlink:href="#C1_0_7cb98ebf59" x="284.472062" y="178.632917" style="fill: #e619ff; stroke: #ffffff; stroke-width: 0.8"/>
    </g>
    <g clip-path="url(#pc15983d475)">
     <use xlink:href="#C1_0_7cb98ebf59" x="234.773687" y="138.77599" style="fill: #659aff; stroke: #ffffff; stroke-width: 0.8"/>
    </g>
    <g clip-path="url(#pc15983d475)">
     <use xlink:href="#C1_0_7cb98ebf59" x="165.758342" y="174.626966" style="fill: #2fd0ff; stroke: #ffffff; stroke-width: 0.8"/>
    </g>
    <g clip-path="url(#pc15983d475)">
     <use xlink:href="#C1_0_7cb98ebf59" x="185.018912" y="177.607065" style="fill: #ee11ff; stroke: #ffffff; stroke-width: 0.8"/>
    </g>
    <g clip-path="url(#pc15983d475)">
     <use xlink:href="#C1_0_7cb98ebf59" x="120.03547" y="198.429755" style="fill: #08f7ff; stroke: #ffffff; stroke-width: 0.8"/>
    </g>
    <g clip-path="url(#pc15983d475)">
     <use xlink:href="#C1_0_7cb98ebf59" x="222.080404" y="166.214011" style="fill: #ff00ff; stroke: #ffffff; stroke-width: 0.8"/>
    </g>
   </g>
   <g id="PathCollection_8"/>
   <g id="PathCollection_9"/>
   <g id="PathCollection_10"/>
   <g id="PathCollection_11"/>
   <g id="PathCollection_12"/>
   <g id="PolyCollection_2">
    <defs>
     <path id="mf85eebb5ff" d="M 116.704882 -138.134862 
L 116.704882 -86.214057 
L 118.408171 -86.934655 
L 120.11146 -87.633027 
L 121.81475 -88.253551 
L 123.518039 -89.087739 
L 125.221329 -89.631113 
L 126.924618 -90.084878 
L 128.627907 -90.884915 
L 130.331197 -91.719253 
L 132.034486 -92.365086 
L 133.737775 -93.188669 
L 135.441065 -93.802349 
L 137.144354 -94.414723 
L 138.847644 -95.050416 
L 140.550933 -95.706144 
L 142.254222 -96.24739 
L 143.957512 -96.858889 
L 145.660801 -97.437353 
L 147.364091 -97.972462 
L 149.06738 -98.305613 
L 150.770669 -98.81549 
L 152.473959 -99.272273 
L 154.177248 -99.689002 
L 155.880538 -99.982027 
L 157.583827 -100.317148 
L 159.287116 -100.841026 
L 160.990406 -101.161529 
L 162.693695 -101.558906 
L 164.396984 -102.062615 
L 166.100274 -102.731663 
L 167.803563 -103.400711 
L 169.506853 -104.069758 
L 171.210142 -104.460435 
L 172.913431 -104.70371 
L 174.616721 -105.072638 
L 176.32001 -105.399793 
L 178.0233 -105.872718 
L 179.726589 -106.232648 
L 181.429878 -106.281675 
L 183.133168 -106.480887 
L 184.836457 -106.539467 
L 186.539747 -106.903316 
L 188.243036 -107.507612 
L 189.946325 -107.990507 
L 191.649615 -108.43599 
L 193.352904 -108.87178 
L 195.056193 -109.034812 
L 196.759483 -109.165619 
L 198.462772 -109.296426 
L 200.166062 -109.563294 
L 201.869351 -109.811681 
L 203.57264 -110.204916 
L 205.27593 -110.409779 
L 206.979219 -110.60434 
L 208.682509 -110.800999 
L 210.385798 -111.001582 
L 212.089087 -111.207286 
L 213.792377 -111.362653 
L 215.495666 -111.609776 
L 217.198956 -111.811334 
L 218.902245 -111.956208 
L 220.605534 -112.198804 
L 222.308824 -112.31791 
L 224.012113 -112.616704 
L 225.715403 -112.812913 
L 227.418692 -113.017829 
L 229.121981 -113.214276 
L 230.825271 -113.410722 
L 232.52856 -113.60778 
L 234.231849 -113.522775 
L 235.935139 -113.595937 
L 237.638428 -113.670848 
L 239.341718 -113.688004 
L 241.045007 -114.047964 
L 242.748296 -114.243493 
L 244.451586 -114.216744 
L 246.154875 -114.215762 
L 247.858165 -114.21259 
L 249.561454 -114.211591 
L 251.264743 -114.251637 
L 252.968033 -114.442207 
L 254.671322 -114.267804 
L 256.374612 -114.41312 
L 258.077901 -114.51744 
L 259.78119 -114.625191 
L 261.48448 -114.672628 
L 263.187769 -114.774511 
L 264.891058 -114.879622 
L 266.594348 -114.978919 
L 268.297637 -115.076538 
L 270.000927 -114.864601 
L 271.704216 -115.011084 
L 273.407505 -115.074023 
L 275.110795 -115.200895 
L 276.814084 -115.123742 
L 278.517374 -114.946852 
L 280.220663 -114.898726 
L 281.923952 -114.966815 
L 283.627242 -114.802267 
L 285.330531 -114.793779 
L 285.330531 -189.031949 
L 285.330531 -189.031949 
L 283.627242 -188.073457 
L 281.923952 -187.098359 
L 280.220663 -186.303503 
L 278.517374 -185.508648 
L 276.814084 -184.713792 
L 275.110795 -183.901461 
L 273.407505 -183.048144 
L 271.704216 -182.194826 
L 270.000927 -181.341509 
L 268.297637 -180.488191 
L 266.594348 -179.633344 
L 264.891058 -178.77236 
L 263.187769 -177.697319 
L 261.48448 -176.65332 
L 259.78119 -175.799172 
L 258.077901 -174.733194 
L 256.374612 -173.667215 
L 254.671322 -172.601237 
L 252.968033 -171.535258 
L 251.264743 -170.469279 
L 249.561454 -169.403301 
L 247.858165 -168.545563 
L 246.154875 -167.517566 
L 244.451586 -166.480355 
L 242.748296 -165.443144 
L 241.045007 -164.405934 
L 239.341718 -163.368723 
L 237.638428 -162.330938 
L 235.935139 -161.42975 
L 234.231849 -160.721288 
L 232.52856 -160.012826 
L 230.825271 -159.303574 
L 229.121981 -158.593535 
L 227.418692 -157.883496 
L 225.715403 -157.173457 
L 224.012113 -156.463418 
L 222.308824 -155.753378 
L 220.605534 -155.059416 
L 218.902245 -154.341784 
L 217.198956 -153.627809 
L 215.495666 -152.816212 
L 213.792377 -152.072185 
L 212.089087 -151.149878 
L 210.385798 -150.227571 
L 208.682509 -149.305264 
L 206.979219 -148.660061 
L 205.27593 -147.965827 
L 203.57264 -147.206469 
L 201.869351 -146.895457 
L 200.166062 -146.290514 
L 198.462772 -145.65966 
L 196.759483 -145.017624 
L 195.056193 -144.310621 
L 193.352904 -143.799687 
L 191.649615 -143.105169 
L 189.946325 -142.859953 
L 188.243036 -142.622574 
L 186.539747 -142.269576 
L 184.836457 -141.621378 
L 183.133168 -140.987781 
L 181.429878 -140.348807 
L 179.726589 -139.707108 
L 178.0233 -139.389645 
L 176.32001 -138.902416 
L 174.616721 -138.476712 
L 172.913431 -138.281503 
L 171.210142 -138.02469 
L 169.506853 -137.737399 
L 167.803563 -137.687272 
L 166.100274 -137.6232 
L 164.396984 -137.256441 
L 162.693695 -137.003777 
L 160.990406 -136.679989 
L 159.287116 -136.362301 
L 157.583827 -136.322475 
L 155.880538 -136.299264 
L 154.177248 -136.500804 
L 152.473959 -136.408975 
L 150.770669 -136.475002 
L 149.06738 -136.652321 
L 147.364091 -136.711241 
L 145.660801 -136.674657 
L 143.957512 -136.549391 
L 142.254222 -136.548516 
L 140.550933 -136.499458 
L 138.847644 -136.444331 
L 137.144354 -136.389203 
L 135.441065 -136.421445 
L 133.737775 -136.573895 
L 132.034486 -136.73037 
L 130.331197 -136.792512 
L 128.627907 -136.998778 
L 126.924618 -137.205438 
L 125.221329 -137.353816 
L 123.518039 -137.511083 
L 121.81475 -137.668349 
L 120.11146 -137.825615 
L 118.408171 -137.980884 
L 116.704882 -138.134862 
z
" style="stroke: #ffffff; stroke-opacity: 0.15"/>
    </defs>
    <g clip-path="url(#pc15983d475)">
     <use xlink:href="#mf85eebb5ff" x="0" y="331.674375" style="fill: #b22222; fill-opacity: 0.15; stroke: #ffffff; stroke-opacity: 0.15"/>
    </g>
   </g>
   <g id="line2d_12">
    <path d="M 78.187969 217.826465 
L 83.544086 217.949338 
L 88.900204 218.072211 
L 94.256321 218.195084 
L 99.612438 218.317957 
L 104.968555 218.44083 
L 110.324673 218.563703 
L 115.68079 218.686576 
L 121.036907 218.809448 
L 126.393024 218.932321 
L 131.749141 219.055194 
L 137.105259 219.178067 
L 142.461376 219.30094 
L 147.817493 219.423813 
L 153.17361 219.546686 
L 158.529727 219.669559 
L 163.885845 219.792432 
L 169.241962 219.915305 
L 174.598079 220.038178 
L 179.954196 220.161051 
L 185.310314 220.283924 
L 190.666431 220.406797 
L 196.022548 220.52967 
L 201.378665 220.652543 
L 206.734782 220.775416 
L 212.0909 220.898288 
L 217.447017 221.021161 
L 222.803134 221.144034 
L 228.159251 221.266907 
L 233.515368 221.38978 
L 238.871486 221.512653 
L 244.227603 221.635526 
L 249.58372 221.758399 
L 254.939837 221.881272 
L 260.295955 222.004145 
L 265.652072 222.127018 
L 271.008189 222.249891 
L 276.364306 222.372764 
L 281.720423 222.495637 
L 287.076541 222.61851 
L 292.432658 222.741383 
L 297.788775 222.864256 
L 303.144892 222.987128 
L 308.501009 223.110001 
L 313.857127 223.232874 
L 319.213244 223.355747 
L 324.569361 223.47862 
L 329.925478 223.601493 
L 335.281595 223.724366 
L 340.637713 223.847239 
L 345.99383 223.970112 
L 347.207187 223.997947 
" clip-path="url(#pc15983d475)" style="fill: none; stroke: #4169e1; stroke-width: 2.25; stroke-linecap: round"/>
   </g>
   <g id="line2d_13">
    <path d="M 116.704882 223.940519 
L 118.408171 223.570124 
L 120.11146 223.199729 
L 121.81475 222.829334 
L 123.518039 222.458938 
L 125.221329 222.088543 
L 126.924618 221.718148 
L 128.627907 221.347753 
L 130.331197 220.977358 
L 132.034486 220.606963 
L 133.737775 220.236568 
L 135.441065 219.866173 
L 137.144354 219.495777 
L 138.847644 219.125382 
L 140.550933 218.754987 
L 142.254222 218.384592 
L 143.957512 218.014197 
L 145.660801 217.643802 
L 147.364091 217.273407 
L 149.06738 216.903012 
L 150.770669 216.532616 
L 152.473959 216.162221 
L 154.177248 215.791826 
L 155.880538 215.421431 
L 157.583827 215.051036 
L 159.287116 214.680641 
L 160.990406 214.310246 
L 162.693695 213.939851 
L 164.396984 213.569455 
L 166.100274 213.19906 
L 167.803563 212.828665 
L 169.506853 212.45827 
L 171.210142 212.087875 
L 172.913431 211.71748 
L 174.616721 211.347085 
L 176.32001 210.97669 
L 178.0233 210.606294 
L 179.726589 210.235899 
L 181.429878 209.865504 
L 183.133168 209.495109 
L 184.836457 209.124714 
L 186.539747 208.754319 
L 188.243036 208.383924 
L 189.946325 208.013529 
L 191.649615 207.643133 
L 193.352904 207.272738 
L 195.056193 206.902343 
L 196.759483 206.531948 
L 198.462772 206.161553 
L 200.166062 205.791158 
L 201.869351 205.420763 
L 203.57264 205.050368 
L 205.27593 204.679972 
L 206.979219 204.309577 
L 208.682509 203.939182 
L 210.385798 203.568787 
L 212.089087 203.198392 
L 213.792377 202.827997 
L 215.495666 202.457602 
L 217.198956 202.087207 
L 218.902245 201.716811 
L 220.605534 201.346416 
L 222.308824 200.976021 
L 224.012113 200.605626 
L 225.715403 200.235231 
L 227.418692 199.864836 
L 229.121981 199.494441 
L 230.825271 199.124046 
L 232.52856 198.75365 
L 234.231849 198.383255 
L 235.935139 198.01286 
L 237.638428 197.642465 
L 239.341718 197.27207 
L 241.045007 196.901675 
L 242.748296 196.53128 
L 244.451586 196.160885 
L 246.154875 195.790489 
L 247.858165 195.420094 
L 249.561454 195.049699 
L 251.264743 194.679304 
L 252.968033 194.308909 
L 254.671322 193.938514 
L 256.374612 193.568119 
L 258.077901 193.197724 
L 259.78119 192.827328 
L 261.48448 192.456933 
L 263.187769 192.086538 
L 264.891058 191.716143 
L 266.594348 191.345748 
L 268.297637 190.975353 
L 270.000927 190.604958 
L 271.704216 190.234562 
L 273.407505 189.864167 
L 275.110795 189.493772 
L 276.814084 189.123377 
L 278.517374 188.752982 
L 280.220663 188.382587 
L 281.923952 188.012192 
L 283.627242 187.641797 
L 285.330531 187.271401 
" clip-path="url(#pc15983d475)" style="fill: none; stroke: #b22222; stroke-width: 2.25; stroke-linecap: round"/>
   </g>
   <g id="patch_3">
    <path d="M 45.693125 294.118125 
L 45.693125 22.318125 
" style="fill: none; stroke: #ffffff; stroke-width: 0.8; stroke-linejoin: miter; stroke-linecap: square"/>
   </g>
   <g id="patch_4">
    <path d="M 324.693125 294.118125 
L 324.693125 22.318125 
" style="fill: none; stroke: #ffffff; stroke-width: 0.8; stroke-linejoin: miter; stroke-linecap: square"/>
   </g>
   <g id="patch_5">
    <path d="M 45.693125 294.118125 
L 324.693125 294.118125 
" style="fill: none; stroke: #ffffff; stroke-width: 0.8; stroke-linejoin: miter; stroke-linecap: square"/>
   </g>
   <g id="patch_6">
    <path d="M 45.693125 22.318125 
L 324.693125 22.318125 
" style="fill: none; stroke: #ffffff; stroke-width: 0.8; stroke-linejoin: miter; stroke-linecap: square"/>
   </g>
   <g id="text_14">
    <!-- Total hmCH vs RNA expression -->
    <g style="fill: #262626" transform="translate(93.403438 16.318125)scale(0.12 -0.12)">
     <defs>
      <path id="DejaVuSans-54" d="M -19 4666 
L 3928 4666 
L 3928 4134 
L 2272 4134 
L 2272 0 
L 1638 0 
L 1638 4134 
L -19 4134 
L -19 4666 
z
" transform="scale(0.015625)"/>
      <path id="DejaVuSans-6f" d="M 1959 3097 
Q 1497 3097 1228 2736 
Q 959 2375 959 1747 
Q 959 1119 1226 758 
Q 1494 397 1959 397 
Q 2419 397 2687 759 
Q 2956 1122 2956 1747 
Q 2956 2369 2687 2733 
Q 2419 3097 1959 3097 
z
M 1959 3584 
Q 2709 3584 3137 3096 
Q 3566 2609 3566 1747 
Q 3566 888 3137 398 
Q 2709 -91 1959 -91 
Q 1206 -91 779 398 
Q 353 888 353 1747 
Q 353 2609 779 3096 
Q 1206 3584 1959 3584 
z
" transform="scale(0.015625)"/>
      <path id="DejaVuSans-74" d="M 1172 4494 
L 1172 3500 
L 2356 3500 
L 2356 3053 
L 1172 3053 
L 1172 1153 
Q 1172 725 1289 603 
Q 1406 481 1766 481 
L 2356 481 
L 2356 0 
L 1766 0 
Q 1100 0 847 248 
Q 594 497 594 1153 
L 594 3053 
L 172 3053 
L 172 3500 
L 594 3500 
L 594 4494 
L 1172 4494 
z
" transform="scale(0.015625)"/>
      <path id="DejaVuSans-61" d="M 2194 1759 
Q 1497 1759 1228 1600 
Q 959 1441 959 1056 
Q 959 750 1161 570 
Q 1363 391 1709 391 
Q 2188 391 2477 730 
Q 2766 1069 2766 1631 
L 2766 1759 
L 2194 1759 
z
M 3341 1997 
L 3341 0 
L 2766 0 
L 2766 531 
Q 2569 213 2275 61 
Q 1981 -91 1556 -91 
Q 1019 -91 701 211 
Q 384 513 384 1019 
Q 384 1609 779 1909 
Q 1175 2209 1959 2209 
L 2766 2209 
L 2766 2266 
Q 2766 2663 2505 2880 
Q 2244 3097 1772 3097 
Q 1472 3097 1187 3025 
Q 903 2953 641 2809 
L 641 3341 
Q 956 3463 1253 3523 
Q 1550 3584 1831 3584 
Q 2591 3584 2966 3190 
Q 3341 2797 3341 1997 
z
" transform="scale(0.015625)"/>
      <path id="DejaVuSans-6c" d="M 603 4863 
L 1178 4863 
L 1178 0 
L 603 0 
L 603 4863 
z
" transform="scale(0.015625)"/>
      <path id="DejaVuSans-20" transform="scale(0.015625)"/>
      <path id="DejaVuSans-76" d="M 191 3500 
L 800 3500 
L 1894 563 
L 2988 3500 
L 3597 3500 
L 2284 0 
L 1503 0 
L 191 3500 
z
" transform="scale(0.015625)"/>
      <path id="DejaVuSans-73" d="M 2834 3397 
L 2834 2853 
Q 2591 2978 2328 3040 
Q 2066 3103 1784 3103 
Q 1356 3103 1142 2972 
Q 928 2841 928 2578 
Q 928 2378 1081 2264 
Q 1234 2150 1697 2047 
L 1894 2003 
Q 2506 1872 2764 1633 
Q 3022 1394 3022 966 
Q 3022 478 2636 193 
Q 2250 -91 1575 -91 
Q 1294 -91 989 -36 
Q 684 19 347 128 
L 347 722 
Q 666 556 975 473 
Q 1284 391 1588 391 
Q 1994 391 2212 530 
Q 2431 669 2431 922 
Q 2431 1156 2273 1281 
Q 2116 1406 1581 1522 
L 1381 1569 
Q 847 1681 609 1914 
Q 372 2147 372 2553 
Q 372 3047 722 3315 
Q 1072 3584 1716 3584 
Q 2034 3584 2315 3537 
Q 2597 3491 2834 3397 
z
" transform="scale(0.015625)"/>
      <path id="DejaVuSans-65" d="M 3597 1894 
L 3597 1613 
L 953 1613 
Q 991 1019 1311 708 
Q 1631 397 2203 397 
Q 2534 397 2845 478 
Q 3156 559 3463 722 
L 3463 178 
Q 3153 47 2828 -22 
Q 2503 -91 2169 -91 
Q 1331 -91 842 396 
Q 353 884 353 1716 
Q 353 2575 817 3079 
Q 1281 3584 2069 3584 
Q 2775 3584 3186 3129 
Q 3597 2675 3597 1894 
z
M 3022 2063 
Q 3016 2534 2758 2815 
Q 2500 3097 2075 3097 
Q 1594 3097 1305 2825 
Q 1016 2553 972 2059 
L 3022 2063 
z
" transform="scale(0.015625)"/>
      <path id="DejaVuSans-78" d="M 3513 3500 
L 2247 1797 
L 3578 0 
L 2900 0 
L 1881 1375 
L 863 0 
L 184 0 
L 1544 1831 
L 300 3500 
L 978 3500 
L 1906 2253 
L 2834 3500 
L 3513 3500 
z
" transform="scale(0.015625)"/>
      <path id="DejaVuSans-70" d="M 1159 525 
L 1159 -1331 
L 581 -1331 
L 581 3500 
L 1159 3500 
L 1159 2969 
Q 1341 3281 1617 3432 
Q 1894 3584 2278 3584 
Q 2916 3584 3314 3078 
Q 3713 2572 3713 1747 
Q 3713 922 3314 415 
Q 2916 -91 2278 -91 
Q 1894 -91 1617 61 
Q 1341 213 1159 525 
z
M 3116 1747 
Q 3116 2381 2855 2742 
Q 2594 3103 2138 3103 
Q 1681 3103 1420 2742 
Q 1159 2381 1159 1747 
Q 1159 1113 1420 752 
Q 1681 391 2138 391 
Q 2594 391 2855 752 
Q 3116 1113 3116 1747 
z
" transform="scale(0.015625)"/>
      <path id="DejaVuSans-72" d="M 2631 2963 
Q 2534 3019 2420 3045 
Q 2306 3072 2169 3072 
Q 1681 3072 1420 2755 
Q 1159 2438 1159 1844 
L 1159 0 
L 581 0 
L 581 3500 
L 1159 3500 
L 1159 2956 
Q 1341 3275 1631 3429 
Q 1922 3584 2338 3584 
Q 2397 3584 2469 3576 
Q 2541 3569 2628 3553 
L 2631 2963 
z
" transform="scale(0.015625)"/>
      <path id="DejaVuSans-69" d="M 603 3500 
L 1178 3500 
L 1178 0 
L 603 0 
L 603 3500 
z
M 603 4863 
L 1178 4863 
L 1178 4134 
L 603 4134 
L 603 4863 
z
" transform="scale(0.015625)"/>
      <path id="DejaVuSans-6e" d="M 3513 2113 
L 3513 0 
L 2938 0 
L 2938 2094 
Q 2938 2591 2744 2837 
Q 2550 3084 2163 3084 
Q 1697 3084 1428 2787 
Q 1159 2491 1159 1978 
L 1159 0 
L 581 0 
L 581 3500 
L 1159 3500 
L 1159 2956 
Q 1366 3272 1645 3428 
Q 1925 3584 2291 3584 
Q 2894 3584 3203 3211 
Q 3513 2838 3513 2113 
z
" transform="scale(0.015625)"/>
     </defs>
     <use xlink:href="#DejaVuSans-54"/>
     <use xlink:href="#DejaVuSans-6f" x="44.083984"/>
     <use xlink:href="#DejaVuSans-74" x="105.265625"/>
     <use xlink:href="#DejaVuSans-61" x="144.474609"/>
     <use xlink:href="#DejaVuSans-6c" x="205.753906"/>
     <use xlink:href="#DejaVuSans-20" x="233.537109"/>
     <use xlink:href="#DejaVuSans-68" x="265.324219"/>
     <use xlink:href="#DejaVuSans-6d" x="328.703125"/>
     <use xlink:href="#DejaVuSans-43" x="426.115234"/>
     <use xlink:href="#DejaVuSans-48" x="495.939453"/>
     <use xlink:href="#DejaVuSans-20" x="571.134766"/>
     <use xlink:href="#DejaVuSans-76" x="602.921875"/>
     <use xlink:href="#DejaVuSans-73" x="662.101562"/>
     <use xlink:href="#DejaVuSans-20" x="714.201172"/>
     <use xlink:href="#DejaVuSans-52" x="745.988281"/>
     <use xlink:href="#DejaVuSans-4e" x="815.470703"/>
     <use xlink:href="#DejaVuSans-41" x="890.275391"/>
     <use xlink:href="#DejaVuSans-20" x="958.683594"/>
     <use xlink:href="#DejaVuSans-65" x="990.470703"/>
     <use xlink:href="#DejaVuSans-78" x="1050.244141"/>
     <use xlink:href="#DejaVuSans-70" x="1109.423828"/>
     <use xlink:href="#DejaVuSans-72" x="1172.900391"/>
     <use xlink:href="#DejaVuSans-65" x="1211.763672"/>
     <use xlink:href="#DejaVuSans-73" x="1273.287109"/>
     <use xlink:href="#DejaVuSans-73" x="1325.386719"/>
     <use xlink:href="#DejaVuSans-69" x="1377.486328"/>
     <use xlink:href="#DejaVuSans-6f" x="1405.269531"/>
     <use xlink:href="#DejaVuSans-6e" x="1466.451172"/>
    </g>
   </g>
  </g>
 </g>
 <defs>
  <clipPath id="pc15983d475">
   <rect x="45.693125" y="22.318125" width="279" height="271.8"/>
  </clipPath>
 </defs>
</svg>
