<?xml version="1.0" encoding="utf-8" standalone="no"?>
<!DOCTYPE svg PUBLIC "-//W3C//DTD SVG 1.1//EN"
  "http://www.w3.org/Graphics/SVG/1.1/DTD/svg11.dtd">
<svg xmlns:xlink="http://www.w3.org/1999/xlink" width="386.375pt" height="144pt" viewBox="0 0 386.375 144" xmlns="http://www.w3.org/2000/svg" version="1.1">
 <metadata>
  <rdf:RDF xmlns:dc="http://purl.org/dc/elements/1.1/" xmlns:cc="http://creativecommons.org/ns#" xmlns:rdf="http://www.w3.org/1999/02/22-rdf-syntax-ns#">
   <cc:Work>
    <dc:type rdf:resource="http://purl.org/dc/dcmitype/StillImage"/>
    <dc:date>2023-08-31T07:26:10.430933</dc:date>
    <dc:format>image/svg+xml</dc:format>
    <dc:creator>
     <cc:Agent>
      <dc:title>Matplotlib v3.5.1, https://matplotlib.org/</dc:title>
     </cc:Agent>
    </dc:creator>
   </cc:Work>
  </rdf:RDF>
 </metadata>
 <defs>
  <style type="text/css">*{stroke-linejoin: round; stroke-linecap: butt}</style>
 </defs>
 <g id="figure_1">
  <g id="patch_1">
   <path d="M 0 144 
L 386.375 144 
L 386.375 0 
L 0 0 
L 0 144 
z
" style="fill: none"/>
  </g>
  <g id="axes_1">
   <g id="patch_2">
    <path d="M 53.925 102.2 
L 150.199854 102.2 
L 150.199854 24.8 
L 53.925 24.8 
z
" style="fill: #ffffff"/>
   </g>
   <g id="PathCollection_1">
    <path d="M 143.720773 71.875909 
C 144.516383 71.875909 145.279513 71.55981 145.842094 70.997229 
C 146.404674 70.434649 146.720773 69.671518 146.720773 68.875909 
C 146.720773 68.0803 146.404674 67.31717 145.842094 66.754589 
C 145.279513 66.192008 144.516383 65.875909 143.720773 65.875909 
C 142.925164 65.875909 142.162034 66.192008 141.599453 66.754589 
C 141.036872 67.31717 140.720773 68.0803 140.720773 68.875909 
C 140.720773 69.671518 141.036872 70.434649 141.599453 70.997229 
C 142.162034 71.55981 142.925164 71.875909 143.720773 71.875909 
z
" clip-path="url(#pd92454d6d6)" style="fill: #277f8e; stroke: #ffffff; stroke-width: 0.48"/>
    <path d="M 144.154514 64.784014 
C 144.950123 64.784014 145.713253 64.467915 146.275834 63.905334 
C 146.838415 63.342754 147.154514 62.579623 147.154514 61.784014 
C 147.154514 60.988405 146.838415 60.225274 146.275834 59.662694 
C 145.713253 59.100113 144.950123 58.784014 144.154514 58.784014 
C 143.358905 58.784014 142.595774 59.100113 142.033193 59.662694 
C 141.470613 60.225274 141.154514 60.988405 141.154514 61.784014 
C 141.154514 62.579623 141.470613 63.342754 142.033193 63.905334 
C 142.595774 64.467915 143.358905 64.784014 144.154514 64.784014 
z
" clip-path="url(#pd92454d6d6)" style="fill: #365c8d; stroke: #ffffff; stroke-width: 0.48"/>
    <path d="M 117.271927 85.399426 
C 118.067537 85.399426 118.830667 85.083327 119.393248 84.520747 
C 119.955828 83.958166 120.271927 83.195036 120.271927 82.399426 
C 120.271927 81.603817 119.955828 80.840687 119.393248 80.278106 
C 118.830667 79.715525 118.067537 79.399426 117.271927 79.399426 
C 116.476318 79.399426 115.713188 79.715525 115.150607 80.278106 
C 114.588026 80.840687 114.271927 81.603817 114.271927 82.399426 
C 114.271927 83.195036 114.588026 83.958166 115.150607 84.520747 
C 115.713188 85.083327 116.476318 85.399426 117.271927 85.399426 
z
" clip-path="url(#pd92454d6d6)" style="fill: #4ac16d; stroke: #ffffff; stroke-width: 0.48"/>
    <path d="M 80.557501 70.152813 
C 81.353111 70.152813 82.116241 69.836714 82.678822 69.274133 
C 83.241403 68.711552 83.557501 67.948422 83.557501 67.152813 
C 83.557501 66.357204 83.241403 65.594073 82.678822 65.031492 
C 82.116241 64.468912 81.353111 64.152813 80.557501 64.152813 
C 79.761892 64.152813 78.998762 64.468912 78.436181 65.031492 
C 77.8736 65.594073 77.557501 66.357204 77.557501 67.152813 
C 77.557501 67.948422 77.8736 68.711552 78.436181 69.274133 
C 78.998762 69.836714 79.761892 70.152813 80.557501 70.152813 
z
" clip-path="url(#pd92454d6d6)" style="fill: #a0da39; stroke: #ffffff; stroke-width: 0.48"/>
    <path d="M 145.823724 31.318182 
C 146.619333 31.318182 147.382464 31.002083 147.945044 30.439502 
C 148.507625 29.876921 148.823724 29.113791 148.823724 28.318182 
C 148.823724 27.522573 148.507625 26.759442 147.945044 26.196861 
C 147.382464 25.634281 146.619333 25.318182 145.823724 25.318182 
C 145.028115 25.318182 144.264984 25.634281 143.702404 26.196861 
C 143.139823 26.759442 142.823724 27.522573 142.823724 28.318182 
C 142.823724 29.113791 143.139823 29.876921 143.702404 30.439502 
C 144.264984 31.002083 145.028115 31.318182 145.823724 31.318182 
z
" clip-path="url(#pd92454d6d6)" style="fill: #46327e; stroke: #ffffff; stroke-width: 0.48"/>
    <path d="M 141.235367 78.939305 
C 142.030976 78.939305 142.794106 78.623206 143.356687 78.060625 
C 143.919268 77.498045 144.235367 76.734914 144.235367 75.939305 
C 144.235367 75.143696 143.919268 74.380565 143.356687 73.817985 
C 142.794106 73.255404 142.030976 72.939305 141.235367 72.939305 
C 140.439757 72.939305 139.676627 73.255404 139.114046 73.817985 
C 138.551466 74.380565 138.235367 75.143696 138.235367 75.939305 
C 138.235367 76.734914 138.551466 77.498045 139.114046 78.060625 
C 139.676627 78.623206 140.439757 78.939305 141.235367 78.939305 
z
" clip-path="url(#pd92454d6d6)" style="fill: #1fa187; stroke: #ffffff; stroke-width: 0.48"/>
    <path d="M 122.493689 55.722068 
L 123.993689 54.222068 
L 125.493689 55.722068 
L 126.993689 54.222068 
L 125.493689 52.722068 
L 126.993689 51.222068 
L 125.493689 49.722068 
L 123.993689 51.222068 
L 122.493689 49.722068 
L 120.993689 51.222068 
L 122.493689 52.722068 
L 120.993689 54.222068 
z
" clip-path="url(#pd92454d6d6)" style="fill: #277f8e; stroke: #ffffff; stroke-width: 0.48"/>
    <path d="M 120.559392 51.505126 
L 122.059392 50.005126 
L 123.559392 51.505126 
L 125.059392 50.005126 
L 123.559392 48.505126 
L 125.059392 47.005126 
L 123.559392 45.505126 
L 122.059392 47.005126 
L 120.559392 45.505126 
L 119.059392 47.005126 
L 120.559392 48.505126 
L 119.059392 50.005126 
z
" clip-path="url(#pd92454d6d6)" style="fill: #365c8d; stroke: #ffffff; stroke-width: 0.48"/>
    <path d="M 96.563907 81.63653 
L 98.063907 80.13653 
L 99.563907 81.63653 
L 101.063907 80.13653 
L 99.563907 78.63653 
L 101.063907 77.13653 
L 99.563907 75.63653 
L 98.063907 77.13653 
L 96.563907 75.63653 
L 95.063907 77.13653 
L 96.563907 78.63653 
L 95.063907 80.13653 
z
" clip-path="url(#pd92454d6d6)" style="fill: #4ac16d; stroke: #ffffff; stroke-width: 0.48"/>
    <path d="M 69.229212 80.893032 
L 70.729212 79.393032 
L 72.229212 80.893032 
L 73.729212 79.393032 
L 72.229212 77.893032 
L 73.729212 76.393032 
L 72.229212 74.893032 
L 70.729212 76.393032 
L 69.229212 74.893032 
L 67.729212 76.393032 
L 69.229212 77.893032 
L 67.729212 79.393032 
z
" clip-path="url(#pd92454d6d6)" style="fill: #a0da39; stroke: #ffffff; stroke-width: 0.48"/>
    <path d="M 128.636054 34.733791 
L 130.136054 33.233791 
L 131.636054 34.733791 
L 133.136054 33.233791 
L 131.636054 31.733791 
L 133.136054 30.233791 
L 131.636054 28.733791 
L 130.136054 30.233791 
L 128.636054 28.733791 
L 127.136054 30.233791 
L 128.636054 31.733791 
L 127.136054 33.233791 
z
" clip-path="url(#pd92454d6d6)" style="fill: #46327e; stroke: #ffffff; stroke-width: 0.48"/>
    <path d="M 113.43393 66.650631 
L 114.93393 65.150631 
L 116.43393 66.650631 
L 117.93393 65.150631 
L 116.43393 63.650631 
L 117.93393 62.150631 
L 116.43393 60.650631 
L 114.93393 62.150631 
L 113.43393 60.650631 
L 111.93393 62.150631 
L 113.43393 63.650631 
L 111.93393 65.150631 
z
" clip-path="url(#pd92454d6d6)" style="fill: #1fa187; stroke: #ffffff; stroke-width: 0.48"/>
   </g>
   <g id="PathCollection_2"/>
   <g id="PathCollection_3"/>
   <g id="PathCollection_4"/>
   <g id="PathCollection_5"/>
   <g id="PathCollection_6"/>
   <g id="PathCollection_7"/>
   <g id="PathCollection_8"/>
   <g id="PathCollection_9"/>
   <g id="matplotlib.axis_1">
    <g id="xtick_1">
     <g id="line2d_1">
      <path d="M 70.069284 102.2 
L 70.069284 24.8 
" clip-path="url(#pd92454d6d6)" style="fill: none; stroke: #b0b0b0; stroke-width: 0.8; stroke-linecap: square"/>
     </g>
     <g id="line2d_2">
      <defs>
       <path id="mef2f603dc5" d="M 0 0 
L 0 3.5 
" style="stroke: #000000; stroke-width: 0.8"/>
      </defs>
      <g>
       <use xlink:href="#mef2f603dc5" x="70.069284" y="102.2" style="stroke: #000000; stroke-width: 0.8"/>
      </g>
     </g>
     <g id="text_1">
      <!-- 0.02 -->
      <g transform="translate(58.936472 116.798437)scale(0.1 -0.1)">
       <defs>
        <path id="DejaVuSans-30" d="M 2034 4250 
Q 1547 4250 1301 3770 
Q 1056 3291 1056 2328 
Q 1056 1369 1301 889 
Q 1547 409 2034 409 
Q 2525 409 2770 889 
Q 3016 1369 3016 2328 
Q 3016 3291 2770 3770 
Q 2525 4250 2034 4250 
z
M 2034 4750 
Q 2819 4750 3233 4129 
Q 3647 3509 3647 2328 
Q 3647 1150 3233 529 
Q 2819 -91 2034 -91 
Q 1250 -91 836 529 
Q 422 1150 422 2328 
Q 422 3509 836 4129 
Q 1250 4750 2034 4750 
z
" transform="scale(0.015625)"/>
        <path id="DejaVuSans-2e" d="M 684 794 
L 1344 794 
L 1344 0 
L 684 0 
L 684 794 
z
" transform="scale(0.015625)"/>
        <path id="DejaVuSans-32" d="M 1228 531 
L 3431 531 
L 3431 0 
L 469 0 
L 469 531 
Q 828 903 1448 1529 
Q 2069 2156 2228 2338 
Q 2531 2678 2651 2914 
Q 2772 3150 2772 3378 
Q 2772 3750 2511 3984 
Q 2250 4219 1831 4219 
Q 1534 4219 1204 4116 
Q 875 4013 500 3803 
L 500 4441 
Q 881 4594 1212 4672 
Q 1544 4750 1819 4750 
Q 2544 4750 2975 4387 
Q 3406 4025 3406 3419 
Q 3406 3131 3298 2873 
Q 3191 2616 2906 2266 
Q 2828 2175 2409 1742 
Q 1991 1309 1228 531 
z
" transform="scale(0.015625)"/>
       </defs>
       <use xlink:href="#DejaVuSans-30"/>
       <use xlink:href="#DejaVuSans-2e" x="63.623047"/>
       <use xlink:href="#DejaVuSans-30" x="95.410156"/>
       <use xlink:href="#DejaVuSans-32" x="159.033203"/>
      </g>
     </g>
    </g>
    <g id="xtick_2">
     <g id="line2d_3">
      <path d="M 113.67296 102.2 
L 113.67296 24.8 
" clip-path="url(#pd92454d6d6)" style="fill: none; stroke: #b0b0b0; stroke-width: 0.8; stroke-linecap: square"/>
     </g>
     <g id="line2d_4">
      <g>
       <use xlink:href="#mef2f603dc5" x="113.67296" y="102.2" style="stroke: #000000; stroke-width: 0.8"/>
      </g>
     </g>
     <g id="text_2">
      <!-- 0.04 -->
      <g transform="translate(102.540147 116.798437)scale(0.1 -0.1)">
       <defs>
        <path id="DejaVuSans-34" d="M 2419 4116 
L 825 1625 
L 2419 1625 
L 2419 4116 
z
M 2253 4666 
L 3047 4666 
L 3047 1625 
L 3713 1625 
L 3713 1100 
L 3047 1100 
L 3047 0 
L 2419 0 
L 2419 1100 
L 313 1100 
L 313 1709 
L 2253 4666 
z
" transform="scale(0.015625)"/>
       </defs>
       <use xlink:href="#DejaVuSans-30"/>
       <use xlink:href="#DejaVuSans-2e" x="63.623047"/>
       <use xlink:href="#DejaVuSans-30" x="95.410156"/>
       <use xlink:href="#DejaVuSans-34" x="159.033203"/>
      </g>
     </g>
    </g>
    <g id="text_3">
     <!-- mCHN-mC -->
     <g transform="translate(76.034302 130.476562)scale(0.1 -0.1)">
      <defs>
       <path id="DejaVuSans-6d" d="M 3328 2828 
Q 3544 3216 3844 3400 
Q 4144 3584 4550 3584 
Q 5097 3584 5394 3201 
Q 5691 2819 5691 2113 
L 5691 0 
L 5113 0 
L 5113 2094 
Q 5113 2597 4934 2840 
Q 4756 3084 4391 3084 
Q 3944 3084 3684 2787 
Q 3425 2491 3425 1978 
L 3425 0 
L 2847 0 
L 2847 2094 
Q 2847 2600 2669 2842 
Q 2491 3084 2119 3084 
Q 1678 3084 1418 2786 
Q 1159 2488 1159 1978 
L 1159 0 
L 581 0 
L 581 3500 
L 1159 3500 
L 1159 2956 
Q 1356 3278 1631 3431 
Q 1906 3584 2284 3584 
Q 2666 3584 2933 3390 
Q 3200 3197 3328 2828 
z
" transform="scale(0.015625)"/>
       <path id="DejaVuSans-43" d="M 4122 4306 
L 4122 3641 
Q 3803 3938 3442 4084 
Q 3081 4231 2675 4231 
Q 1875 4231 1450 3742 
Q 1025 3253 1025 2328 
Q 1025 1406 1450 917 
Q 1875 428 2675 428 
Q 3081 428 3442 575 
Q 3803 722 4122 1019 
L 4122 359 
Q 3791 134 3420 21 
Q 3050 -91 2638 -91 
Q 1578 -91 968 557 
Q 359 1206 359 2328 
Q 359 3453 968 4101 
Q 1578 4750 2638 4750 
Q 3056 4750 3426 4639 
Q 3797 4528 4122 4306 
z
" transform="scale(0.015625)"/>
       <path id="DejaVuSans-48" d="M 628 4666 
L 1259 4666 
L 1259 2753 
L 3553 2753 
L 3553 4666 
L 4184 4666 
L 4184 0 
L 3553 0 
L 3553 2222 
L 1259 2222 
L 1259 0 
L 628 0 
L 628 4666 
z
" transform="scale(0.015625)"/>
       <path id="DejaVuSans-4e" d="M 628 4666 
L 1478 4666 
L 3547 763 
L 3547 4666 
L 4159 4666 
L 4159 0 
L 3309 0 
L 1241 3903 
L 1241 0 
L 628 0 
L 628 4666 
z
" transform="scale(0.015625)"/>
       <path id="DejaVuSans-2d" d="M 313 2009 
L 1997 2009 
L 1997 1497 
L 313 1497 
L 313 2009 
z
" transform="scale(0.015625)"/>
      </defs>
      <use xlink:href="#DejaVuSans-6d"/>
      <use xlink:href="#DejaVuSans-43" x="97.412109"/>
      <use xlink:href="#DejaVuSans-48" x="167.236328"/>
      <use xlink:href="#DejaVuSans-4e" x="242.431641"/>
      <use xlink:href="#DejaVuSans-2d" x="317.236328"/>
      <use xlink:href="#DejaVuSans-6d" x="353.320312"/>
      <use xlink:href="#DejaVuSans-43" x="450.732422"/>
     </g>
    </g>
   </g>
   <g id="matplotlib.axis_2">
    <g id="ytick_1">
     <g id="line2d_5">
      <path d="M 53.925 92.362297 
L 150.199854 92.362297 
" clip-path="url(#pd92454d6d6)" style="fill: none; stroke: #b0b0b0; stroke-width: 0.8; stroke-linecap: square"/>
     </g>
     <g id="line2d_6">
      <defs>
       <path id="me8386242e9" d="M 0 0 
L -3.5 0 
" style="stroke: #000000; stroke-width: 0.8"/>
      </defs>
      <g>
       <use xlink:href="#me8386242e9" x="53.925" y="92.362297" style="stroke: #000000; stroke-width: 0.8"/>
      </g>
     </g>
     <g id="text_4">
      <!-- 0.00 -->
      <g transform="translate(24.659375 96.161516)scale(0.1 -0.1)">
       <use xlink:href="#DejaVuSans-30"/>
       <use xlink:href="#DejaVuSans-2e" x="63.623047"/>
       <use xlink:href="#DejaVuSans-30" x="95.410156"/>
       <use xlink:href="#DejaVuSans-30" x="159.033203"/>
      </g>
     </g>
    </g>
    <g id="ytick_2">
     <g id="line2d_7">
      <path d="M 53.925 41.605352 
L 150.199854 41.605352 
" clip-path="url(#pd92454d6d6)" style="fill: none; stroke: #b0b0b0; stroke-width: 0.8; stroke-linecap: square"/>
     </g>
     <g id="line2d_8">
      <g>
       <use xlink:href="#me8386242e9" x="53.925" y="41.605352" style="stroke: #000000; stroke-width: 0.8"/>
      </g>
     </g>
     <g id="text_5">
      <!-- 0.01 -->
      <g transform="translate(24.659375 45.404571)scale(0.1 -0.1)">
       <defs>
        <path id="DejaVuSans-31" d="M 794 531 
L 1825 531 
L 1825 4091 
L 703 3866 
L 703 4441 
L 1819 4666 
L 2450 4666 
L 2450 531 
L 3481 531 
L 3481 0 
L 794 0 
L 794 531 
z
" transform="scale(0.015625)"/>
       </defs>
       <use xlink:href="#DejaVuSans-30"/>
       <use xlink:href="#DejaVuSans-2e" x="63.623047"/>
       <use xlink:href="#DejaVuSans-30" x="95.410156"/>
       <use xlink:href="#DejaVuSans-31" x="159.033203"/>
      </g>
     </g>
    </g>
    <g id="text_6">
     <!-- mCHN-hmC -->
     <g transform="translate(18.579688 92.696875)rotate(-90)scale(0.1 -0.1)">
      <defs>
       <path id="DejaVuSans-68" d="M 3513 2113 
L 3513 0 
L 2938 0 
L 2938 2094 
Q 2938 2591 2744 2837 
Q 2550 3084 2163 3084 
Q 1697 3084 1428 2787 
Q 1159 2491 1159 1978 
L 1159 0 
L 581 0 
L 581 4863 
L 1159 4863 
L 1159 2956 
Q 1366 3272 1645 3428 
Q 1925 3584 2291 3584 
Q 2894 3584 3203 3211 
Q 3513 2838 3513 2113 
z
" transform="scale(0.015625)"/>
      </defs>
      <use xlink:href="#DejaVuSans-6d"/>
      <use xlink:href="#DejaVuSans-43" x="97.412109"/>
      <use xlink:href="#DejaVuSans-48" x="167.236328"/>
      <use xlink:href="#DejaVuSans-4e" x="242.431641"/>
      <use xlink:href="#DejaVuSans-2d" x="317.236328"/>
      <use xlink:href="#DejaVuSans-68" x="353.320312"/>
      <use xlink:href="#DejaVuSans-6d" x="416.699219"/>
      <use xlink:href="#DejaVuSans-43" x="514.111328"/>
     </g>
    </g>
   </g>
   <g id="patch_3">
    <path d="M 53.925 102.2 
L 53.925 24.8 
" style="fill: none; stroke: #000000; stroke-width: 0.8; stroke-linejoin: miter; stroke-linecap: square"/>
   </g>
   <g id="patch_4">
    <path d="M 53.925 102.2 
L 150.199854 102.2 
" style="fill: none; stroke: #000000; stroke-width: 0.8; stroke-linejoin: miter; stroke-linecap: square"/>
   </g>
   <g id="text_7">
    <!-- flank -->
    <g transform="translate(89.785083 18.8)scale(0.1 -0.1)">
     <defs>
      <path id="DejaVuSans-66" d="M 2375 4863 
L 2375 4384 
L 1825 4384 
Q 1516 4384 1395 4259 
Q 1275 4134 1275 3809 
L 1275 3500 
L 2222 3500 
L 2222 3053 
L 1275 3053 
L 1275 0 
L 697 0 
L 697 3053 
L 147 3053 
L 147 3500 
L 697 3500 
L 697 3744 
Q 697 4328 969 4595 
Q 1241 4863 1831 4863 
L 2375 4863 
z
" transform="scale(0.015625)"/>
      <path id="DejaVuSans-6c" d="M 603 4863 
L 1178 4863 
L 1178 0 
L 603 0 
L 603 4863 
z
" transform="scale(0.015625)"/>
      <path id="DejaVuSans-61" d="M 2194 1759 
Q 1497 1759 1228 1600 
Q 959 1441 959 1056 
Q 959 750 1161 570 
Q 1363 391 1709 391 
Q 2188 391 2477 730 
Q 2766 1069 2766 1631 
L 2766 1759 
L 2194 1759 
z
M 3341 1997 
L 3341 0 
L 2766 0 
L 2766 531 
Q 2569 213 2275 61 
Q 1981 -91 1556 -91 
Q 1019 -91 701 211 
Q 384 513 384 1019 
Q 384 1609 779 1909 
Q 1175 2209 1959 2209 
L 2766 2209 
L 2766 2266 
Q 2766 2663 2505 2880 
Q 2244 3097 1772 3097 
Q 1472 3097 1187 3025 
Q 903 2953 641 2809 
L 641 3341 
Q 956 3463 1253 3523 
Q 1550 3584 1831 3584 
Q 2591 3584 2966 3190 
Q 3341 2797 3341 1997 
z
" transform="scale(0.015625)"/>
      <path id="DejaVuSans-6e" d="M 3513 2113 
L 3513 0 
L 2938 0 
L 2938 2094 
Q 2938 2591 2744 2837 
Q 2550 3084 2163 3084 
Q 1697 3084 1428 2787 
Q 1159 2491 1159 1978 
L 1159 0 
L 581 0 
L 581 3500 
L 1159 3500 
L 1159 2956 
Q 1366 3272 1645 3428 
Q 1925 3584 2291 3584 
Q 2894 3584 3203 3211 
Q 3513 2838 3513 2113 
z
" transform="scale(0.015625)"/>
      <path id="DejaVuSans-6b" d="M 581 4863 
L 1159 4863 
L 1159 1991 
L 2875 3500 
L 3609 3500 
L 1753 1863 
L 3688 0 
L 2938 0 
L 1159 1709 
L 1159 0 
L 581 0 
L 581 4863 
z
" transform="scale(0.015625)"/>
     </defs>
     <use xlink:href="#DejaVuSans-66"/>
     <use xlink:href="#DejaVuSans-6c" x="35.205078"/>
     <use xlink:href="#DejaVuSans-61" x="62.988281"/>
     <use xlink:href="#DejaVuSans-6e" x="124.267578"/>
     <use xlink:href="#DejaVuSans-6b" x="187.646484"/>
    </g>
   </g>
  </g>
  <g id="axes_2">
   <g id="patch_5">
    <path d="M 164.985 102.2 
L 261.259854 102.2 
L 261.259854 24.8 
L 164.985 24.8 
z
" style="fill: #ffffff"/>
   </g>
   <g id="PathCollection_10">
    <path d="M 188.50518 99.564237 
C 189.300789 99.564237 190.063919 99.248138 190.6265 98.685557 
C 191.189081 98.122976 191.50518 97.359846 191.50518 96.564237 
C 191.50518 95.768627 191.189081 95.005497 190.6265 94.442916 
C 190.063919 93.880335 189.300789 93.564237 188.50518 93.564237 
C 187.70957 93.564237 186.94644 93.880335 186.383859 94.442916 
C 185.821278 95.005497 185.50518 95.768627 185.50518 96.564237 
C 185.50518 97.359846 185.821278 98.122976 186.383859 98.685557 
C 186.94644 99.248138 187.70957 99.564237 188.50518 99.564237 
z
" clip-path="url(#pfeefff19a4)" style="fill: #277f8e; stroke: #ffffff; stroke-width: 0.48"/>
    <path d="M 190.174797 97.230932 
C 190.970406 97.230932 191.733536 96.914834 192.296117 96.352253 
C 192.858698 95.789672 193.174797 95.026542 193.174797 94.230932 
C 193.174797 93.435323 192.858698 92.672193 192.296117 92.109612 
C 191.733536 91.547031 190.970406 91.230932 190.174797 91.230932 
C 189.379187 91.230932 188.616057 91.547031 188.053476 92.109612 
C 187.490896 92.672193 187.174797 93.435323 187.174797 94.230932 
C 187.174797 95.026542 187.490896 95.789672 188.053476 96.352253 
C 188.616057 96.914834 189.379187 97.230932 190.174797 97.230932 
z
" clip-path="url(#pfeefff19a4)" style="fill: #365c8d; stroke: #ffffff; stroke-width: 0.48"/>
    <path d="M 174.207381 97.584625 
C 175.002991 97.584625 175.766121 97.268526 176.328702 96.705946 
C 176.891282 96.143365 177.207381 95.380235 177.207381 94.584625 
C 177.207381 93.789016 176.891282 93.025886 176.328702 92.463305 
C 175.766121 91.900724 175.002991 91.584625 174.207381 91.584625 
C 173.411772 91.584625 172.648642 91.900724 172.086061 92.463305 
C 171.52348 93.025886 171.207381 93.789016 171.207381 94.584625 
C 171.207381 95.380235 171.52348 96.143365 172.086061 96.705946 
C 172.648642 97.268526 173.411772 97.584625 174.207381 97.584625 
z
" clip-path="url(#pfeefff19a4)" style="fill: #4ac16d; stroke: #ffffff; stroke-width: 0.48"/>
    <path d="M 172.380586 80.002119 
C 173.176196 80.002119 173.939326 79.68602 174.501907 79.12344 
C 175.064487 78.560859 175.380586 77.797729 175.380586 77.002119 
C 175.380586 76.20651 175.064487 75.44338 174.501907 74.880799 
C 173.939326 74.318218 173.176196 74.002119 172.380586 74.002119 
C 171.584977 74.002119 170.821847 74.318218 170.259266 74.880799 
C 169.696685 75.44338 169.380586 76.20651 169.380586 77.002119 
C 169.380586 77.797729 169.696685 78.560859 170.259266 79.12344 
C 170.821847 79.68602 171.584977 80.002119 172.380586 80.002119 
z
" clip-path="url(#pfeefff19a4)" style="fill: #a0da39; stroke: #ffffff; stroke-width: 0.48"/>
    <path d="M 194.931515 71.829696 
C 195.727124 71.829696 196.490254 71.513597 197.052835 70.951016 
C 197.615416 70.388435 197.931515 69.625305 197.931515 68.829696 
C 197.931515 68.034087 197.615416 67.270956 197.052835 66.708375 
C 196.490254 66.145795 195.727124 65.829696 194.931515 65.829696 
C 194.135905 65.829696 193.372775 66.145795 192.810194 66.708375 
C 192.247614 67.270956 191.931515 68.034087 191.931515 68.829696 
C 191.931515 69.625305 192.247614 70.388435 192.810194 70.951016 
C 193.372775 71.513597 194.135905 71.829696 194.931515 71.829696 
z
" clip-path="url(#pfeefff19a4)" style="fill: #46327e; stroke: #ffffff; stroke-width: 0.48"/>
    <path d="M 185.724819 101.681818 
C 186.520429 101.681818 187.283559 101.365719 187.84614 100.803139 
C 188.40872 100.240558 188.724819 99.477427 188.724819 98.681818 
C 188.724819 97.886209 188.40872 97.123079 187.84614 96.560498 
C 187.283559 95.997917 186.520429 95.681818 185.724819 95.681818 
C 184.92921 95.681818 184.16608 95.997917 183.603499 96.560498 
C 183.040918 97.123079 182.724819 97.886209 182.724819 98.681818 
C 182.724819 99.477427 183.040918 100.240558 183.603499 100.803139 
C 184.16608 101.365719 184.92921 101.681818 185.724819 101.681818 
z
" clip-path="url(#pfeefff19a4)" style="fill: #1fa187; stroke: #ffffff; stroke-width: 0.48"/>
    <path d="M 181.209549 93.971964 
L 182.709549 92.471964 
L 184.209549 93.971964 
L 185.709549 92.471964 
L 184.209549 90.971964 
L 185.709549 89.471964 
L 184.209549 87.971964 
L 182.709549 89.471964 
L 181.209549 87.971964 
L 179.709549 89.471964 
L 181.209549 90.971964 
L 179.709549 92.471964 
z
" clip-path="url(#pfeefff19a4)" style="fill: #277f8e; stroke: #ffffff; stroke-width: 0.48"/>
    <path d="M 180.407454 88.586016 
L 181.907454 87.086016 
L 183.407454 88.586016 
L 184.907454 87.086016 
L 183.407454 85.586016 
L 184.907454 84.086016 
L 183.407454 82.586016 
L 181.907454 84.086016 
L 180.407454 82.586016 
L 178.907454 84.086016 
L 180.407454 85.586016 
L 178.907454 87.086016 
z
" clip-path="url(#pfeefff19a4)" style="fill: #365c8d; stroke: #ffffff; stroke-width: 0.48"/>
    <path d="M 168.345287 100.142041 
L 169.845287 98.642041 
L 171.345287 100.142041 
L 172.845287 98.642041 
L 171.345287 97.142041 
L 172.845287 95.642041 
L 171.345287 94.142041 
L 169.845287 95.642041 
L 168.345287 94.142041 
L 166.845287 95.642041 
L 168.345287 97.142041 
L 166.845287 98.642041 
z
" clip-path="url(#pfeefff19a4)" style="fill: #4ac16d; stroke: #ffffff; stroke-width: 0.48"/>
    <path d="M 167.86113 91.202913 
L 169.36113 89.702913 
L 170.86113 91.202913 
L 172.36113 89.702913 
L 170.86113 88.202913 
L 172.36113 86.702913 
L 170.86113 85.202913 
L 169.36113 86.702913 
L 167.86113 85.202913 
L 166.36113 86.702913 
L 167.86113 88.202913 
L 166.36113 89.702913 
z
" clip-path="url(#pfeefff19a4)" style="fill: #a0da39; stroke: #ffffff; stroke-width: 0.48"/>
    <path d="M 190.460892 83.443935 
L 191.960892 81.943935 
L 193.460892 83.443935 
L 194.960892 81.943935 
L 193.460892 80.443935 
L 194.960892 78.943935 
L 193.460892 77.443935 
L 191.960892 78.943935 
L 190.460892 77.443935 
L 188.960892 78.943935 
L 190.460892 80.443935 
L 188.960892 81.943935 
z
" clip-path="url(#pfeefff19a4)" style="fill: #46327e; stroke: #ffffff; stroke-width: 0.48"/>
    <path d="M 175.390217 95.195694 
L 176.890217 93.695694 
L 178.390217 95.195694 
L 179.890217 93.695694 
L 178.390217 92.195694 
L 179.890217 90.695694 
L 178.390217 89.195694 
L 176.890217 90.695694 
L 175.390217 89.195694 
L 173.890217 90.695694 
L 175.390217 92.195694 
L 173.890217 93.695694 
z
" clip-path="url(#pfeefff19a4)" style="fill: #1fa187; stroke: #ffffff; stroke-width: 0.48"/>
   </g>
   <g id="matplotlib.axis_3">
    <g id="xtick_3">
     <g id="line2d_9">
      <path d="M 181.129284 102.2 
L 181.129284 24.8 
" clip-path="url(#pfeefff19a4)" style="fill: none; stroke: #b0b0b0; stroke-width: 0.8; stroke-linecap: square"/>
     </g>
     <g id="line2d_10">
      <g>
       <use xlink:href="#mef2f603dc5" x="181.129284" y="102.2" style="stroke: #000000; stroke-width: 0.8"/>
      </g>
     </g>
     <g id="text_8">
      <!-- 0.02 -->
      <g transform="translate(169.996472 116.798437)scale(0.1 -0.1)">
       <use xlink:href="#DejaVuSans-30"/>
       <use xlink:href="#DejaVuSans-2e" x="63.623047"/>
       <use xlink:href="#DejaVuSans-30" x="95.410156"/>
       <use xlink:href="#DejaVuSans-32" x="159.033203"/>
      </g>
     </g>
    </g>
    <g id="xtick_4">
     <g id="line2d_11">
      <path d="M 224.73296 102.2 
L 224.73296 24.8 
" clip-path="url(#pfeefff19a4)" style="fill: none; stroke: #b0b0b0; stroke-width: 0.8; stroke-linecap: square"/>
     </g>
     <g id="line2d_12">
      <g>
       <use xlink:href="#mef2f603dc5" x="224.73296" y="102.2" style="stroke: #000000; stroke-width: 0.8"/>
      </g>
     </g>
     <g id="text_9">
      <!-- 0.04 -->
      <g transform="translate(213.600147 116.798437)scale(0.1 -0.1)">
       <use xlink:href="#DejaVuSans-30"/>
       <use xlink:href="#DejaVuSans-2e" x="63.623047"/>
       <use xlink:href="#DejaVuSans-30" x="95.410156"/>
       <use xlink:href="#DejaVuSans-34" x="159.033203"/>
      </g>
     </g>
    </g>
    <g id="text_10">
     <!-- mCHN-mC -->
     <g transform="translate(187.094302 130.476562)scale(0.1 -0.1)">
      <use xlink:href="#DejaVuSans-6d"/>
      <use xlink:href="#DejaVuSans-43" x="97.412109"/>
      <use xlink:href="#DejaVuSans-48" x="167.236328"/>
      <use xlink:href="#DejaVuSans-4e" x="242.431641"/>
      <use xlink:href="#DejaVuSans-2d" x="317.236328"/>
      <use xlink:href="#DejaVuSans-6d" x="353.320312"/>
      <use xlink:href="#DejaVuSans-43" x="450.732422"/>
     </g>
    </g>
   </g>
   <g id="matplotlib.axis_4">
    <g id="ytick_3">
     <g id="line2d_13">
      <path d="M 164.985 92.362297 
L 261.259854 92.362297 
" clip-path="url(#pfeefff19a4)" style="fill: none; stroke: #b0b0b0; stroke-width: 0.8; stroke-linecap: square"/>
     </g>
     <g id="line2d_14">
      <g>
       <use xlink:href="#me8386242e9" x="164.985" y="92.362297" style="stroke: #000000; stroke-width: 0.8"/>
      </g>
     </g>
    </g>
    <g id="ytick_4">
     <g id="line2d_15">
      <path d="M 164.985 41.605352 
L 261.259854 41.605352 
" clip-path="url(#pfeefff19a4)" style="fill: none; stroke: #b0b0b0; stroke-width: 0.8; stroke-linecap: square"/>
     </g>
     <g id="line2d_16">
      <g>
       <use xlink:href="#me8386242e9" x="164.985" y="41.605352" style="stroke: #000000; stroke-width: 0.8"/>
      </g>
     </g>
    </g>
   </g>
   <g id="patch_6">
    <path d="M 164.985 102.2 
L 164.985 24.8 
" style="fill: none; stroke: #000000; stroke-width: 0.8; stroke-linejoin: miter; stroke-linecap: square"/>
   </g>
   <g id="patch_7">
    <path d="M 164.985 102.2 
L 261.259854 102.2 
" style="fill: none; stroke: #000000; stroke-width: 0.8; stroke-linejoin: miter; stroke-linecap: square"/>
   </g>
   <g id="text_11">
    <!-- L1 -->
    <g transform="translate(207.155239 18.8)scale(0.1 -0.1)">
     <defs>
      <path id="DejaVuSans-4c" d="M 628 4666 
L 1259 4666 
L 1259 531 
L 3531 531 
L 3531 0 
L 628 0 
L 628 4666 
z
" transform="scale(0.015625)"/>
     </defs>
     <use xlink:href="#DejaVuSans-4c"/>
     <use xlink:href="#DejaVuSans-31" x="55.712891"/>
    </g>
   </g>
  </g>
  <g id="text_12">
   <!-- L1 class: L1HS -->
   <g transform="translate(149.815938 6.238125)scale(0.12 -0.12)">
    <defs>
     <path id="DejaVuSans-20" transform="scale(0.015625)"/>
     <path id="DejaVuSans-63" d="M 3122 3366 
L 3122 2828 
Q 2878 2963 2633 3030 
Q 2388 3097 2138 3097 
Q 1578 3097 1268 2742 
Q 959 2388 959 1747 
Q 959 1106 1268 751 
Q 1578 397 2138 397 
Q 2388 397 2633 464 
Q 2878 531 3122 666 
L 3122 134 
Q 2881 22 2623 -34 
Q 2366 -91 2075 -91 
Q 1284 -91 818 406 
Q 353 903 353 1747 
Q 353 2603 823 3093 
Q 1294 3584 2113 3584 
Q 2378 3584 2631 3529 
Q 2884 3475 3122 3366 
z
" transform="scale(0.015625)"/>
     <path id="DejaVuSans-73" d="M 2834 3397 
L 2834 2853 
Q 2591 2978 2328 3040 
Q 2066 3103 1784 3103 
Q 1356 3103 1142 2972 
Q 928 2841 928 2578 
Q 928 2378 1081 2264 
Q 1234 2150 1697 2047 
L 1894 2003 
Q 2506 1872 2764 1633 
Q 3022 1394 3022 966 
Q 3022 478 2636 193 
Q 2250 -91 1575 -91 
Q 1294 -91 989 -36 
Q 684 19 347 128 
L 347 722 
Q 666 556 975 473 
Q 1284 391 1588 391 
Q 1994 391 2212 530 
Q 2431 669 2431 922 
Q 2431 1156 2273 1281 
Q 2116 1406 1581 1522 
L 1381 1569 
Q 847 1681 609 1914 
Q 372 2147 372 2553 
Q 372 3047 722 3315 
Q 1072 3584 1716 3584 
Q 2034 3584 2315 3537 
Q 2597 3491 2834 3397 
z
" transform="scale(0.015625)"/>
     <path id="DejaVuSans-3a" d="M 750 794 
L 1409 794 
L 1409 0 
L 750 0 
L 750 794 
z
M 750 3309 
L 1409 3309 
L 1409 2516 
L 750 2516 
L 750 3309 
z
" transform="scale(0.015625)"/>
     <path id="DejaVuSans-53" d="M 3425 4513 
L 3425 3897 
Q 3066 4069 2747 4153 
Q 2428 4238 2131 4238 
Q 1616 4238 1336 4038 
Q 1056 3838 1056 3469 
Q 1056 3159 1242 3001 
Q 1428 2844 1947 2747 
L 2328 2669 
Q 3034 2534 3370 2195 
Q 3706 1856 3706 1288 
Q 3706 609 3251 259 
Q 2797 -91 1919 -91 
Q 1588 -91 1214 -16 
Q 841 59 441 206 
L 441 856 
Q 825 641 1194 531 
Q 1563 422 1919 422 
Q 2459 422 2753 634 
Q 3047 847 3047 1241 
Q 3047 1584 2836 1778 
Q 2625 1972 2144 2069 
L 1759 2144 
Q 1053 2284 737 2584 
Q 422 2884 422 3419 
Q 422 4038 858 4394 
Q 1294 4750 2059 4750 
Q 2388 4750 2728 4690 
Q 3069 4631 3425 4513 
z
" transform="scale(0.015625)"/>
    </defs>
    <use xlink:href="#DejaVuSans-4c"/>
    <use xlink:href="#DejaVuSans-31" x="55.712891"/>
    <use xlink:href="#DejaVuSans-20" x="119.335938"/>
    <use xlink:href="#DejaVuSans-63" x="151.123047"/>
    <use xlink:href="#DejaVuSans-6c" x="206.103516"/>
    <use xlink:href="#DejaVuSans-61" x="233.886719"/>
    <use xlink:href="#DejaVuSans-73" x="295.166016"/>
    <use xlink:href="#DejaVuSans-73" x="347.265625"/>
    <use xlink:href="#DejaVuSans-3a" x="399.365234"/>
    <use xlink:href="#DejaVuSans-20" x="433.056641"/>
    <use xlink:href="#DejaVuSans-4c" x="464.84375"/>
    <use xlink:href="#DejaVuSans-31" x="520.556641"/>
    <use xlink:href="#DejaVuSans-48" x="584.179688"/>
    <use xlink:href="#DejaVuSans-53" x="659.375"/>
   </g>
  </g>
  <g id="legend_1">
   <g id="text_13">
    <!-- age -->
    <g transform="translate(294.998438 8.290625)scale(0.1 -0.1)">
     <defs>
      <path id="DejaVuSans-67" d="M 2906 1791 
Q 2906 2416 2648 2759 
Q 2391 3103 1925 3103 
Q 1463 3103 1205 2759 
Q 947 2416 947 1791 
Q 947 1169 1205 825 
Q 1463 481 1925 481 
Q 2391 481 2648 825 
Q 2906 1169 2906 1791 
z
M 3481 434 
Q 3481 -459 3084 -895 
Q 2688 -1331 1869 -1331 
Q 1566 -1331 1297 -1286 
Q 1028 -1241 775 -1147 
L 775 -588 
Q 1028 -725 1275 -790 
Q 1522 -856 1778 -856 
Q 2344 -856 2625 -561 
Q 2906 -266 2906 331 
L 2906 616 
Q 2728 306 2450 153 
Q 2172 0 1784 0 
Q 1141 0 747 490 
Q 353 981 353 1791 
Q 353 2603 747 3093 
Q 1141 3584 1784 3584 
Q 2172 3584 2450 3431 
Q 2728 3278 2906 2969 
L 2906 3500 
L 3481 3500 
L 3481 434 
z
" transform="scale(0.015625)"/>
      <path id="DejaVuSans-65" d="M 3597 1894 
L 3597 1613 
L 953 1613 
Q 991 1019 1311 708 
Q 1631 397 2203 397 
Q 2534 397 2845 478 
Q 3156 559 3463 722 
L 3463 178 
Q 3153 47 2828 -22 
Q 2503 -91 2169 -91 
Q 1331 -91 842 396 
Q 353 884 353 1716 
Q 353 2575 817 3079 
Q 1281 3584 2069 3584 
Q 2775 3584 3186 3129 
Q 3597 2675 3597 1894 
z
M 3022 2063 
Q 3016 2534 2758 2815 
Q 2500 3097 2075 3097 
Q 1594 3097 1305 2825 
Q 1016 2553 972 2059 
L 3022 2063 
z
" transform="scale(0.015625)"/>
     </defs>
     <use xlink:href="#DejaVuSans-61"/>
     <use xlink:href="#DejaVuSans-67" x="61.279297"/>
     <use xlink:href="#DejaVuSans-65" x="124.755859"/>
    </g>
   </g>
   <g id="PathCollection_11">
    <defs>
     <path id="mf2ba0bd488" d="M 0 3 
C 0.795609 3 1.55874 2.683901 2.12132 2.12132 
C 2.683901 1.55874 3 0.795609 3 0 
C 3 -0.795609 2.683901 -1.55874 2.12132 -2.12132 
C 1.55874 -2.683901 0.795609 -3 0 -3 
C -0.795609 -3 -1.55874 -2.683901 -2.12132 -2.12132 
C -2.683901 -1.55874 -3 -0.795609 -3 0 
C -3 0.795609 -2.683901 1.55874 -2.12132 2.12132 
C -1.55874 2.683901 -0.795609 3 0 3 
z
" style="stroke: #a0da39"/>
    </defs>
    <g>
     <use xlink:href="#mf2ba0bd488" x="296.998438" y="20.34375" style="fill: #a0da39; stroke: #a0da39"/>
    </g>
   </g>
   <g id="text_14">
    <!-- infancy -->
    <g transform="translate(314.998438 22.96875)scale(0.1 -0.1)">
     <defs>
      <path id="DejaVuSans-69" d="M 603 3500 
L 1178 3500 
L 1178 0 
L 603 0 
L 603 3500 
z
M 603 4863 
L 1178 4863 
L 1178 4134 
L 603 4134 
L 603 4863 
z
" transform="scale(0.015625)"/>
      <path id="DejaVuSans-79" d="M 2059 -325 
Q 1816 -950 1584 -1140 
Q 1353 -1331 966 -1331 
L 506 -1331 
L 506 -850 
L 844 -850 
Q 1081 -850 1212 -737 
Q 1344 -625 1503 -206 
L 1606 56 
L 191 3500 
L 800 3500 
L 1894 763 
L 2988 3500 
L 3597 3500 
L 2059 -325 
z
" transform="scale(0.015625)"/>
     </defs>
     <use xlink:href="#DejaVuSans-69"/>
     <use xlink:href="#DejaVuSans-6e" x="27.783203"/>
     <use xlink:href="#DejaVuSans-66" x="91.162109"/>
     <use xlink:href="#DejaVuSans-61" x="126.367188"/>
     <use xlink:href="#DejaVuSans-6e" x="187.646484"/>
     <use xlink:href="#DejaVuSans-63" x="251.025391"/>
     <use xlink:href="#DejaVuSans-79" x="306.005859"/>
    </g>
   </g>
   <g id="PathCollection_12">
    <defs>
     <path id="m2bcc79d15d" d="M 0 3 
C 0.795609 3 1.55874 2.683901 2.12132 2.12132 
C 2.683901 1.55874 3 0.795609 3 0 
C 3 -0.795609 2.683901 -1.55874 2.12132 -2.12132 
C 1.55874 -2.683901 0.795609 -3 0 -3 
C -0.795609 -3 -1.55874 -2.683901 -2.12132 -2.12132 
C -2.683901 -1.55874 -3 -0.795609 -3 0 
C -3 0.795609 -2.683901 1.55874 -2.12132 2.12132 
C -1.55874 2.683901 -0.795609 3 0 3 
z
" style="stroke: #4ac16d"/>
    </defs>
    <g>
     <use xlink:href="#m2bcc79d15d" x="296.998438" y="35.021875" style="fill: #4ac16d; stroke: #4ac16d"/>
    </g>
   </g>
   <g id="text_15">
    <!-- early_child -->
    <g transform="translate(314.998438 37.646875)scale(0.1 -0.1)">
     <defs>
      <path id="DejaVuSans-72" d="M 2631 2963 
Q 2534 3019 2420 3045 
Q 2306 3072 2169 3072 
Q 1681 3072 1420 2755 
Q 1159 2438 1159 1844 
L 1159 0 
L 581 0 
L 581 3500 
L 1159 3500 
L 1159 2956 
Q 1341 3275 1631 3429 
Q 1922 3584 2338 3584 
Q 2397 3584 2469 3576 
Q 2541 3569 2628 3553 
L 2631 2963 
z
" transform="scale(0.015625)"/>
      <path id="DejaVuSans-5f" d="M 3263 -1063 
L 3263 -1509 
L -63 -1509 
L -63 -1063 
L 3263 -1063 
z
" transform="scale(0.015625)"/>
      <path id="DejaVuSans-64" d="M 2906 2969 
L 2906 4863 
L 3481 4863 
L 3481 0 
L 2906 0 
L 2906 525 
Q 2725 213 2448 61 
Q 2172 -91 1784 -91 
Q 1150 -91 751 415 
Q 353 922 353 1747 
Q 353 2572 751 3078 
Q 1150 3584 1784 3584 
Q 2172 3584 2448 3432 
Q 2725 3281 2906 2969 
z
M 947 1747 
Q 947 1113 1208 752 
Q 1469 391 1925 391 
Q 2381 391 2643 752 
Q 2906 1113 2906 1747 
Q 2906 2381 2643 2742 
Q 2381 3103 1925 3103 
Q 1469 3103 1208 2742 
Q 947 2381 947 1747 
z
" transform="scale(0.015625)"/>
     </defs>
     <use xlink:href="#DejaVuSans-65"/>
     <use xlink:href="#DejaVuSans-61" x="61.523438"/>
     <use xlink:href="#DejaVuSans-72" x="122.802734"/>
     <use xlink:href="#DejaVuSans-6c" x="163.916016"/>
     <use xlink:href="#DejaVuSans-79" x="191.699219"/>
     <use xlink:href="#DejaVuSans-5f" x="250.878906"/>
     <use xlink:href="#DejaVuSans-63" x="300.878906"/>
     <use xlink:href="#DejaVuSans-68" x="355.859375"/>
     <use xlink:href="#DejaVuSans-69" x="419.238281"/>
     <use xlink:href="#DejaVuSans-6c" x="447.021484"/>
     <use xlink:href="#DejaVuSans-64" x="474.804688"/>
    </g>
   </g>
   <g id="PathCollection_13">
    <defs>
     <path id="mb96630c8cb" d="M 0 3 
C 0.795609 3 1.55874 2.683901 2.12132 2.12132 
C 2.683901 1.55874 3 0.795609 3 0 
C 3 -0.795609 2.683901 -1.55874 2.12132 -2.12132 
C 1.55874 -2.683901 0.795609 -3 0 -3 
C -0.795609 -3 -1.55874 -2.683901 -2.12132 -2.12132 
C -2.683901 -1.55874 -3 -0.795609 -3 0 
C -3 0.795609 -2.683901 1.55874 -2.12132 2.12132 
C -1.55874 2.683901 -0.795609 3 0 3 
z
" style="stroke: #1fa187"/>
    </defs>
    <g>
     <use xlink:href="#mb96630c8cb" x="296.998438" y="49.978125" style="fill: #1fa187; stroke: #1fa187"/>
    </g>
   </g>
   <g id="text_16">
    <!-- late_child -->
    <g transform="translate(314.998438 52.603125)scale(0.1 -0.1)">
     <defs>
      <path id="DejaVuSans-74" d="M 1172 4494 
L 1172 3500 
L 2356 3500 
L 2356 3053 
L 1172 3053 
L 1172 1153 
Q 1172 725 1289 603 
Q 1406 481 1766 481 
L 2356 481 
L 2356 0 
L 1766 0 
Q 1100 0 847 248 
Q 594 497 594 1153 
L 594 3053 
L 172 3053 
L 172 3500 
L 594 3500 
L 594 4494 
L 1172 4494 
z
" transform="scale(0.015625)"/>
     </defs>
     <use xlink:href="#DejaVuSans-6c"/>
     <use xlink:href="#DejaVuSans-61" x="27.783203"/>
     <use xlink:href="#DejaVuSans-74" x="89.0625"/>
     <use xlink:href="#DejaVuSans-65" x="128.271484"/>
     <use xlink:href="#DejaVuSans-5f" x="189.794922"/>
     <use xlink:href="#DejaVuSans-63" x="239.794922"/>
     <use xlink:href="#DejaVuSans-68" x="294.775391"/>
     <use xlink:href="#DejaVuSans-69" x="358.154297"/>
     <use xlink:href="#DejaVuSans-6c" x="385.9375"/>
     <use xlink:href="#DejaVuSans-64" x="413.720703"/>
    </g>
   </g>
   <g id="PathCollection_14">
    <defs>
     <path id="md3f33b3e86" d="M 0 3 
C 0.795609 3 1.55874 2.683901 2.12132 2.12132 
C 2.683901 1.55874 3 0.795609 3 0 
C 3 -0.795609 2.683901 -1.55874 2.12132 -2.12132 
C 1.55874 -2.683901 0.795609 -3 0 -3 
C -0.795609 -3 -1.55874 -2.683901 -2.12132 -2.12132 
C -2.683901 -1.55874 -3 -0.795609 -3 0 
C -3 0.795609 -2.683901 1.55874 -2.12132 2.12132 
C -1.55874 2.683901 -0.795609 3 0 3 
z
" style="stroke: #277f8e"/>
    </defs>
    <g>
     <use xlink:href="#md3f33b3e86" x="296.998438" y="64.934375" style="fill: #277f8e; stroke: #277f8e"/>
    </g>
   </g>
   <g id="text_17">
    <!-- adolescence -->
    <g transform="translate(314.998438 67.559375)scale(0.1 -0.1)">
     <defs>
      <path id="DejaVuSans-6f" d="M 1959 3097 
Q 1497 3097 1228 2736 
Q 959 2375 959 1747 
Q 959 1119 1226 758 
Q 1494 397 1959 397 
Q 2419 397 2687 759 
Q 2956 1122 2956 1747 
Q 2956 2369 2687 2733 
Q 2419 3097 1959 3097 
z
M 1959 3584 
Q 2709 3584 3137 3096 
Q 3566 2609 3566 1747 
Q 3566 888 3137 398 
Q 2709 -91 1959 -91 
Q 1206 -91 779 398 
Q 353 888 353 1747 
Q 353 2609 779 3096 
Q 1206 3584 1959 3584 
z
" transform="scale(0.015625)"/>
     </defs>
     <use xlink:href="#DejaVuSans-61"/>
     <use xlink:href="#DejaVuSans-64" x="61.279297"/>
     <use xlink:href="#DejaVuSans-6f" x="124.755859"/>
     <use xlink:href="#DejaVuSans-6c" x="185.9375"/>
     <use xlink:href="#DejaVuSans-65" x="213.720703"/>
     <use xlink:href="#DejaVuSans-73" x="275.244141"/>
     <use xlink:href="#DejaVuSans-63" x="327.34375"/>
     <use xlink:href="#DejaVuSans-65" x="382.324219"/>
     <use xlink:href="#DejaVuSans-6e" x="443.847656"/>
     <use xlink:href="#DejaVuSans-63" x="507.226562"/>
     <use xlink:href="#DejaVuSans-65" x="562.207031"/>
    </g>
   </g>
   <g id="PathCollection_15">
    <defs>
     <path id="m75bcbca397" d="M 0 3 
C 0.795609 3 1.55874 2.683901 2.12132 2.12132 
C 2.683901 1.55874 3 0.795609 3 0 
C 3 -0.795609 2.683901 -1.55874 2.12132 -2.12132 
C 1.55874 -2.683901 0.795609 -3 0 -3 
C -0.795609 -3 -1.55874 -2.683901 -2.12132 -2.12132 
C -2.683901 -1.55874 -3 -0.795609 -3 0 
C -3 0.795609 -2.683901 1.55874 -2.12132 2.12132 
C -1.55874 2.683901 -0.795609 3 0 3 
z
" style="stroke: #365c8d"/>
    </defs>
    <g>
     <use xlink:href="#m75bcbca397" x="296.998438" y="79.6125" style="fill: #365c8d; stroke: #365c8d"/>
    </g>
   </g>
   <g id="text_18">
    <!-- adult -->
    <g transform="translate(314.998438 82.2375)scale(0.1 -0.1)">
     <defs>
      <path id="DejaVuSans-75" d="M 544 1381 
L 544 3500 
L 1119 3500 
L 1119 1403 
Q 1119 906 1312 657 
Q 1506 409 1894 409 
Q 2359 409 2629 706 
Q 2900 1003 2900 1516 
L 2900 3500 
L 3475 3500 
L 3475 0 
L 2900 0 
L 2900 538 
Q 2691 219 2414 64 
Q 2138 -91 1772 -91 
Q 1169 -91 856 284 
Q 544 659 544 1381 
z
M 1991 3584 
L 1991 3584 
z
" transform="scale(0.015625)"/>
     </defs>
     <use xlink:href="#DejaVuSans-61"/>
     <use xlink:href="#DejaVuSans-64" x="61.279297"/>
     <use xlink:href="#DejaVuSans-75" x="124.755859"/>
     <use xlink:href="#DejaVuSans-6c" x="188.134766"/>
     <use xlink:href="#DejaVuSans-74" x="215.917969"/>
    </g>
   </g>
   <g id="PathCollection_16">
    <defs>
     <path id="mfa9a13a599" d="M 0 3 
C 0.795609 3 1.55874 2.683901 2.12132 2.12132 
C 2.683901 1.55874 3 0.795609 3 0 
C 3 -0.795609 2.683901 -1.55874 2.12132 -2.12132 
C 1.55874 -2.683901 0.795609 -3 0 -3 
C -0.795609 -3 -1.55874 -2.683901 -2.12132 -2.12132 
C -2.683901 -1.55874 -3 -0.795609 -3 0 
C -3 0.795609 -2.683901 1.55874 -2.12132 2.12132 
C -1.55874 2.683901 -0.795609 3 0 3 
z
" style="stroke: #46327e"/>
    </defs>
    <g>
     <use xlink:href="#mfa9a13a599" x="296.998438" y="94.290625" style="fill: #46327e; stroke: #46327e"/>
    </g>
   </g>
   <g id="text_19">
    <!-- late_adult -->
    <g transform="translate(314.998438 96.915625)scale(0.1 -0.1)">
     <use xlink:href="#DejaVuSans-6c"/>
     <use xlink:href="#DejaVuSans-61" x="27.783203"/>
     <use xlink:href="#DejaVuSans-74" x="89.0625"/>
     <use xlink:href="#DejaVuSans-65" x="128.271484"/>
     <use xlink:href="#DejaVuSans-5f" x="189.794922"/>
     <use xlink:href="#DejaVuSans-61" x="239.794922"/>
     <use xlink:href="#DejaVuSans-64" x="301.074219"/>
     <use xlink:href="#DejaVuSans-75" x="364.550781"/>
     <use xlink:href="#DejaVuSans-6c" x="427.929688"/>
     <use xlink:href="#DejaVuSans-74" x="455.712891"/>
    </g>
   </g>
   <g id="text_20">
    <!-- celltype -->
    <g transform="translate(294.998438 111.871875)scale(0.1 -0.1)">
     <defs>
      <path id="DejaVuSans-70" d="M 1159 525 
L 1159 -1331 
L 581 -1331 
L 581 3500 
L 1159 3500 
L 1159 2969 
Q 1341 3281 1617 3432 
Q 1894 3584 2278 3584 
Q 2916 3584 3314 3078 
Q 3713 2572 3713 1747 
Q 3713 922 3314 415 
Q 2916 -91 2278 -91 
Q 1894 -91 1617 61 
Q 1341 213 1159 525 
z
M 3116 1747 
Q 3116 2381 2855 2742 
Q 2594 3103 2138 3103 
Q 1681 3103 1420 2742 
Q 1159 2381 1159 1747 
Q 1159 1113 1420 752 
Q 1681 391 2138 391 
Q 2594 391 2855 752 
Q 3116 1113 3116 1747 
z
" transform="scale(0.015625)"/>
     </defs>
     <use xlink:href="#DejaVuSans-63"/>
     <use xlink:href="#DejaVuSans-65" x="54.980469"/>
     <use xlink:href="#DejaVuSans-6c" x="116.503906"/>
     <use xlink:href="#DejaVuSans-6c" x="144.287109"/>
     <use xlink:href="#DejaVuSans-74" x="172.070312"/>
     <use xlink:href="#DejaVuSans-79" x="211.279297"/>
     <use xlink:href="#DejaVuSans-70" x="270.458984"/>
     <use xlink:href="#DejaVuSans-65" x="333.935547"/>
    </g>
   </g>
   <g id="PathCollection_17">
    <defs>
     <path id="m9dbbd88a61" d="M 0 3 
C 0.795609 3 1.55874 2.683901 2.12132 2.12132 
C 2.683901 1.55874 3 0.795609 3 0 
C 3 -0.795609 2.683901 -1.55874 2.12132 -2.12132 
C 1.55874 -2.683901 0.795609 -3 0 -3 
C -0.795609 -3 -1.55874 -2.683901 -2.12132 -2.12132 
C -2.683901 -1.55874 -3 -0.795609 -3 0 
C -3 0.795609 -2.683901 1.55874 -2.12132 2.12132 
C -1.55874 2.683901 -0.795609 3 0 3 
z
" style="stroke: #333333"/>
    </defs>
    <g>
     <use xlink:href="#m9dbbd88a61" x="296.998438" y="123.925" style="fill: #333333; stroke: #333333"/>
    </g>
   </g>
   <g id="text_21">
    <!-- GABA -->
    <g transform="translate(314.998438 126.55)scale(0.1 -0.1)">
     <defs>
      <path id="DejaVuSans-47" d="M 3809 666 
L 3809 1919 
L 2778 1919 
L 2778 2438 
L 4434 2438 
L 4434 434 
Q 4069 175 3628 42 
Q 3188 -91 2688 -91 
Q 1594 -91 976 548 
Q 359 1188 359 2328 
Q 359 3472 976 4111 
Q 1594 4750 2688 4750 
Q 3144 4750 3555 4637 
Q 3966 4525 4313 4306 
L 4313 3634 
Q 3963 3931 3569 4081 
Q 3175 4231 2741 4231 
Q 1884 4231 1454 3753 
Q 1025 3275 1025 2328 
Q 1025 1384 1454 906 
Q 1884 428 2741 428 
Q 3075 428 3337 486 
Q 3600 544 3809 666 
z
" transform="scale(0.015625)"/>
      <path id="DejaVuSans-41" d="M 2188 4044 
L 1331 1722 
L 3047 1722 
L 2188 4044 
z
M 1831 4666 
L 2547 4666 
L 4325 0 
L 3669 0 
L 3244 1197 
L 1141 1197 
L 716 0 
L 50 0 
L 1831 4666 
z
" transform="scale(0.015625)"/>
      <path id="DejaVuSans-42" d="M 1259 2228 
L 1259 519 
L 2272 519 
Q 2781 519 3026 730 
Q 3272 941 3272 1375 
Q 3272 1813 3026 2020 
Q 2781 2228 2272 2228 
L 1259 2228 
z
M 1259 4147 
L 1259 2741 
L 2194 2741 
Q 2656 2741 2882 2914 
Q 3109 3088 3109 3444 
Q 3109 3797 2882 3972 
Q 2656 4147 2194 4147 
L 1259 4147 
z
M 628 4666 
L 2241 4666 
Q 2963 4666 3353 4366 
Q 3744 4066 3744 3513 
Q 3744 3084 3544 2831 
Q 3344 2578 2956 2516 
Q 3422 2416 3680 2098 
Q 3938 1781 3938 1306 
Q 3938 681 3513 340 
Q 3088 0 2303 0 
L 628 0 
L 628 4666 
z
" transform="scale(0.015625)"/>
     </defs>
     <use xlink:href="#DejaVuSans-47"/>
     <use xlink:href="#DejaVuSans-41" x="77.490234"/>
     <use xlink:href="#DejaVuSans-42" x="145.898438"/>
     <use xlink:href="#DejaVuSans-41" x="214.501953"/>
    </g>
   </g>
   <g id="PathCollection_18">
    <defs>
     <path id="mc8eb088107" d="M -1.5 3 
L 0 1.5 
L 1.5 3 
L 3 1.5 
L 1.5 0 
L 3 -1.5 
L 1.5 -3 
L 0 -1.5 
L -1.5 -3 
L -3 -1.5 
L -1.5 0 
L -3 1.5 
z
" style="stroke: #333333"/>
    </defs>
    <g>
     <use xlink:href="#mc8eb088107" x="296.998438" y="138.603125" style="fill: #333333; stroke: #333333"/>
    </g>
   </g>
   <g id="text_22">
    <!-- GLU -->
    <g transform="translate(314.998438 141.228125)scale(0.1 -0.1)">
     <defs>
      <path id="DejaVuSans-55" d="M 556 4666 
L 1191 4666 
L 1191 1831 
Q 1191 1081 1462 751 
Q 1734 422 2344 422 
Q 2950 422 3222 751 
Q 3494 1081 3494 1831 
L 3494 4666 
L 4128 4666 
L 4128 1753 
Q 4128 841 3676 375 
Q 3225 -91 2344 -91 
Q 1459 -91 1007 375 
Q 556 841 556 1753 
L 556 4666 
z
" transform="scale(0.015625)"/>
     </defs>
     <use xlink:href="#DejaVuSans-47"/>
     <use xlink:href="#DejaVuSans-4c" x="77.490234"/>
     <use xlink:href="#DejaVuSans-55" x="128.203125"/>
    </g>
   </g>
  </g>
 </g>
 <defs>
  <clipPath id="pd92454d6d6">
   <rect x="53.925" y="24.8" width="96.274854" height="77.4"/>
  </clipPath>
  <clipPath id="pfeefff19a4">
   <rect x="164.985" y="24.8" width="96.274854" height="77.4"/>
  </clipPath>
 </defs>
</svg>
