<?xml version="1.0" encoding="utf-8" standalone="no"?>
<!DOCTYPE svg PUBLIC "-//W3C//DTD SVG 1.1//EN"
  "http://www.w3.org/Graphics/SVG/1.1/DTD/svg11.dtd">
<svg xmlns:xlink="http://www.w3.org/1999/xlink" width="386.375pt" height="144pt" viewBox="0 0 386.375 144" xmlns="http://www.w3.org/2000/svg" version="1.1">
 <metadata>
  <rdf:RDF xmlns:dc="http://purl.org/dc/elements/1.1/" xmlns:cc="http://creativecommons.org/ns#" xmlns:rdf="http://www.w3.org/1999/02/22-rdf-syntax-ns#">
   <cc:Work>
    <dc:type rdf:resource="http://purl.org/dc/dcmitype/StillImage"/>
    <dc:date>2023-08-31T05:23:12.575788</dc:date>
    <dc:format>image/svg+xml</dc:format>
    <dc:creator>
     <cc:Agent>
      <dc:title>Matplotlib v3.5.1, https://matplotlib.org/</dc:title>
     </cc:Agent>
    </dc:creator>
   </cc:Work>
  </rdf:RDF>
 </metadata>
 <defs>
  <style type="text/css">*{stroke-linejoin: round; stroke-linecap: butt}</style>
 </defs>
 <g id="figure_1">
  <g id="patch_1">
   <path d="M 0 144 
L 386.375 144 
L 386.375 0 
L 0 0 
L 0 144 
z
" style="fill: none"/>
  </g>
  <g id="axes_1">
   <g id="patch_2">
    <path d="M 47.675 102.2 
L 147.56 102.2 
L 147.56 24.8 
L 47.675 24.8 
z
" style="fill: #ffffff"/>
   </g>
   <g id="PathCollection_1">
    <path d="M 93.985493 53.692301 
C 94.781102 53.692301 95.544232 53.376202 96.106813 52.813621 
C 96.669394 52.251041 96.985493 51.48791 96.985493 50.692301 
C 96.985493 49.896692 96.669394 49.133561 96.106813 48.570981 
C 95.544232 48.0084 94.781102 47.692301 93.985493 47.692301 
C 93.189883 47.692301 92.426753 48.0084 91.864172 48.570981 
C 91.301592 49.133561 90.985493 49.896692 90.985493 50.692301 
C 90.985493 51.48791 91.301592 52.251041 91.864172 52.813621 
C 92.426753 53.376202 93.189883 53.692301 93.985493 53.692301 
z
" clip-path="url(#pfa12d5697e)" style="fill: #277f8e; stroke: #ffffff; stroke-width: 0.48"/>
    <path d="M 87.022424 49.581964 
C 87.818033 49.581964 88.581163 49.265865 89.143744 48.703284 
C 89.706325 48.140703 90.022424 47.377573 90.022424 46.581964 
C 90.022424 45.786355 89.706325 45.023224 89.143744 44.460644 
C 88.581163 43.898063 87.818033 43.581964 87.022424 43.581964 
C 86.226814 43.581964 85.463684 43.898063 84.901103 44.460644 
C 84.338522 45.023224 84.022424 45.786355 84.022424 46.581964 
C 84.022424 47.377573 84.338522 48.140703 84.901103 48.703284 
C 85.463684 49.265865 86.226814 49.581964 87.022424 49.581964 
z
" clip-path="url(#pfa12d5697e)" style="fill: #365c8d; stroke: #ffffff; stroke-width: 0.48"/>
    <path d="M 110.477477 67.794699 
C 111.273086 67.794699 112.036216 67.4786 112.598797 66.91602 
C 113.161378 66.353439 113.477477 65.590309 113.477477 64.794699 
C 113.477477 63.99909 113.161378 63.23596 112.598797 62.673379 
C 112.036216 62.110798 111.273086 61.794699 110.477477 61.794699 
C 109.681867 61.794699 108.918737 62.110798 108.356156 62.673379 
C 107.793576 63.23596 107.477477 63.99909 107.477477 64.794699 
C 107.477477 65.590309 107.793576 66.353439 108.356156 66.91602 
C 108.918737 67.4786 109.681867 67.794699 110.477477 67.794699 
z
" clip-path="url(#pfa12d5697e)" style="fill: #4ac16d; stroke: #ffffff; stroke-width: 0.48"/>
    <path d="M 119.938003 79.539422 
C 120.733612 79.539422 121.496742 79.223323 122.059323 78.660742 
C 122.621904 78.098161 122.938003 77.335031 122.938003 76.539422 
C 122.938003 75.743812 122.621904 74.980682 122.059323 74.418101 
C 121.496742 73.855521 120.733612 73.539422 119.938003 73.539422 
C 119.142393 73.539422 118.379263 73.855521 117.816682 74.418101 
C 117.254101 74.980682 116.938003 75.743812 116.938003 76.539422 
C 116.938003 77.335031 117.254101 78.098161 117.816682 78.660742 
C 118.379263 79.223323 119.142393 79.539422 119.938003 79.539422 
z
" clip-path="url(#pfa12d5697e)" style="fill: #a0da39; stroke: #ffffff; stroke-width: 0.48"/>
    <path d="M 82.857873 46.552327 
C 83.653482 46.552327 84.416612 46.236228 84.979193 45.673647 
C 85.541774 45.111066 85.857873 44.347936 85.857873 43.552327 
C 85.857873 42.756718 85.541774 41.993587 84.979193 41.431007 
C 84.416612 40.868426 83.653482 40.552327 82.857873 40.552327 
C 82.062264 40.552327 81.299133 40.868426 80.736552 41.431007 
C 80.173972 41.993587 79.857873 42.756718 79.857873 43.552327 
C 79.857873 44.347936 80.173972 45.111066 80.736552 45.673647 
C 81.299133 46.236228 82.062264 46.552327 82.857873 46.552327 
z
" clip-path="url(#pfa12d5697e)" style="fill: #46327e; stroke: #ffffff; stroke-width: 0.48"/>
    <path d="M 102.05063 58.037277 
C 102.846239 58.037277 103.609369 57.721178 104.17195 57.158597 
C 104.734531 56.596017 105.05063 55.832886 105.05063 55.037277 
C 105.05063 54.241668 104.734531 53.478537 104.17195 52.915957 
C 103.609369 52.353376 102.846239 52.037277 102.05063 52.037277 
C 101.25502 52.037277 100.49189 52.353376 99.929309 52.915957 
C 99.366729 53.478537 99.05063 54.241668 99.05063 55.037277 
C 99.05063 55.832886 99.366729 56.596017 99.929309 57.158597 
C 100.49189 57.721178 101.25502 58.037277 102.05063 58.037277 
z
" clip-path="url(#pfa12d5697e)" style="fill: #1fa187; stroke: #ffffff; stroke-width: 0.48"/>
    <path d="M 52.859583 33.766358 
L 54.359583 32.266358 
L 55.859583 33.766358 
L 57.359583 32.266358 
L 55.859583 30.766358 
L 57.359583 29.266358 
L 55.859583 27.766358 
L 54.359583 29.266358 
L 52.859583 27.766358 
L 51.359583 29.266358 
L 52.859583 30.766358 
L 51.359583 32.266358 
z
" clip-path="url(#pfa12d5697e)" style="fill: #277f8e; stroke: #ffffff; stroke-width: 0.48"/>
    <path d="M 54.801242 34.41463 
L 56.301242 32.91463 
L 57.801242 34.41463 
L 59.301242 32.91463 
L 57.801242 31.41463 
L 59.301242 29.91463 
L 57.801242 28.41463 
L 56.301242 29.91463 
L 54.801242 28.41463 
L 53.301242 29.91463 
L 54.801242 31.41463 
L 53.301242 32.91463 
z
" clip-path="url(#pfa12d5697e)" style="fill: #365c8d; stroke: #ffffff; stroke-width: 0.48"/>
    <path d="M 78.981379 54.443192 
L 80.481379 52.943192 
L 81.981379 54.443192 
L 83.481379 52.943192 
L 81.981379 51.443192 
L 83.481379 49.943192 
L 81.981379 48.443192 
L 80.481379 49.943192 
L 78.981379 48.443192 
L 77.481379 49.943192 
L 78.981379 51.443192 
L 77.481379 52.943192 
z
" clip-path="url(#pfa12d5697e)" style="fill: #4ac16d; stroke: #ffffff; stroke-width: 0.48"/>
    <path d="M 98.772856 71.056222 
L 100.272856 69.556222 
L 101.772856 71.056222 
L 103.272856 69.556222 
L 101.772856 68.056222 
L 103.272856 66.556222 
L 101.772856 65.056222 
L 100.272856 66.556222 
L 98.772856 65.056222 
L 97.272856 66.556222 
L 98.772856 68.056222 
L 97.272856 69.556222 
z
" clip-path="url(#pfa12d5697e)" style="fill: #a0da39; stroke: #ffffff; stroke-width: 0.48"/>
    <path d="M 50.715227 31.318182 
L 52.215227 29.818182 
L 53.715227 31.318182 
L 55.215227 29.818182 
L 53.715227 28.318182 
L 55.215227 26.818182 
L 53.715227 25.318182 
L 52.215227 26.818182 
L 50.715227 25.318182 
L 49.215227 26.818182 
L 50.715227 28.318182 
L 49.215227 29.818182 
z
" clip-path="url(#pfa12d5697e)" style="fill: #46327e; stroke: #ffffff; stroke-width: 0.48"/>
    <path d="M 65.453091 41.757415 
L 66.953091 40.257415 
L 68.453091 41.757415 
L 69.953091 40.257415 
L 68.453091 38.757415 
L 69.953091 37.257415 
L 68.453091 35.757415 
L 66.953091 37.257415 
L 65.453091 35.757415 
L 63.953091 37.257415 
L 65.453091 38.757415 
L 63.953091 40.257415 
z
" clip-path="url(#pfa12d5697e)" style="fill: #1fa187; stroke: #ffffff; stroke-width: 0.48"/>
   </g>
   <g id="PathCollection_2"/>
   <g id="PathCollection_3"/>
   <g id="PathCollection_4"/>
   <g id="PathCollection_5"/>
   <g id="PathCollection_6"/>
   <g id="PathCollection_7"/>
   <g id="PathCollection_8"/>
   <g id="PathCollection_9"/>
   <g id="matplotlib.axis_1">
    <g id="xtick_1">
     <g id="line2d_1">
      <path d="M 80.924296 102.2 
L 80.924296 24.8 
" clip-path="url(#pfa12d5697e)" style="fill: none; stroke: #b0b0b0; stroke-width: 0.8; stroke-linecap: square"/>
     </g>
     <g id="line2d_2">
      <defs>
       <path id="m088ce98f4e" d="M 0 0 
L 0 3.5 
" style="stroke: #000000; stroke-width: 0.8"/>
      </defs>
      <g>
       <use xlink:href="#m088ce98f4e" x="80.924296" y="102.2" style="stroke: #000000; stroke-width: 0.8"/>
      </g>
     </g>
     <g id="text_1">
      <!-- 0.6 -->
      <g transform="translate(72.972734 116.798437)scale(0.1 -0.1)">
       <defs>
        <path id="DejaVuSans-30" d="M 2034 4250 
Q 1547 4250 1301 3770 
Q 1056 3291 1056 2328 
Q 1056 1369 1301 889 
Q 1547 409 2034 409 
Q 2525 409 2770 889 
Q 3016 1369 3016 2328 
Q 3016 3291 2770 3770 
Q 2525 4250 2034 4250 
z
M 2034 4750 
Q 2819 4750 3233 4129 
Q 3647 3509 3647 2328 
Q 3647 1150 3233 529 
Q 2819 -91 2034 -91 
Q 1250 -91 836 529 
Q 422 1150 422 2328 
Q 422 3509 836 4129 
Q 1250 4750 2034 4750 
z
" transform="scale(0.015625)"/>
        <path id="DejaVuSans-2e" d="M 684 794 
L 1344 794 
L 1344 0 
L 684 0 
L 684 794 
z
" transform="scale(0.015625)"/>
        <path id="DejaVuSans-36" d="M 2113 2584 
Q 1688 2584 1439 2293 
Q 1191 2003 1191 1497 
Q 1191 994 1439 701 
Q 1688 409 2113 409 
Q 2538 409 2786 701 
Q 3034 994 3034 1497 
Q 3034 2003 2786 2293 
Q 2538 2584 2113 2584 
z
M 3366 4563 
L 3366 3988 
Q 3128 4100 2886 4159 
Q 2644 4219 2406 4219 
Q 1781 4219 1451 3797 
Q 1122 3375 1075 2522 
Q 1259 2794 1537 2939 
Q 1816 3084 2150 3084 
Q 2853 3084 3261 2657 
Q 3669 2231 3669 1497 
Q 3669 778 3244 343 
Q 2819 -91 2113 -91 
Q 1303 -91 875 529 
Q 447 1150 447 2328 
Q 447 3434 972 4092 
Q 1497 4750 2381 4750 
Q 2619 4750 2861 4703 
Q 3103 4656 3366 4563 
z
" transform="scale(0.015625)"/>
       </defs>
       <use xlink:href="#DejaVuSans-30"/>
       <use xlink:href="#DejaVuSans-2e" x="63.623047"/>
       <use xlink:href="#DejaVuSans-36" x="95.410156"/>
      </g>
     </g>
    </g>
    <g id="xtick_2">
     <g id="line2d_3">
      <path d="M 116.726714 102.2 
L 116.726714 24.8 
" clip-path="url(#pfa12d5697e)" style="fill: none; stroke: #b0b0b0; stroke-width: 0.8; stroke-linecap: square"/>
     </g>
     <g id="line2d_4">
      <g>
       <use xlink:href="#m088ce98f4e" x="116.726714" y="102.2" style="stroke: #000000; stroke-width: 0.8"/>
      </g>
     </g>
     <g id="text_2">
      <!-- 0.7 -->
      <g transform="translate(108.775152 116.798437)scale(0.1 -0.1)">
       <defs>
        <path id="DejaVuSans-37" d="M 525 4666 
L 3525 4666 
L 3525 4397 
L 1831 0 
L 1172 0 
L 2766 4134 
L 525 4134 
L 525 4666 
z
" transform="scale(0.015625)"/>
       </defs>
       <use xlink:href="#DejaVuSans-30"/>
       <use xlink:href="#DejaVuSans-2e" x="63.623047"/>
       <use xlink:href="#DejaVuSans-37" x="95.410156"/>
      </g>
     </g>
    </g>
    <g id="text_3">
     <!-- mCGN-mC -->
     <g transform="translate(71.475313 130.476562)scale(0.1 -0.1)">
      <defs>
       <path id="DejaVuSans-6d" d="M 3328 2828 
Q 3544 3216 3844 3400 
Q 4144 3584 4550 3584 
Q 5097 3584 5394 3201 
Q 5691 2819 5691 2113 
L 5691 0 
L 5113 0 
L 5113 2094 
Q 5113 2597 4934 2840 
Q 4756 3084 4391 3084 
Q 3944 3084 3684 2787 
Q 3425 2491 3425 1978 
L 3425 0 
L 2847 0 
L 2847 2094 
Q 2847 2600 2669 2842 
Q 2491 3084 2119 3084 
Q 1678 3084 1418 2786 
Q 1159 2488 1159 1978 
L 1159 0 
L 581 0 
L 581 3500 
L 1159 3500 
L 1159 2956 
Q 1356 3278 1631 3431 
Q 1906 3584 2284 3584 
Q 2666 3584 2933 3390 
Q 3200 3197 3328 2828 
z
" transform="scale(0.015625)"/>
       <path id="DejaVuSans-43" d="M 4122 4306 
L 4122 3641 
Q 3803 3938 3442 4084 
Q 3081 4231 2675 4231 
Q 1875 4231 1450 3742 
Q 1025 3253 1025 2328 
Q 1025 1406 1450 917 
Q 1875 428 2675 428 
Q 3081 428 3442 575 
Q 3803 722 4122 1019 
L 4122 359 
Q 3791 134 3420 21 
Q 3050 -91 2638 -91 
Q 1578 -91 968 557 
Q 359 1206 359 2328 
Q 359 3453 968 4101 
Q 1578 4750 2638 4750 
Q 3056 4750 3426 4639 
Q 3797 4528 4122 4306 
z
" transform="scale(0.015625)"/>
       <path id="DejaVuSans-47" d="M 3809 666 
L 3809 1919 
L 2778 1919 
L 2778 2438 
L 4434 2438 
L 4434 434 
Q 4069 175 3628 42 
Q 3188 -91 2688 -91 
Q 1594 -91 976 548 
Q 359 1188 359 2328 
Q 359 3472 976 4111 
Q 1594 4750 2688 4750 
Q 3144 4750 3555 4637 
Q 3966 4525 4313 4306 
L 4313 3634 
Q 3963 3931 3569 4081 
Q 3175 4231 2741 4231 
Q 1884 4231 1454 3753 
Q 1025 3275 1025 2328 
Q 1025 1384 1454 906 
Q 1884 428 2741 428 
Q 3075 428 3337 486 
Q 3600 544 3809 666 
z
" transform="scale(0.015625)"/>
       <path id="DejaVuSans-4e" d="M 628 4666 
L 1478 4666 
L 3547 763 
L 3547 4666 
L 4159 4666 
L 4159 0 
L 3309 0 
L 1241 3903 
L 1241 0 
L 628 0 
L 628 4666 
z
" transform="scale(0.015625)"/>
       <path id="DejaVuSans-2d" d="M 313 2009 
L 1997 2009 
L 1997 1497 
L 313 1497 
L 313 2009 
z
" transform="scale(0.015625)"/>
      </defs>
      <use xlink:href="#DejaVuSans-6d"/>
      <use xlink:href="#DejaVuSans-43" x="97.412109"/>
      <use xlink:href="#DejaVuSans-47" x="167.236328"/>
      <use xlink:href="#DejaVuSans-4e" x="244.726562"/>
      <use xlink:href="#DejaVuSans-2d" x="319.53125"/>
      <use xlink:href="#DejaVuSans-6d" x="355.615234"/>
      <use xlink:href="#DejaVuSans-43" x="453.027344"/>
     </g>
    </g>
   </g>
   <g id="matplotlib.axis_2">
    <g id="ytick_1">
     <g id="line2d_5">
      <path d="M 47.675 85.874056 
L 147.56 85.874056 
" clip-path="url(#pfa12d5697e)" style="fill: none; stroke: #b0b0b0; stroke-width: 0.8; stroke-linecap: square"/>
     </g>
     <g id="line2d_6">
      <defs>
       <path id="m6881d6a1f9" d="M 0 0 
L -3.5 0 
" style="stroke: #000000; stroke-width: 0.8"/>
      </defs>
      <g>
       <use xlink:href="#m6881d6a1f9" x="47.675" y="85.874056" style="stroke: #000000; stroke-width: 0.8"/>
      </g>
     </g>
     <g id="text_4">
      <!-- 0.1 -->
      <g transform="translate(24.771875 89.673275)scale(0.1 -0.1)">
       <defs>
        <path id="DejaVuSans-31" d="M 794 531 
L 1825 531 
L 1825 4091 
L 703 3866 
L 703 4441 
L 1819 4666 
L 2450 4666 
L 2450 531 
L 3481 531 
L 3481 0 
L 794 0 
L 794 531 
z
" transform="scale(0.015625)"/>
       </defs>
       <use xlink:href="#DejaVuSans-30"/>
       <use xlink:href="#DejaVuSans-2e" x="63.623047"/>
       <use xlink:href="#DejaVuSans-31" x="95.410156"/>
      </g>
     </g>
    </g>
    <g id="ytick_2">
     <g id="line2d_7">
      <path d="M 47.675 62.647327 
L 147.56 62.647327 
" clip-path="url(#pfa12d5697e)" style="fill: none; stroke: #b0b0b0; stroke-width: 0.8; stroke-linecap: square"/>
     </g>
     <g id="line2d_8">
      <g>
       <use xlink:href="#m6881d6a1f9" x="47.675" y="62.647327" style="stroke: #000000; stroke-width: 0.8"/>
      </g>
     </g>
     <g id="text_5">
      <!-- 0.2 -->
      <g transform="translate(24.771875 66.446546)scale(0.1 -0.1)">
       <defs>
        <path id="DejaVuSans-32" d="M 1228 531 
L 3431 531 
L 3431 0 
L 469 0 
L 469 531 
Q 828 903 1448 1529 
Q 2069 2156 2228 2338 
Q 2531 2678 2651 2914 
Q 2772 3150 2772 3378 
Q 2772 3750 2511 3984 
Q 2250 4219 1831 4219 
Q 1534 4219 1204 4116 
Q 875 4013 500 3803 
L 500 4441 
Q 881 4594 1212 4672 
Q 1544 4750 1819 4750 
Q 2544 4750 2975 4387 
Q 3406 4025 3406 3419 
Q 3406 3131 3298 2873 
Q 3191 2616 2906 2266 
Q 2828 2175 2409 1742 
Q 1991 1309 1228 531 
z
" transform="scale(0.015625)"/>
       </defs>
       <use xlink:href="#DejaVuSans-30"/>
       <use xlink:href="#DejaVuSans-2e" x="63.623047"/>
       <use xlink:href="#DejaVuSans-32" x="95.410156"/>
      </g>
     </g>
    </g>
    <g id="ytick_3">
     <g id="line2d_9">
      <path d="M 47.675 39.420599 
L 147.56 39.420599 
" clip-path="url(#pfa12d5697e)" style="fill: none; stroke: #b0b0b0; stroke-width: 0.8; stroke-linecap: square"/>
     </g>
     <g id="line2d_10">
      <g>
       <use xlink:href="#m6881d6a1f9" x="47.675" y="39.420599" style="stroke: #000000; stroke-width: 0.8"/>
      </g>
     </g>
     <g id="text_6">
      <!-- 0.3 -->
      <g transform="translate(24.771875 43.219818)scale(0.1 -0.1)">
       <defs>
        <path id="DejaVuSans-33" d="M 2597 2516 
Q 3050 2419 3304 2112 
Q 3559 1806 3559 1356 
Q 3559 666 3084 287 
Q 2609 -91 1734 -91 
Q 1441 -91 1130 -33 
Q 819 25 488 141 
L 488 750 
Q 750 597 1062 519 
Q 1375 441 1716 441 
Q 2309 441 2620 675 
Q 2931 909 2931 1356 
Q 2931 1769 2642 2001 
Q 2353 2234 1838 2234 
L 1294 2234 
L 1294 2753 
L 1863 2753 
Q 2328 2753 2575 2939 
Q 2822 3125 2822 3475 
Q 2822 3834 2567 4026 
Q 2313 4219 1838 4219 
Q 1578 4219 1281 4162 
Q 984 4106 628 3988 
L 628 4550 
Q 988 4650 1302 4700 
Q 1616 4750 1894 4750 
Q 2613 4750 3031 4423 
Q 3450 4097 3450 3541 
Q 3450 3153 3228 2886 
Q 3006 2619 2597 2516 
z
" transform="scale(0.015625)"/>
       </defs>
       <use xlink:href="#DejaVuSans-30"/>
       <use xlink:href="#DejaVuSans-2e" x="63.623047"/>
       <use xlink:href="#DejaVuSans-33" x="95.410156"/>
      </g>
     </g>
    </g>
    <g id="text_7">
     <!-- mCGN-hmC -->
     <g transform="translate(18.692187 92.810937)rotate(-90)scale(0.1 -0.1)">
      <defs>
       <path id="DejaVuSans-68" d="M 3513 2113 
L 3513 0 
L 2938 0 
L 2938 2094 
Q 2938 2591 2744 2837 
Q 2550 3084 2163 3084 
Q 1697 3084 1428 2787 
Q 1159 2491 1159 1978 
L 1159 0 
L 581 0 
L 581 4863 
L 1159 4863 
L 1159 2956 
Q 1366 3272 1645 3428 
Q 1925 3584 2291 3584 
Q 2894 3584 3203 3211 
Q 3513 2838 3513 2113 
z
" transform="scale(0.015625)"/>
      </defs>
      <use xlink:href="#DejaVuSans-6d"/>
      <use xlink:href="#DejaVuSans-43" x="97.412109"/>
      <use xlink:href="#DejaVuSans-47" x="167.236328"/>
      <use xlink:href="#DejaVuSans-4e" x="244.726562"/>
      <use xlink:href="#DejaVuSans-2d" x="319.53125"/>
      <use xlink:href="#DejaVuSans-68" x="355.615234"/>
      <use xlink:href="#DejaVuSans-6d" x="418.994141"/>
      <use xlink:href="#DejaVuSans-43" x="516.40625"/>
     </g>
    </g>
   </g>
   <g id="patch_3">
    <path d="M 47.675 102.2 
L 47.675 24.8 
" style="fill: none; stroke: #000000; stroke-width: 0.8; stroke-linejoin: miter; stroke-linecap: square"/>
   </g>
   <g id="patch_4">
    <path d="M 47.675 102.2 
L 147.56 102.2 
" style="fill: none; stroke: #000000; stroke-width: 0.8; stroke-linejoin: miter; stroke-linecap: square"/>
   </g>
   <g id="text_8">
    <!-- flank -->
    <g transform="translate(85.340156 18.8)scale(0.1 -0.1)">
     <defs>
      <path id="DejaVuSans-66" d="M 2375 4863 
L 2375 4384 
L 1825 4384 
Q 1516 4384 1395 4259 
Q 1275 4134 1275 3809 
L 1275 3500 
L 2222 3500 
L 2222 3053 
L 1275 3053 
L 1275 0 
L 697 0 
L 697 3053 
L 147 3053 
L 147 3500 
L 697 3500 
L 697 3744 
Q 697 4328 969 4595 
Q 1241 4863 1831 4863 
L 2375 4863 
z
" transform="scale(0.015625)"/>
      <path id="DejaVuSans-6c" d="M 603 4863 
L 1178 4863 
L 1178 0 
L 603 0 
L 603 4863 
z
" transform="scale(0.015625)"/>
      <path id="DejaVuSans-61" d="M 2194 1759 
Q 1497 1759 1228 1600 
Q 959 1441 959 1056 
Q 959 750 1161 570 
Q 1363 391 1709 391 
Q 2188 391 2477 730 
Q 2766 1069 2766 1631 
L 2766 1759 
L 2194 1759 
z
M 3341 1997 
L 3341 0 
L 2766 0 
L 2766 531 
Q 2569 213 2275 61 
Q 1981 -91 1556 -91 
Q 1019 -91 701 211 
Q 384 513 384 1019 
Q 384 1609 779 1909 
Q 1175 2209 1959 2209 
L 2766 2209 
L 2766 2266 
Q 2766 2663 2505 2880 
Q 2244 3097 1772 3097 
Q 1472 3097 1187 3025 
Q 903 2953 641 2809 
L 641 3341 
Q 956 3463 1253 3523 
Q 1550 3584 1831 3584 
Q 2591 3584 2966 3190 
Q 3341 2797 3341 1997 
z
" transform="scale(0.015625)"/>
      <path id="DejaVuSans-6e" d="M 3513 2113 
L 3513 0 
L 2938 0 
L 2938 2094 
Q 2938 2591 2744 2837 
Q 2550 3084 2163 3084 
Q 1697 3084 1428 2787 
Q 1159 2491 1159 1978 
L 1159 0 
L 581 0 
L 581 3500 
L 1159 3500 
L 1159 2956 
Q 1366 3272 1645 3428 
Q 1925 3584 2291 3584 
Q 2894 3584 3203 3211 
Q 3513 2838 3513 2113 
z
" transform="scale(0.015625)"/>
      <path id="DejaVuSans-6b" d="M 581 4863 
L 1159 4863 
L 1159 1991 
L 2875 3500 
L 3609 3500 
L 1753 1863 
L 3688 0 
L 2938 0 
L 1159 1709 
L 1159 0 
L 581 0 
L 581 4863 
z
" transform="scale(0.015625)"/>
     </defs>
     <use xlink:href="#DejaVuSans-66"/>
     <use xlink:href="#DejaVuSans-6c" x="35.205078"/>
     <use xlink:href="#DejaVuSans-61" x="62.988281"/>
     <use xlink:href="#DejaVuSans-6e" x="124.267578"/>
     <use xlink:href="#DejaVuSans-6b" x="187.646484"/>
    </g>
   </g>
  </g>
  <g id="axes_2">
   <g id="patch_5">
    <path d="M 161.86 102.2 
L 261.745 102.2 
L 261.745 24.8 
L 161.86 24.8 
z
" style="fill: #ffffff"/>
   </g>
   <g id="PathCollection_10">
    <path d="M 246.800272 88.435543 
C 247.595882 88.435543 248.359012 88.119444 248.921593 87.556864 
C 249.484173 86.994283 249.800272 86.231153 249.800272 85.435543 
C 249.800272 84.639934 249.484173 83.876804 248.921593 83.314223 
C 248.359012 82.751642 247.595882 82.435543 246.800272 82.435543 
C 246.004663 82.435543 245.241533 82.751642 244.678952 83.314223 
C 244.116371 83.876804 243.800272 84.639934 243.800272 85.435543 
C 243.800272 86.231153 244.116371 86.994283 244.678952 87.556864 
C 245.241533 88.119444 246.004663 88.435543 246.800272 88.435543 
z
" clip-path="url(#p45cb431b47)" style="fill: #277f8e; stroke: #ffffff; stroke-width: 0.48"/>
    <path d="M 241.805699 86.476184 
C 242.601309 86.476184 243.364439 86.160085 243.92702 85.597504 
C 244.4896 85.034923 244.805699 84.271793 244.805699 83.476184 
C 244.805699 82.680574 244.4896 81.917444 243.92702 81.354863 
C 243.364439 80.792282 242.601309 80.476184 241.805699 80.476184 
C 241.01009 80.476184 240.24696 80.792282 239.684379 81.354863 
C 239.121798 81.917444 238.805699 82.680574 238.805699 83.476184 
C 238.805699 84.271793 239.121798 85.034923 239.684379 85.597504 
C 240.24696 86.160085 241.01009 86.476184 241.805699 86.476184 
z
" clip-path="url(#p45cb431b47)" style="fill: #365c8d; stroke: #ffffff; stroke-width: 0.48"/>
    <path d="M 255.084989 97.553525 
C 255.880598 97.553525 256.643728 97.237426 257.206309 96.674846 
C 257.76889 96.112265 258.084989 95.349134 258.084989 94.553525 
C 258.084989 93.757916 257.76889 92.994786 257.206309 92.432205 
C 256.643728 91.869624 255.880598 91.553525 255.084989 91.553525 
C 254.28938 91.553525 253.526249 91.869624 252.963669 92.432205 
C 252.401088 92.994786 252.084989 93.757916 252.084989 94.553525 
C 252.084989 95.349134 252.401088 96.112265 252.963669 96.674846 
C 253.526249 97.237426 254.28938 97.553525 255.084989 97.553525 
z
" clip-path="url(#p45cb431b47)" style="fill: #4ac16d; stroke: #ffffff; stroke-width: 0.48"/>
    <path d="M 257.204773 101.681818 
C 258.000382 101.681818 258.763512 101.365719 259.326093 100.803139 
C 259.888674 100.240558 260.204773 99.477427 260.204773 98.681818 
C 260.204773 97.886209 259.888674 97.123079 259.326093 96.560498 
C 258.763512 95.997917 258.000382 95.681818 257.204773 95.681818 
C 256.409163 95.681818 255.646033 95.997917 255.083452 96.560498 
C 254.520872 97.123079 254.204773 97.886209 254.204773 98.681818 
C 254.204773 99.477427 254.520872 100.240558 255.083452 100.803139 
C 255.646033 101.365719 256.409163 101.681818 257.204773 101.681818 
z
" clip-path="url(#p45cb431b47)" style="fill: #a0da39; stroke: #ffffff; stroke-width: 0.48"/>
    <path d="M 237.833675 83.668674 
C 238.629284 83.668674 239.392415 83.352575 239.954995 82.789994 
C 240.517576 82.227414 240.833675 81.464283 240.833675 80.668674 
C 240.833675 79.873065 240.517576 79.109934 239.954995 78.547354 
C 239.392415 77.984773 238.629284 77.668674 237.833675 77.668674 
C 237.038066 77.668674 236.274935 77.984773 235.712355 78.547354 
C 235.149774 79.109934 234.833675 79.873065 234.833675 80.668674 
C 234.833675 81.464283 235.149774 82.227414 235.712355 82.789994 
C 236.274935 83.352575 237.038066 83.668674 237.833675 83.668674 
z
" clip-path="url(#p45cb431b47)" style="fill: #46327e; stroke: #ffffff; stroke-width: 0.48"/>
    <path d="M 249.237579 91.795603 
C 250.033188 91.795603 250.796319 91.479504 251.358899 90.916923 
C 251.92148 90.354342 252.237579 89.591212 252.237579 88.795603 
C 252.237579 87.999994 251.92148 87.236863 251.358899 86.674282 
C 250.796319 86.111702 250.033188 85.795603 249.237579 85.795603 
C 248.44197 85.795603 247.678839 86.111702 247.116259 86.674282 
C 246.553678 87.236863 246.237579 87.999994 246.237579 88.795603 
C 246.237579 89.591212 246.553678 90.354342 247.116259 90.916923 
C 247.678839 91.479504 248.44197 91.795603 249.237579 91.795603 
z
" clip-path="url(#p45cb431b47)" style="fill: #1fa187; stroke: #ffffff; stroke-width: 0.48"/>
    <path d="M 220.177307 73.070877 
L 221.677307 71.570877 
L 223.177307 73.070877 
L 224.677307 71.570877 
L 223.177307 70.070877 
L 224.677307 68.570877 
L 223.177307 67.070877 
L 221.677307 68.570877 
L 220.177307 67.070877 
L 218.677307 68.570877 
L 220.177307 70.070877 
L 218.677307 71.570877 
z
" clip-path="url(#p45cb431b47)" style="fill: #277f8e; stroke: #ffffff; stroke-width: 0.48"/>
    <path d="M 219.598937 73.272133 
L 221.098937 71.772133 
L 222.598937 73.272133 
L 224.098937 71.772133 
L 222.598937 70.272133 
L 224.098937 68.772133 
L 222.598937 67.272133 
L 221.098937 68.772133 
L 219.598937 67.272133 
L 218.098937 68.772133 
L 219.598937 70.272133 
L 218.098937 71.772133 
z
" clip-path="url(#p45cb431b47)" style="fill: #365c8d; stroke: #ffffff; stroke-width: 0.48"/>
    <path d="M 240.416741 88.715773 
L 241.916741 87.215773 
L 243.416741 88.715773 
L 244.916741 87.215773 
L 243.416741 85.715773 
L 244.916741 84.215773 
L 243.416741 82.715773 
L 241.916741 84.215773 
L 240.416741 82.715773 
L 238.916741 84.215773 
L 240.416741 85.715773 
L 238.916741 87.215773 
z
" clip-path="url(#p45cb431b47)" style="fill: #4ac16d; stroke: #ffffff; stroke-width: 0.48"/>
    <path d="M 250.336178 98.165007 
L 251.836178 96.665007 
L 253.336178 98.165007 
L 254.836178 96.665007 
L 253.336178 95.165007 
L 254.836178 93.665007 
L 253.336178 92.165007 
L 251.836178 93.665007 
L 250.336178 92.165007 
L 248.836178 93.665007 
L 250.336178 95.165007 
L 248.836178 96.665007 
z
" clip-path="url(#p45cb431b47)" style="fill: #a0da39; stroke: #ffffff; stroke-width: 0.48"/>
    <path d="M 213.861541 69.447897 
L 215.361541 67.947897 
L 216.861541 69.447897 
L 218.361541 67.947897 
L 216.861541 66.447897 
L 218.361541 64.947897 
L 216.861541 63.447897 
L 215.361541 64.947897 
L 213.861541 63.447897 
L 212.361541 64.947897 
L 213.861541 66.447897 
L 212.361541 67.947897 
z
" clip-path="url(#p45cb431b47)" style="fill: #46327e; stroke: #ffffff; stroke-width: 0.48"/>
    <path d="M 229.437573 80.091367 
L 230.937573 78.591367 
L 232.437573 80.091367 
L 233.937573 78.591367 
L 232.437573 77.091367 
L 233.937573 75.591367 
L 232.437573 74.091367 
L 230.937573 75.591367 
L 229.437573 74.091367 
L 227.937573 75.591367 
L 229.437573 77.091367 
L 227.937573 78.591367 
z
" clip-path="url(#p45cb431b47)" style="fill: #1fa187; stroke: #ffffff; stroke-width: 0.48"/>
   </g>
   <g id="matplotlib.axis_3">
    <g id="xtick_3">
     <g id="line2d_11">
      <path d="M 195.109296 102.2 
L 195.109296 24.8 
" clip-path="url(#p45cb431b47)" style="fill: none; stroke: #b0b0b0; stroke-width: 0.8; stroke-linecap: square"/>
     </g>
     <g id="line2d_12">
      <g>
       <use xlink:href="#m088ce98f4e" x="195.109296" y="102.2" style="stroke: #000000; stroke-width: 0.8"/>
      </g>
     </g>
     <g id="text_9">
      <!-- 0.6 -->
      <g transform="translate(187.157734 116.798437)scale(0.1 -0.1)">
       <use xlink:href="#DejaVuSans-30"/>
       <use xlink:href="#DejaVuSans-2e" x="63.623047"/>
       <use xlink:href="#DejaVuSans-36" x="95.410156"/>
      </g>
     </g>
    </g>
    <g id="xtick_4">
     <g id="line2d_13">
      <path d="M 230.911714 102.2 
L 230.911714 24.8 
" clip-path="url(#p45cb431b47)" style="fill: none; stroke: #b0b0b0; stroke-width: 0.8; stroke-linecap: square"/>
     </g>
     <g id="line2d_14">
      <g>
       <use xlink:href="#m088ce98f4e" x="230.911714" y="102.2" style="stroke: #000000; stroke-width: 0.8"/>
      </g>
     </g>
     <g id="text_10">
      <!-- 0.7 -->
      <g transform="translate(222.960152 116.798437)scale(0.1 -0.1)">
       <use xlink:href="#DejaVuSans-30"/>
       <use xlink:href="#DejaVuSans-2e" x="63.623047"/>
       <use xlink:href="#DejaVuSans-37" x="95.410156"/>
      </g>
     </g>
    </g>
    <g id="text_11">
     <!-- mCGN-mC -->
     <g transform="translate(185.660313 130.476562)scale(0.1 -0.1)">
      <use xlink:href="#DejaVuSans-6d"/>
      <use xlink:href="#DejaVuSans-43" x="97.412109"/>
      <use xlink:href="#DejaVuSans-47" x="167.236328"/>
      <use xlink:href="#DejaVuSans-4e" x="244.726562"/>
      <use xlink:href="#DejaVuSans-2d" x="319.53125"/>
      <use xlink:href="#DejaVuSans-6d" x="355.615234"/>
      <use xlink:href="#DejaVuSans-43" x="453.027344"/>
     </g>
    </g>
   </g>
   <g id="matplotlib.axis_4">
    <g id="ytick_4">
     <g id="line2d_15">
      <path d="M 161.86 85.874056 
L 261.745 85.874056 
" clip-path="url(#p45cb431b47)" style="fill: none; stroke: #b0b0b0; stroke-width: 0.8; stroke-linecap: square"/>
     </g>
     <g id="line2d_16">
      <g>
       <use xlink:href="#m6881d6a1f9" x="161.86" y="85.874056" style="stroke: #000000; stroke-width: 0.8"/>
      </g>
     </g>
    </g>
    <g id="ytick_5">
     <g id="line2d_17">
      <path d="M 161.86 62.647327 
L 261.745 62.647327 
" clip-path="url(#p45cb431b47)" style="fill: none; stroke: #b0b0b0; stroke-width: 0.8; stroke-linecap: square"/>
     </g>
     <g id="line2d_18">
      <g>
       <use xlink:href="#m6881d6a1f9" x="161.86" y="62.647327" style="stroke: #000000; stroke-width: 0.8"/>
      </g>
     </g>
    </g>
    <g id="ytick_6">
     <g id="line2d_19">
      <path d="M 161.86 39.420599 
L 261.745 39.420599 
" clip-path="url(#p45cb431b47)" style="fill: none; stroke: #b0b0b0; stroke-width: 0.8; stroke-linecap: square"/>
     </g>
     <g id="line2d_20">
      <g>
       <use xlink:href="#m6881d6a1f9" x="161.86" y="39.420599" style="stroke: #000000; stroke-width: 0.8"/>
      </g>
     </g>
    </g>
   </g>
   <g id="patch_6">
    <path d="M 161.86 102.2 
L 161.86 24.8 
" style="fill: none; stroke: #000000; stroke-width: 0.8; stroke-linejoin: miter; stroke-linecap: square"/>
   </g>
   <g id="patch_7">
    <path d="M 161.86 102.2 
L 261.745 102.2 
" style="fill: none; stroke: #000000; stroke-width: 0.8; stroke-linejoin: miter; stroke-linecap: square"/>
   </g>
   <g id="text_12">
    <!-- L1 -->
    <g transform="translate(205.835313 18.8)scale(0.1 -0.1)">
     <defs>
      <path id="DejaVuSans-4c" d="M 628 4666 
L 1259 4666 
L 1259 531 
L 3531 531 
L 3531 0 
L 628 0 
L 628 4666 
z
" transform="scale(0.015625)"/>
     </defs>
     <use xlink:href="#DejaVuSans-4c"/>
     <use xlink:href="#DejaVuSans-31" x="55.712891"/>
    </g>
   </g>
  </g>
  <g id="text_13">
   <!-- L1 class: L1HS -->
   <g transform="translate(149.815938 6.238125)scale(0.12 -0.12)">
    <defs>
     <path id="DejaVuSans-20" transform="scale(0.015625)"/>
     <path id="DejaVuSans-63" d="M 3122 3366 
L 3122 2828 
Q 2878 2963 2633 3030 
Q 2388 3097 2138 3097 
Q 1578 3097 1268 2742 
Q 959 2388 959 1747 
Q 959 1106 1268 751 
Q 1578 397 2138 397 
Q 2388 397 2633 464 
Q 2878 531 3122 666 
L 3122 134 
Q 2881 22 2623 -34 
Q 2366 -91 2075 -91 
Q 1284 -91 818 406 
Q 353 903 353 1747 
Q 353 2603 823 3093 
Q 1294 3584 2113 3584 
Q 2378 3584 2631 3529 
Q 2884 3475 3122 3366 
z
" transform="scale(0.015625)"/>
     <path id="DejaVuSans-73" d="M 2834 3397 
L 2834 2853 
Q 2591 2978 2328 3040 
Q 2066 3103 1784 3103 
Q 1356 3103 1142 2972 
Q 928 2841 928 2578 
Q 928 2378 1081 2264 
Q 1234 2150 1697 2047 
L 1894 2003 
Q 2506 1872 2764 1633 
Q 3022 1394 3022 966 
Q 3022 478 2636 193 
Q 2250 -91 1575 -91 
Q 1294 -91 989 -36 
Q 684 19 347 128 
L 347 722 
Q 666 556 975 473 
Q 1284 391 1588 391 
Q 1994 391 2212 530 
Q 2431 669 2431 922 
Q 2431 1156 2273 1281 
Q 2116 1406 1581 1522 
L 1381 1569 
Q 847 1681 609 1914 
Q 372 2147 372 2553 
Q 372 3047 722 3315 
Q 1072 3584 1716 3584 
Q 2034 3584 2315 3537 
Q 2597 3491 2834 3397 
z
" transform="scale(0.015625)"/>
     <path id="DejaVuSans-3a" d="M 750 794 
L 1409 794 
L 1409 0 
L 750 0 
L 750 794 
z
M 750 3309 
L 1409 3309 
L 1409 2516 
L 750 2516 
L 750 3309 
z
" transform="scale(0.015625)"/>
     <path id="DejaVuSans-48" d="M 628 4666 
L 1259 4666 
L 1259 2753 
L 3553 2753 
L 3553 4666 
L 4184 4666 
L 4184 0 
L 3553 0 
L 3553 2222 
L 1259 2222 
L 1259 0 
L 628 0 
L 628 4666 
z
" transform="scale(0.015625)"/>
     <path id="DejaVuSans-53" d="M 3425 4513 
L 3425 3897 
Q 3066 4069 2747 4153 
Q 2428 4238 2131 4238 
Q 1616 4238 1336 4038 
Q 1056 3838 1056 3469 
Q 1056 3159 1242 3001 
Q 1428 2844 1947 2747 
L 2328 2669 
Q 3034 2534 3370 2195 
Q 3706 1856 3706 1288 
Q 3706 609 3251 259 
Q 2797 -91 1919 -91 
Q 1588 -91 1214 -16 
Q 841 59 441 206 
L 441 856 
Q 825 641 1194 531 
Q 1563 422 1919 422 
Q 2459 422 2753 634 
Q 3047 847 3047 1241 
Q 3047 1584 2836 1778 
Q 2625 1972 2144 2069 
L 1759 2144 
Q 1053 2284 737 2584 
Q 422 2884 422 3419 
Q 422 4038 858 4394 
Q 1294 4750 2059 4750 
Q 2388 4750 2728 4690 
Q 3069 4631 3425 4513 
z
" transform="scale(0.015625)"/>
    </defs>
    <use xlink:href="#DejaVuSans-4c"/>
    <use xlink:href="#DejaVuSans-31" x="55.712891"/>
    <use xlink:href="#DejaVuSans-20" x="119.335938"/>
    <use xlink:href="#DejaVuSans-63" x="151.123047"/>
    <use xlink:href="#DejaVuSans-6c" x="206.103516"/>
    <use xlink:href="#DejaVuSans-61" x="233.886719"/>
    <use xlink:href="#DejaVuSans-73" x="295.166016"/>
    <use xlink:href="#DejaVuSans-73" x="347.265625"/>
    <use xlink:href="#DejaVuSans-3a" x="399.365234"/>
    <use xlink:href="#DejaVuSans-20" x="433.056641"/>
    <use xlink:href="#DejaVuSans-4c" x="464.84375"/>
    <use xlink:href="#DejaVuSans-31" x="520.556641"/>
    <use xlink:href="#DejaVuSans-48" x="584.179688"/>
    <use xlink:href="#DejaVuSans-53" x="659.375"/>
   </g>
  </g>
  <g id="legend_1">
   <g id="text_14">
    <!-- age -->
    <g transform="translate(294.998438 8.290625)scale(0.1 -0.1)">
     <defs>
      <path id="DejaVuSans-67" d="M 2906 1791 
Q 2906 2416 2648 2759 
Q 2391 3103 1925 3103 
Q 1463 3103 1205 2759 
Q 947 2416 947 1791 
Q 947 1169 1205 825 
Q 1463 481 1925 481 
Q 2391 481 2648 825 
Q 2906 1169 2906 1791 
z
M 3481 434 
Q 3481 -459 3084 -895 
Q 2688 -1331 1869 -1331 
Q 1566 -1331 1297 -1286 
Q 1028 -1241 775 -1147 
L 775 -588 
Q 1028 -725 1275 -790 
Q 1522 -856 1778 -856 
Q 2344 -856 2625 -561 
Q 2906 -266 2906 331 
L 2906 616 
Q 2728 306 2450 153 
Q 2172 0 1784 0 
Q 1141 0 747 490 
Q 353 981 353 1791 
Q 353 2603 747 3093 
Q 1141 3584 1784 3584 
Q 2172 3584 2450 3431 
Q 2728 3278 2906 2969 
L 2906 3500 
L 3481 3500 
L 3481 434 
z
" transform="scale(0.015625)"/>
      <path id="DejaVuSans-65" d="M 3597 1894 
L 3597 1613 
L 953 1613 
Q 991 1019 1311 708 
Q 1631 397 2203 397 
Q 2534 397 2845 478 
Q 3156 559 3463 722 
L 3463 178 
Q 3153 47 2828 -22 
Q 2503 -91 2169 -91 
Q 1331 -91 842 396 
Q 353 884 353 1716 
Q 353 2575 817 3079 
Q 1281 3584 2069 3584 
Q 2775 3584 3186 3129 
Q 3597 2675 3597 1894 
z
M 3022 2063 
Q 3016 2534 2758 2815 
Q 2500 3097 2075 3097 
Q 1594 3097 1305 2825 
Q 1016 2553 972 2059 
L 3022 2063 
z
" transform="scale(0.015625)"/>
     </defs>
     <use xlink:href="#DejaVuSans-61"/>
     <use xlink:href="#DejaVuSans-67" x="61.279297"/>
     <use xlink:href="#DejaVuSans-65" x="124.755859"/>
    </g>
   </g>
   <g id="PathCollection_11">
    <defs>
     <path id="m091d0f57f6" d="M 0 3 
C 0.795609 3 1.55874 2.683901 2.12132 2.12132 
C 2.683901 1.55874 3 0.795609 3 0 
C 3 -0.795609 2.683901 -1.55874 2.12132 -2.12132 
C 1.55874 -2.683901 0.795609 -3 0 -3 
C -0.795609 -3 -1.55874 -2.683901 -2.12132 -2.12132 
C -2.683901 -1.55874 -3 -0.795609 -3 0 
C -3 0.795609 -2.683901 1.55874 -2.12132 2.12132 
C -1.55874 2.683901 -0.795609 3 0 3 
z
" style="stroke: #a0da39"/>
    </defs>
    <g>
     <use xlink:href="#m091d0f57f6" x="296.998438" y="20.34375" style="fill: #a0da39; stroke: #a0da39"/>
    </g>
   </g>
   <g id="text_15">
    <!-- infancy -->
    <g transform="translate(314.998438 22.96875)scale(0.1 -0.1)">
     <defs>
      <path id="DejaVuSans-69" d="M 603 3500 
L 1178 3500 
L 1178 0 
L 603 0 
L 603 3500 
z
M 603 4863 
L 1178 4863 
L 1178 4134 
L 603 4134 
L 603 4863 
z
" transform="scale(0.015625)"/>
      <path id="DejaVuSans-79" d="M 2059 -325 
Q 1816 -950 1584 -1140 
Q 1353 -1331 966 -1331 
L 506 -1331 
L 506 -850 
L 844 -850 
Q 1081 -850 1212 -737 
Q 1344 -625 1503 -206 
L 1606 56 
L 191 3500 
L 800 3500 
L 1894 763 
L 2988 3500 
L 3597 3500 
L 2059 -325 
z
" transform="scale(0.015625)"/>
     </defs>
     <use xlink:href="#DejaVuSans-69"/>
     <use xlink:href="#DejaVuSans-6e" x="27.783203"/>
     <use xlink:href="#DejaVuSans-66" x="91.162109"/>
     <use xlink:href="#DejaVuSans-61" x="126.367188"/>
     <use xlink:href="#DejaVuSans-6e" x="187.646484"/>
     <use xlink:href="#DejaVuSans-63" x="251.025391"/>
     <use xlink:href="#DejaVuSans-79" x="306.005859"/>
    </g>
   </g>
   <g id="PathCollection_12">
    <defs>
     <path id="m6d863a900f" d="M 0 3 
C 0.795609 3 1.55874 2.683901 2.12132 2.12132 
C 2.683901 1.55874 3 0.795609 3 0 
C 3 -0.795609 2.683901 -1.55874 2.12132 -2.12132 
C 1.55874 -2.683901 0.795609 -3 0 -3 
C -0.795609 -3 -1.55874 -2.683901 -2.12132 -2.12132 
C -2.683901 -1.55874 -3 -0.795609 -3 0 
C -3 0.795609 -2.683901 1.55874 -2.12132 2.12132 
C -1.55874 2.683901 -0.795609 3 0 3 
z
" style="stroke: #4ac16d"/>
    </defs>
    <g>
     <use xlink:href="#m6d863a900f" x="296.998438" y="35.021875" style="fill: #4ac16d; stroke: #4ac16d"/>
    </g>
   </g>
   <g id="text_16">
    <!-- early_child -->
    <g transform="translate(314.998438 37.646875)scale(0.1 -0.1)">
     <defs>
      <path id="DejaVuSans-72" d="M 2631 2963 
Q 2534 3019 2420 3045 
Q 2306 3072 2169 3072 
Q 1681 3072 1420 2755 
Q 1159 2438 1159 1844 
L 1159 0 
L 581 0 
L 581 3500 
L 1159 3500 
L 1159 2956 
Q 1341 3275 1631 3429 
Q 1922 3584 2338 3584 
Q 2397 3584 2469 3576 
Q 2541 3569 2628 3553 
L 2631 2963 
z
" transform="scale(0.015625)"/>
      <path id="DejaVuSans-5f" d="M 3263 -1063 
L 3263 -1509 
L -63 -1509 
L -63 -1063 
L 3263 -1063 
z
" transform="scale(0.015625)"/>
      <path id="DejaVuSans-64" d="M 2906 2969 
L 2906 4863 
L 3481 4863 
L 3481 0 
L 2906 0 
L 2906 525 
Q 2725 213 2448 61 
Q 2172 -91 1784 -91 
Q 1150 -91 751 415 
Q 353 922 353 1747 
Q 353 2572 751 3078 
Q 1150 3584 1784 3584 
Q 2172 3584 2448 3432 
Q 2725 3281 2906 2969 
z
M 947 1747 
Q 947 1113 1208 752 
Q 1469 391 1925 391 
Q 2381 391 2643 752 
Q 2906 1113 2906 1747 
Q 2906 2381 2643 2742 
Q 2381 3103 1925 3103 
Q 1469 3103 1208 2742 
Q 947 2381 947 1747 
z
" transform="scale(0.015625)"/>
     </defs>
     <use xlink:href="#DejaVuSans-65"/>
     <use xlink:href="#DejaVuSans-61" x="61.523438"/>
     <use xlink:href="#DejaVuSans-72" x="122.802734"/>
     <use xlink:href="#DejaVuSans-6c" x="163.916016"/>
     <use xlink:href="#DejaVuSans-79" x="191.699219"/>
     <use xlink:href="#DejaVuSans-5f" x="250.878906"/>
     <use xlink:href="#DejaVuSans-63" x="300.878906"/>
     <use xlink:href="#DejaVuSans-68" x="355.859375"/>
     <use xlink:href="#DejaVuSans-69" x="419.238281"/>
     <use xlink:href="#DejaVuSans-6c" x="447.021484"/>
     <use xlink:href="#DejaVuSans-64" x="474.804688"/>
    </g>
   </g>
   <g id="PathCollection_13">
    <defs>
     <path id="md904427a57" d="M 0 3 
C 0.795609 3 1.55874 2.683901 2.12132 2.12132 
C 2.683901 1.55874 3 0.795609 3 0 
C 3 -0.795609 2.683901 -1.55874 2.12132 -2.12132 
C 1.55874 -2.683901 0.795609 -3 0 -3 
C -0.795609 -3 -1.55874 -2.683901 -2.12132 -2.12132 
C -2.683901 -1.55874 -3 -0.795609 -3 0 
C -3 0.795609 -2.683901 1.55874 -2.12132 2.12132 
C -1.55874 2.683901 -0.795609 3 0 3 
z
" style="stroke: #1fa187"/>
    </defs>
    <g>
     <use xlink:href="#md904427a57" x="296.998438" y="49.978125" style="fill: #1fa187; stroke: #1fa187"/>
    </g>
   </g>
   <g id="text_17">
    <!-- late_child -->
    <g transform="translate(314.998438 52.603125)scale(0.1 -0.1)">
     <defs>
      <path id="DejaVuSans-74" d="M 1172 4494 
L 1172 3500 
L 2356 3500 
L 2356 3053 
L 1172 3053 
L 1172 1153 
Q 1172 725 1289 603 
Q 1406 481 1766 481 
L 2356 481 
L 2356 0 
L 1766 0 
Q 1100 0 847 248 
Q 594 497 594 1153 
L 594 3053 
L 172 3053 
L 172 3500 
L 594 3500 
L 594 4494 
L 1172 4494 
z
" transform="scale(0.015625)"/>
     </defs>
     <use xlink:href="#DejaVuSans-6c"/>
     <use xlink:href="#DejaVuSans-61" x="27.783203"/>
     <use xlink:href="#DejaVuSans-74" x="89.0625"/>
     <use xlink:href="#DejaVuSans-65" x="128.271484"/>
     <use xlink:href="#DejaVuSans-5f" x="189.794922"/>
     <use xlink:href="#DejaVuSans-63" x="239.794922"/>
     <use xlink:href="#DejaVuSans-68" x="294.775391"/>
     <use xlink:href="#DejaVuSans-69" x="358.154297"/>
     <use xlink:href="#DejaVuSans-6c" x="385.9375"/>
     <use xlink:href="#DejaVuSans-64" x="413.720703"/>
    </g>
   </g>
   <g id="PathCollection_14">
    <defs>
     <path id="m5464cea5c4" d="M 0 3 
C 0.795609 3 1.55874 2.683901 2.12132 2.12132 
C 2.683901 1.55874 3 0.795609 3 0 
C 3 -0.795609 2.683901 -1.55874 2.12132 -2.12132 
C 1.55874 -2.683901 0.795609 -3 0 -3 
C -0.795609 -3 -1.55874 -2.683901 -2.12132 -2.12132 
C -2.683901 -1.55874 -3 -0.795609 -3 0 
C -3 0.795609 -2.683901 1.55874 -2.12132 2.12132 
C -1.55874 2.683901 -0.795609 3 0 3 
z
" style="stroke: #277f8e"/>
    </defs>
    <g>
     <use xlink:href="#m5464cea5c4" x="296.998438" y="64.934375" style="fill: #277f8e; stroke: #277f8e"/>
    </g>
   </g>
   <g id="text_18">
    <!-- adolescence -->
    <g transform="translate(314.998438 67.559375)scale(0.1 -0.1)">
     <defs>
      <path id="DejaVuSans-6f" d="M 1959 3097 
Q 1497 3097 1228 2736 
Q 959 2375 959 1747 
Q 959 1119 1226 758 
Q 1494 397 1959 397 
Q 2419 397 2687 759 
Q 2956 1122 2956 1747 
Q 2956 2369 2687 2733 
Q 2419 3097 1959 3097 
z
M 1959 3584 
Q 2709 3584 3137 3096 
Q 3566 2609 3566 1747 
Q 3566 888 3137 398 
Q 2709 -91 1959 -91 
Q 1206 -91 779 398 
Q 353 888 353 1747 
Q 353 2609 779 3096 
Q 1206 3584 1959 3584 
z
" transform="scale(0.015625)"/>
     </defs>
     <use xlink:href="#DejaVuSans-61"/>
     <use xlink:href="#DejaVuSans-64" x="61.279297"/>
     <use xlink:href="#DejaVuSans-6f" x="124.755859"/>
     <use xlink:href="#DejaVuSans-6c" x="185.9375"/>
     <use xlink:href="#DejaVuSans-65" x="213.720703"/>
     <use xlink:href="#DejaVuSans-73" x="275.244141"/>
     <use xlink:href="#DejaVuSans-63" x="327.34375"/>
     <use xlink:href="#DejaVuSans-65" x="382.324219"/>
     <use xlink:href="#DejaVuSans-6e" x="443.847656"/>
     <use xlink:href="#DejaVuSans-63" x="507.226562"/>
     <use xlink:href="#DejaVuSans-65" x="562.207031"/>
    </g>
   </g>
   <g id="PathCollection_15">
    <defs>
     <path id="m50defd74c4" d="M 0 3 
C 0.795609 3 1.55874 2.683901 2.12132 2.12132 
C 2.683901 1.55874 3 0.795609 3 0 
C 3 -0.795609 2.683901 -1.55874 2.12132 -2.12132 
C 1.55874 -2.683901 0.795609 -3 0 -3 
C -0.795609 -3 -1.55874 -2.683901 -2.12132 -2.12132 
C -2.683901 -1.55874 -3 -0.795609 -3 0 
C -3 0.795609 -2.683901 1.55874 -2.12132 2.12132 
C -1.55874 2.683901 -0.795609 3 0 3 
z
" style="stroke: #365c8d"/>
    </defs>
    <g>
     <use xlink:href="#m50defd74c4" x="296.998438" y="79.6125" style="fill: #365c8d; stroke: #365c8d"/>
    </g>
   </g>
   <g id="text_19">
    <!-- adult -->
    <g transform="translate(314.998438 82.2375)scale(0.1 -0.1)">
     <defs>
      <path id="DejaVuSans-75" d="M 544 1381 
L 544 3500 
L 1119 3500 
L 1119 1403 
Q 1119 906 1312 657 
Q 1506 409 1894 409 
Q 2359 409 2629 706 
Q 2900 1003 2900 1516 
L 2900 3500 
L 3475 3500 
L 3475 0 
L 2900 0 
L 2900 538 
Q 2691 219 2414 64 
Q 2138 -91 1772 -91 
Q 1169 -91 856 284 
Q 544 659 544 1381 
z
M 1991 3584 
L 1991 3584 
z
" transform="scale(0.015625)"/>
     </defs>
     <use xlink:href="#DejaVuSans-61"/>
     <use xlink:href="#DejaVuSans-64" x="61.279297"/>
     <use xlink:href="#DejaVuSans-75" x="124.755859"/>
     <use xlink:href="#DejaVuSans-6c" x="188.134766"/>
     <use xlink:href="#DejaVuSans-74" x="215.917969"/>
    </g>
   </g>
   <g id="PathCollection_16">
    <defs>
     <path id="mc755a196a4" d="M 0 3 
C 0.795609 3 1.55874 2.683901 2.12132 2.12132 
C 2.683901 1.55874 3 0.795609 3 0 
C 3 -0.795609 2.683901 -1.55874 2.12132 -2.12132 
C 1.55874 -2.683901 0.795609 -3 0 -3 
C -0.795609 -3 -1.55874 -2.683901 -2.12132 -2.12132 
C -2.683901 -1.55874 -3 -0.795609 -3 0 
C -3 0.795609 -2.683901 1.55874 -2.12132 2.12132 
C -1.55874 2.683901 -0.795609 3 0 3 
z
" style="stroke: #46327e"/>
    </defs>
    <g>
     <use xlink:href="#mc755a196a4" x="296.998438" y="94.290625" style="fill: #46327e; stroke: #46327e"/>
    </g>
   </g>
   <g id="text_20">
    <!-- late_adult -->
    <g transform="translate(314.998438 96.915625)scale(0.1 -0.1)">
     <use xlink:href="#DejaVuSans-6c"/>
     <use xlink:href="#DejaVuSans-61" x="27.783203"/>
     <use xlink:href="#DejaVuSans-74" x="89.0625"/>
     <use xlink:href="#DejaVuSans-65" x="128.271484"/>
     <use xlink:href="#DejaVuSans-5f" x="189.794922"/>
     <use xlink:href="#DejaVuSans-61" x="239.794922"/>
     <use xlink:href="#DejaVuSans-64" x="301.074219"/>
     <use xlink:href="#DejaVuSans-75" x="364.550781"/>
     <use xlink:href="#DejaVuSans-6c" x="427.929688"/>
     <use xlink:href="#DejaVuSans-74" x="455.712891"/>
    </g>
   </g>
   <g id="text_21">
    <!-- celltype -->
    <g transform="translate(294.998438 111.871875)scale(0.1 -0.1)">
     <defs>
      <path id="DejaVuSans-70" d="M 1159 525 
L 1159 -1331 
L 581 -1331 
L 581 3500 
L 1159 3500 
L 1159 2969 
Q 1341 3281 1617 3432 
Q 1894 3584 2278 3584 
Q 2916 3584 3314 3078 
Q 3713 2572 3713 1747 
Q 3713 922 3314 415 
Q 2916 -91 2278 -91 
Q 1894 -91 1617 61 
Q 1341 213 1159 525 
z
M 3116 1747 
Q 3116 2381 2855 2742 
Q 2594 3103 2138 3103 
Q 1681 3103 1420 2742 
Q 1159 2381 1159 1747 
Q 1159 1113 1420 752 
Q 1681 391 2138 391 
Q 2594 391 2855 752 
Q 3116 1113 3116 1747 
z
" transform="scale(0.015625)"/>
     </defs>
     <use xlink:href="#DejaVuSans-63"/>
     <use xlink:href="#DejaVuSans-65" x="54.980469"/>
     <use xlink:href="#DejaVuSans-6c" x="116.503906"/>
     <use xlink:href="#DejaVuSans-6c" x="144.287109"/>
     <use xlink:href="#DejaVuSans-74" x="172.070312"/>
     <use xlink:href="#DejaVuSans-79" x="211.279297"/>
     <use xlink:href="#DejaVuSans-70" x="270.458984"/>
     <use xlink:href="#DejaVuSans-65" x="333.935547"/>
    </g>
   </g>
   <g id="PathCollection_17">
    <defs>
     <path id="m6a3c477f65" d="M 0 3 
C 0.795609 3 1.55874 2.683901 2.12132 2.12132 
C 2.683901 1.55874 3 0.795609 3 0 
C 3 -0.795609 2.683901 -1.55874 2.12132 -2.12132 
C 1.55874 -2.683901 0.795609 -3 0 -3 
C -0.795609 -3 -1.55874 -2.683901 -2.12132 -2.12132 
C -2.683901 -1.55874 -3 -0.795609 -3 0 
C -3 0.795609 -2.683901 1.55874 -2.12132 2.12132 
C -1.55874 2.683901 -0.795609 3 0 3 
z
" style="stroke: #333333"/>
    </defs>
    <g>
     <use xlink:href="#m6a3c477f65" x="296.998438" y="123.925" style="fill: #333333; stroke: #333333"/>
    </g>
   </g>
   <g id="text_22">
    <!-- GABA -->
    <g transform="translate(314.998438 126.55)scale(0.1 -0.1)">
     <defs>
      <path id="DejaVuSans-41" d="M 2188 4044 
L 1331 1722 
L 3047 1722 
L 2188 4044 
z
M 1831 4666 
L 2547 4666 
L 4325 0 
L 3669 0 
L 3244 1197 
L 1141 1197 
L 716 0 
L 50 0 
L 1831 4666 
z
" transform="scale(0.015625)"/>
      <path id="DejaVuSans-42" d="M 1259 2228 
L 1259 519 
L 2272 519 
Q 2781 519 3026 730 
Q 3272 941 3272 1375 
Q 3272 1813 3026 2020 
Q 2781 2228 2272 2228 
L 1259 2228 
z
M 1259 4147 
L 1259 2741 
L 2194 2741 
Q 2656 2741 2882 2914 
Q 3109 3088 3109 3444 
Q 3109 3797 2882 3972 
Q 2656 4147 2194 4147 
L 1259 4147 
z
M 628 4666 
L 2241 4666 
Q 2963 4666 3353 4366 
Q 3744 4066 3744 3513 
Q 3744 3084 3544 2831 
Q 3344 2578 2956 2516 
Q 3422 2416 3680 2098 
Q 3938 1781 3938 1306 
Q 3938 681 3513 340 
Q 3088 0 2303 0 
L 628 0 
L 628 4666 
z
" transform="scale(0.015625)"/>
     </defs>
     <use xlink:href="#DejaVuSans-47"/>
     <use xlink:href="#DejaVuSans-41" x="77.490234"/>
     <use xlink:href="#DejaVuSans-42" x="145.898438"/>
     <use xlink:href="#DejaVuSans-41" x="214.501953"/>
    </g>
   </g>
   <g id="PathCollection_18">
    <defs>
     <path id="ma0171fe6b8" d="M -1.5 3 
L 0 1.5 
L 1.5 3 
L 3 1.5 
L 1.5 0 
L 3 -1.5 
L 1.5 -3 
L 0 -1.5 
L -1.5 -3 
L -3 -1.5 
L -1.5 0 
L -3 1.5 
z
" style="stroke: #333333"/>
    </defs>
    <g>
     <use xlink:href="#ma0171fe6b8" x="296.998438" y="138.603125" style="fill: #333333; stroke: #333333"/>
    </g>
   </g>
   <g id="text_23">
    <!-- GLU -->
    <g transform="translate(314.998438 141.228125)scale(0.1 -0.1)">
     <defs>
      <path id="DejaVuSans-55" d="M 556 4666 
L 1191 4666 
L 1191 1831 
Q 1191 1081 1462 751 
Q 1734 422 2344 422 
Q 2950 422 3222 751 
Q 3494 1081 3494 1831 
L 3494 4666 
L 4128 4666 
L 4128 1753 
Q 4128 841 3676 375 
Q 3225 -91 2344 -91 
Q 1459 -91 1007 375 
Q 556 841 556 1753 
L 556 4666 
z
" transform="scale(0.015625)"/>
     </defs>
     <use xlink:href="#DejaVuSans-47"/>
     <use xlink:href="#DejaVuSans-4c" x="77.490234"/>
     <use xlink:href="#DejaVuSans-55" x="128.203125"/>
    </g>
   </g>
  </g>
 </g>
 <defs>
  <clipPath id="pfa12d5697e">
   <rect x="47.675" y="24.8" width="99.885" height="77.4"/>
  </clipPath>
  <clipPath id="p45cb431b47">
   <rect x="161.86" y="24.8" width="99.885" height="77.4"/>
  </clipPath>
 </defs>
</svg>
